SplineFontDB: 3.0
FontName: FiraMath-Medium
FullName: Fira Math Medium
FamilyName: Fira Math
Weight: Medium
Copyright: 
Version: 
ItalicAngle: 0
UnderlinePosition: -100
UnderlineWidth: 50
Ascent: 800
Descent: 200
InvalidEm: 0
LayerCount: 2
Layer: 0 0 "Back" 1
Layer: 1 0 "Fore" 0
XUID: [1021 425 -1210530009 27912]
OS2Version: 0
OS2_WeightWidthSlopeOnly: 0
OS2_UseTypoMetrics: 1
CreationTime: 1541509289
OS2TypoAscent: 0
OS2TypoAOffset: 1
OS2TypoDescent: 0
OS2TypoDOffset: 1
OS2TypoLinegap: 0
OS2WinAscent: 0
OS2WinAOffset: 1
OS2WinDescent: 0
OS2WinDOffset: 1
HheadAscent: 0
HheadAOffset: 1
HheadDescent: 0
HheadDOffset: 1
OS2Vendor: 'PfEd'
DEI: 91125
Encoding: UnicodeFull
UnicodeInterp: none
NameList: AGL For New Fonts
AntiAlias: 1
BeginChars: 1114112 922

StartChar: uni0021
Encoding: 33 33 1
Width: 241
Flags: W
LayerCount: 2
Fore
SplineSet
188 691 m 1
 173 244 l 1
 66 244 l 1
 50 691 l 1
 188 691 l 1
120 147 m 0
 166 147 201 111 201 66 c 0
 201 22 166 -15 120 -15 c 0
 75 -15 39 22 39 66 c 0
 39 111 75 147 120 147 c 0
EndSplineSet
EndChar

StartChar: uni0022
Encoding: 34 34 2
Width: 421
Flags: W
LayerCount: 2
Fore
SplineSet
71 420 m 1
 53 691 l 1
 176 691 l 1
 159 420 l 1
 71 420 l 1
262 420 m 1
 245 691 l 1
 368 691 l 1
 350 420 l 1
 262 420 l 1
EndSplineSet
EndChar

StartChar: uni0023
Encoding: 35 35 3
Width: 539
Flags: W
LayerCount: 2
Fore
SplineSet
524 443 m 1
 452 443 l 1
 425 240 l 1
 487 240 l 1
 487 152 l 1
 413 152 l 1
 393 0 l 1
 286 0 l 1
 306 152 l 1
 181 152 l 1
 161 0 l 1
 55 0 l 1
 75 152 l 1
 15 152 l 1
 15 240 l 1
 86 240 l 1
 113 443 l 1
 52 443 l 1
 52 532 l 1
 125 532 l 1
 143 673 l 1
 250 673 l 1
 231 532 l 1
 356 532 l 1
 375 673 l 1
 482 673 l 1
 463 532 l 1
 524 532 l 1
 524 443 l 1
318 240 m 1
 345 443 l 1
 220 443 l 1
 193 240 l 1
 318 240 l 1
EndSplineSet
EndChar

StartChar: uni0024
Encoding: 36 36 4
Width: 541
Flags: W
LayerCount: 2
Fore
SplineSet
509 193 m 0
 509 92 443 16 326 -5 c 1
 326 -158 l 1
 228 -158 l 1
 228 -10 l 1
 136 -4 67 31 17 80 c 1
 85 155 l 1
 131 112 185 87 254 87 c 0
 325 87 377 121 377 186 c 0
 377 242 349 267 245 299 c 0
 104 342 44 399 44 499 c 0
 44 598 119 666 228 680 c 1
 228 827 l 1
 326 827 l 1
 326 680 l 1
 394 671 445 644 490 601 c 1
 425 528 l 1
 380 569 333 586 278 586 c 0
 218 586 175 559 175 507 c 0
 175 459 201 437 312 403 c 0
 429 366 509 318 509 193 c 0
EndSplineSet
EndChar

StartChar: uni0025
Encoding: 37 37 5
Width: 844
Flags: W
LayerCount: 2
Fore
SplineSet
613 716 m 1
 696 663 l 1
 232 -36 l 1
 150 17 l 1
 613 716 l 1
207 685 m 0
 304 685 378 617 378 510 c 0
 378 403 304 335 207 335 c 0
 111 335 37 403 37 510 c 0
 37 617 111 685 207 685 c 0
207 605 m 0
 150 605 135 558 135 510 c 0
 135 463 150 415 207 415 c 0
 265 415 279 462 279 510 c 0
 279 557 265 605 207 605 c 0
637 335 m 0
 734 335 807 267 807 160 c 0
 807 53 734 -15 637 -15 c 0
 540 -15 466 53 466 160 c 0
 466 267 540 335 637 335 c 0
637 255 m 0
 580 255 565 208 565 160 c 0
 565 113 580 65 637 65 c 0
 695 65 709 112 709 160 c 0
 709 207 695 255 637 255 c 0
EndSplineSet
EndChar

StartChar: uni0026
Encoding: 38 38 6
Width: 746
Flags: W
LayerCount: 2
Fore
SplineSet
308 706 m 0
 431 706 508 639 508 550 c 0
 508 465 448 411 372 363 c 1
 526 218 l 1
 546 261 565 314 579 374 c 1
 690 341 l 1
 664 263 633 200 599 150 c 1
 716 44 l 1
 613 -15 l 1
 526 69 l 1
 466 13 395 -15 306 -15 c 0
 166 -15 69 60 69 176 c 0
 69 261 119 317 207 373 c 1
 142 436 110 479 110 545 c 0
 110 631 176 706 308 706 c 0
309 619 m 0
 261 619 234 589 234 545 c 0
 234 503 256 474 301 431 c 1
 354 465 385 498 385 545 c 0
 385 591 356 619 309 619 c 0
280 304 m 1
 227 268 203 231 203 182 c 0
 203 119 252 80 326 80 c 0
 379 80 420 99 458 133 c 1
 280 304 l 1
EndSplineSet
EndChar

StartChar: uni0027
Encoding: 39 39 7
Width: 230
Flags: W
LayerCount: 2
Fore
SplineSet
71 420 m 1
 53 691 l 1
 176 691 l 1
 159 420 l 1
 71 420 l 1
EndSplineSet
EndChar

StartChar: uni0028
Encoding: 40 40 8
Width: 324
Flags: W
LayerCount: 2
Fore
SplineSet
218 852 m 1
 300 797 l 1
 208 665 159 549 159 350 c 0
 159 152 208 35 300 -97 c 1
 218 -152 l 1
 119 -14 28 112 28 350 c 0
 28 588 119 714 218 852 c 1
EndSplineSet
EndChar

StartChar: uni0029
Encoding: 41 41 9
Width: 324
Flags: W
LayerCount: 2
Fore
SplineSet
106 852 m 1
 206 714 296 588 296 350 c 0
 296 112 206 -14 106 -152 c 1
 25 -97 l 1
 116 35 166 152 166 350 c 0
 166 549 116 665 25 797 c 1
 106 852 l 1
EndSplineSet
EndChar

StartChar: uni002A
Encoding: 42 42 10
Width: 444
Flags: W
LayerCount: 2
Fore
SplineSet
431 547 m 1
 284 519 l 1
 387 411 l 1
 294 343 l 1
 222 473 l 1
 151 343 l 1
 58 410 l 1
 159 520 l 1
 13 547 l 1
 48 653 l 1
 182 590 l 1
 164 741 l 1
 280 741 l 1
 262 590 l 1
 395 654 l 1
 431 547 l 1
EndSplineSet
EndChar

StartChar: uni002B
Encoding: 43 43 11
Width: 516
Flags: W
LayerCount: 2
Fore
SplineSet
313 535 m 1
 313 382 l 1
 462 382 l 1
 462 281 l 1
 313 281 l 1
 313 128 l 1
 203 128 l 1
 203 281 l 1
 55 281 l 1
 55 382 l 1
 203 382 l 1
 203 535 l 1
 313 535 l 1
EndSplineSet
EndChar

StartChar: uni002C
Encoding: 44 44 12
Width: 240
Flags: W
LayerCount: 2
Fore
SplineSet
119 147 m 0
 166 147 201 112 201 66 c 0
 201 40 193 16 175 -24 c 2
 110 -172 l 1
 32 -172 l 1
 73 0 l 1
 51 15 39 39 39 67 c 0
 39 112 74 147 119 147 c 0
EndSplineSet
EndChar

StartChar: uni002D
Encoding: 45 45 13
Width: 405
Flags: W
LayerCount: 2
Fore
SplineSet
52 262 m 1
 52 364 l 1
 354 364 l 1
 354 262 l 1
 52 262 l 1
EndSplineSet
EndChar

StartChar: uni002E
Encoding: 46 46 14
Width: 240
Flags: W
LayerCount: 2
Fore
SplineSet
119 147 m 0
 165 147 201 111 201 66 c 0
 201 22 165 -15 119 -15 c 0
 74 -15 39 22 39 66 c 0
 39 111 74 147 119 147 c 0
EndSplineSet
EndChar

StartChar: uni002F
Encoding: 47 47 15
Width: 520
Flags: W
LayerCount: 2
Fore
SplineSet
322 812 m 1
 432 787 l 1
 199 -108 l 1
 88 -82 l 1
 322 812 l 1
EndSplineSet
EndChar

StartChar: uni0030
Encoding: 48 48 16
Width: 573
Flags: W
LayerCount: 2
Fore
SplineSet
286 685 m 0
 445 685 527 560 527 336 c 0
 527 111 445 -15 286 -15 c 0
 128 -15 45 111 45 336 c 0
 45 560 128 685 286 685 c 0
286 588 m 0
 212 588 177 522 177 336 c 0
 177 148 212 82 286 82 c 0
 360 82 395 146 395 336 c 0
 395 525 360 588 286 588 c 0
EndSplineSet
EndChar

StartChar: uni0031
Encoding: 49 49 17
Width: 450
Flags: W
LayerCount: 2
Fore
SplineSet
355 673 m 1
 355 0 l 1
 229 0 l 1
 229 544 l 1
 79 453 l 1
 23 539 l 1
 242 673 l 1
 355 673 l 1
EndSplineSet
EndChar

StartChar: uni0032
Encoding: 50 50 18
Width: 507
Flags: W
LayerCount: 2
Fore
SplineSet
233 685 m 0
 372 685 452 601 452 496 c 0
 452 382 387 299 179 101 c 1
 467 101 l 1
 453 0 l 1
 34 0 l 1
 34 94 l 1
 264 328 320 391 320 486 c 0
 320 548 281 584 223 584 c 0
 170 584 135 562 93 513 c 1
 15 575 l 1
 69 645 140 685 233 685 c 0
EndSplineSet
EndChar

StartChar: uni0033
Encoding: 51 51 19
Width: 510
Flags: W
LayerCount: 2
Fore
SplineSet
232 685 m 0
 371 685 445 607 445 514 c 0
 445 430 393 377 314 356 c 1
 398 348 467 296 467 192 c 0
 467 77 377 -15 223 -15 c 0
 131 -15 57 19 5 82 c 1
 76 150 l 1
 121 105 163 85 216 85 c 0
 288 85 335 128 335 198 c 0
 335 278 290 306 214 306 c 2
 161 306 l 1
 176 397 l 1
 212 397 l 2
 275 397 320 433 320 499 c 0
 320 554 281 587 221 587 c 0
 169 587 128 568 86 528 c 1
 21 599 l 1
 81 656 151 685 232 685 c 0
EndSplineSet
EndChar

StartChar: uni0034
Encoding: 52 52 20
Width: 550
Flags: W
LayerCount: 2
Fore
SplineSet
525 252 m 1
 525 154 l 1
 444 154 l 1
 444 0 l 1
 319 0 l 1
 319 154 l 1
 33 154 l 1
 33 242 l 1
 229 686 l 1
 338 645 l 1
 166 252 l 1
 320 252 l 1
 333 421 l 1
 444 421 l 1
 444 252 l 1
 525 252 l 1
EndSplineSet
EndChar

StartChar: uni0035
Encoding: 53 53 21
Width: 520
Flags: W
LayerCount: 2
Fore
SplineSet
454 673 m 1
 439 578 l 1
 187 578 l 1
 187 411 l 1
 221 428 256 436 289 436 c 0
 401 436 482 356 482 219 c 0
 482 81 383 -15 231 -15 c 0
 137 -15 71 23 19 80 c 1
 92 148 l 1
 129 107 172 84 228 84 c 0
 303 84 350 132 350 219 c 0
 350 312 304 344 242 344 c 0
 211 344 186 337 155 321 c 1
 64 321 l 1
 64 673 l 1
 454 673 l 1
EndSplineSet
EndChar

StartChar: uni0036
Encoding: 54 54 22
Width: 550
Flags: W
LayerCount: 2
Fore
SplineSet
328 448 m 0
 433 448 518 372 518 229 c 0
 518 88 424 -15 288 -15 c 0
 116 -15 45 118 45 311 c 0
 45 536 150 685 321 685 c 0
 380 685 429 668 468 642 c 1
 420 563 l 1
 391 580 359 590 323 590 c 0
 238 590 184 509 177 374 c 1
 220 426 271 448 328 448 c 0
288 80 m 0
 356 80 389 139 389 227 c 0
 389 323 354 355 297 355 c 0
 251 355 209 328 178 286 c 1
 180 142 211 80 288 80 c 0
EndSplineSet
EndChar

StartChar: uni0037
Encoding: 55 55 23
Width: 457
Flags: W
LayerCount: 2
Fore
SplineSet
434 673 m 1
 434 583 l 1
 185 -13 l 1
 68 25 l 1
 302 574 l 1
 18 574 l 1
 18 673 l 1
 434 673 l 1
EndSplineSet
EndChar

StartChar: uni0038
Encoding: 56 56 24
Width: 567
Flags: W
LayerCount: 2
Fore
SplineSet
393 361 m 1
 485 320 531 261 531 181 c 0
 531 71 434 -15 281 -15 c 0
 130 -15 37 70 37 179 c 0
 37 261 85 315 165 349 c 1
 93 388 64 442 64 508 c 0
 64 618 164 685 284 685 c 0
 403 685 504 625 504 513 c 0
 504 451 469 400 393 361 c 1
284 595 m 0
 226 595 188 565 188 506 c 0
 188 449 224 424 289 400 c 2
 308 393 l 1
 361 426 380 459 380 507 c 0
 380 560 347 595 284 595 c 0
284 80 m 0
 359 80 401 123 401 181 c 0
 401 244 368 272 278 305 c 2
 247 316 l 1
 193 287 166 244 166 183 c 0
 166 119 212 80 284 80 c 0
EndSplineSet
EndChar

StartChar: uni0039
Encoding: 57 57 25
Width: 544
Flags: W
LayerCount: 2
Fore
SplineSet
269 685 m 0
 425 685 505 579 505 424 c 0
 505 147 383 39 113 -25 c 1
 86 66 l 1
 254 110 350 175 368 308 c 1
 336 267 289 238 224 238 c 0
 120 238 35 321 35 457 c 0
 35 598 139 685 269 685 c 0
259 331 m 0
 305 331 344 356 374 400 c 1
 376 539 344 590 269 590 c 0
 204 590 163 545 163 459 c 0
 163 367 205 331 259 331 c 0
EndSplineSet
EndChar

StartChar: uni003A
Encoding: 58 58 26
Width: 240
Flags: W
LayerCount: 2
Fore
SplineSet
119 503 m 0
 165 503 201 466 201 422 c 0
 201 377 165 341 119 341 c 0
 74 341 39 377 39 422 c 0
 39 466 74 503 119 503 c 0
119 147 m 0
 165 147 201 111 201 66 c 0
 201 22 165 -15 119 -15 c 0
 74 -15 39 22 39 66 c 0
 39 111 74 147 119 147 c 0
EndSplineSet
EndChar

StartChar: uni003B
Encoding: 59 59 27
Width: 240
Flags: W
LayerCount: 2
Fore
SplineSet
119 503 m 0
 165 503 201 466 201 422 c 0
 201 377 165 341 119 341 c 0
 74 341 39 377 39 422 c 0
 39 466 74 503 119 503 c 0
119 147 m 0
 166 147 201 112 201 66 c 0
 201 40 193 16 175 -24 c 2
 110 -172 l 1
 32 -172 l 1
 73 0 l 1
 51 15 39 39 39 67 c 0
 39 112 74 147 119 147 c 0
EndSplineSet
EndChar

StartChar: uni003C
Encoding: 60 60 28
Width: 510
Flags: W
LayerCount: 2
Fore
SplineSet
427 565 m 1
 469 470 l 1
 148 333 l 1
 469 198 l 1
 427 101 l 1
 42 273 l 1
 42 392 l 1
 427 565 l 1
EndSplineSet
EndChar

StartChar: uni003D
Encoding: 61 61 29
Width: 510
Flags: W
LayerCount: 2
Fore
SplineSet
55 382 m 1
 55 483 l 1
 456 483 l 1
 456 382 l 1
 55 382 l 1
55 179 m 1
 55 281 l 1
 456 281 l 1
 456 179 l 1
 55 179 l 1
EndSplineSet
EndChar

StartChar: uni003E
Encoding: 62 62 30
Width: 510
Flags: W
LayerCount: 2
Fore
SplineSet
84 565 m 1
 469 392 l 1
 469 273 l 1
 84 101 l 1
 42 198 l 1
 362 333 l 1
 42 470 l 1
 84 565 l 1
EndSplineSet
EndChar

StartChar: uni003F
Encoding: 63 63 31
Width: 471
Flags: W
LayerCount: 2
Fore
SplineSet
243 706 m 0
 380 706 450 629 450 544 c 0
 450 383 269 399 269 278 c 2
 269 244 l 1
 150 244 l 1
 150 283 l 2
 150 454 316 440 316 534 c 0
 316 578 284 604 232 604 c 0
 187 604 143 583 105 538 c 1
 22 603 l 1
 78 669 150 706 243 706 c 0
211 147 m 0
 257 147 293 111 293 66 c 0
 293 22 257 -15 211 -15 c 0
 166 -15 131 22 131 66 c 0
 131 111 166 147 211 147 c 0
EndSplineSet
EndChar

StartChar: uni0040
Encoding: 64 64 32
Width: 1020
Flags: W
LayerCount: 2
Fore
SplineSet
526 706 m 0
 808 706 962 519 962 312 c 0
 962 139 887 6 753 6 c 0
 672 6 633 61 622 109 c 1
 599 56 554 9 479 9 c 0
 361 9 301 102 301 232 c 0
 301 400 388 498 527 498 c 0
 581 498 637 485 693 455 c 1
 693 203 l 2
 693 118 711 92 749 92 c 0
 806 92 842 151 842 310 c 0
 842 493 738 609 526 609 c 0
 306 609 178 455 178 241 c 0
 178 24 301 -120 527 -120 c 0
 598 -120 668 -104 721 -85 c 1
 753 -177 l 1
 689 -201 613 -218 526 -218 c 0
 245 -218 58 -39 58 241 c 0
 58 508 251 706 526 706 c 0
495 94 m 0
 546 94 571 133 582 161 c 1
 582 401 l 1
 564 409 548 413 525 413 c 0
 457 413 419 360 419 232 c 0
 419 136 444 94 495 94 c 0
EndSplineSet
EndChar

StartChar: uni0041
Encoding: 65 65 33
Width: 583
Flags: W
LayerCount: 2
Fore
SplineSet
447 0 m 1
 404 160 l 1
 175 160 l 1
 132 0 l 1
 -5 0 l 1
 210 691 l 1
 373 691 l 1
 587 0 l 1
 447 0 l 1
201 260 m 1
 378 260 l 1
 289 590 l 1
 201 260 l 1
EndSplineSet
EndChar

StartChar: uni0042
Encoding: 66 66 34
Width: 613
Flags: W
LayerCount: 2
Fore
SplineSet
420 366 m 1
 499 351 578 314 578 199 c 0
 578 47 457 0 289 0 c 2
 81 0 l 1
 81 691 l 1
 262 691 l 2
 440 691 548 641 548 515 c 0
 548 429 486 380 420 366 c 1
275 594 m 2
 213 594 l 1
 213 407 l 1
 294 407 l 2
 366 407 413 439 413 504 c 0
 413 574 365 594 275 594 c 2
290 99 m 2
 377 99 440 117 440 204 c 0
 440 287 381 315 304 315 c 2
 213 315 l 1
 213 99 l 1
 290 99 l 2
EndSplineSet
EndChar

StartChar: uni0043
Encoding: 67 67 35
Width: 568
Flags: W
LayerCount: 2
Fore
SplineSet
345 706 m 0
 433 706 490 680 547 633 c 1
 480 555 l 1
 440 587 399 604 352 604 c 0
 256 604 182 534 182 347 c 0
 182 165 254 91 352 91 c 0
 412 91 453 117 493 147 c 1
 555 69 l 1
 513 26 441 -15 347 -15 c 0
 168 -15 43 112 43 347 c 0
 43 579 175 706 345 706 c 0
EndSplineSet
EndChar

StartChar: uni0044
Encoding: 68 68 36
Width: 648
Flags: W
LayerCount: 2
Fore
SplineSet
251 691 m 2
 433 691 605 635 605 349 c 0
 605 69 434 0 269 0 c 2
 81 0 l 1
 81 691 l 1
 251 691 l 2
274 592 m 2
 213 592 l 1
 213 99 l 1
 278 99 l 2
 381 99 466 145 466 349 c 0
 466 557 376 592 274 592 c 2
EndSplineSet
EndChar

StartChar: uni0045
Encoding: 69 69 37
Width: 530
Flags: W
LayerCount: 2
Fore
SplineSet
482 691 m 1
 468 593 l 1
 213 593 l 1
 213 400 l 1
 435 400 l 1
 435 302 l 1
 213 302 l 1
 213 99 l 1
 486 99 l 1
 486 0 l 1
 81 0 l 1
 81 691 l 1
 482 691 l 1
EndSplineSet
EndChar

StartChar: uni0046
Encoding: 70 70 38
Width: 489
Flags: W
LayerCount: 2
Fore
SplineSet
81 0 m 1
 81 691 l 1
 472 691 l 1
 458 593 l 1
 213 593 l 1
 213 386 l 1
 426 386 l 1
 426 288 l 1
 213 288 l 1
 213 0 l 1
 81 0 l 1
EndSplineSet
EndChar

StartChar: uni0047
Encoding: 71 71 39
Width: 638
Flags: W
LayerCount: 2
Fore
SplineSet
360 706 m 0
 456 706 522 674 580 625 c 1
 509 551 l 1
 462 588 423 606 364 606 c 0
 266 606 182 532 182 346 c 0
 182 157 238 86 346 86 c 0
 385 86 423 94 456 113 c 1
 456 293 l 1
 352 293 l 1
 338 391 l 1
 586 391 l 1
 586 53 l 1
 517 11 435 -15 348 -15 c 0
 151 -15 43 109 43 346 c 0
 43 580 187 706 360 706 c 0
EndSplineSet
EndChar

StartChar: uni0048
Encoding: 72 72 40
Width: 672
Flags: W
LayerCount: 2
Fore
SplineSet
459 0 m 1
 459 309 l 1
 213 309 l 1
 213 0 l 1
 81 0 l 1
 81 691 l 1
 213 691 l 1
 213 414 l 1
 459 414 l 1
 459 691 l 1
 592 691 l 1
 592 0 l 1
 459 0 l 1
EndSplineSet
EndChar

StartChar: uni0049
Encoding: 73 73 41
Width: 294
Flags: W
LayerCount: 2
Fore
SplineSet
213 691 m 1
 213 0 l 1
 81 0 l 1
 81 691 l 1
 213 691 l 1
EndSplineSet
EndChar

StartChar: uni004A
Encoding: 74 74 42
Width: 312
Flags: W
LayerCount: 2
Fore
SplineSet
235 691 m 1
 235 101 l 2
 235 -60 146 -118 32 -155 c 1
 -3 -60 l 1
 87 -25 102 19 102 106 c 2
 102 691 l 1
 235 691 l 1
EndSplineSet
EndChar

StartChar: uni004B
Encoding: 75 75 43
Width: 613
Flags: W
LayerCount: 2
Fore
SplineSet
213 691 m 1
 213 0 l 1
 81 0 l 1
 81 691 l 1
 213 691 l 1
601 691 m 1
 362 378 l 1
 620 0 l 1
 463 0 l 1
 219 369 l 1
 458 691 l 1
 601 691 l 1
EndSplineSet
EndChar

StartChar: uni004C
Encoding: 76 76 44
Width: 506
Flags: W
LayerCount: 2
Fore
SplineSet
213 691 m 1
 213 108 l 1
 490 108 l 1
 475 0 l 1
 81 0 l 1
 81 691 l 1
 213 691 l 1
EndSplineSet
EndChar

StartChar: uni004D
Encoding: 77 77 45
Width: 782
Flags: W
LayerCount: 2
Fore
SplineSet
682 691 m 1
 736 0 l 1
 607 0 l 1
 589 289 l 2
 583 391 578 498 580 571 c 1
 454 75 l 1
 329 75 l 1
 195 572 l 1
 199 479 197 384 191 285 c 2
 174 0 l 1
 46 0 l 1
 101 691 l 1
 271 691 l 1
 394 207 l 1
 510 691 l 1
 682 691 l 1
EndSplineSet
EndChar

StartChar: uni004E
Encoding: 78 78 46
Width: 672
Flags: W
LayerCount: 2
Fore
SplineSet
591 691 m 1
 591 0 l 1
 420 0 l 1
 183 559 l 1
 190 498 201 410 201 282 c 2
 201 0 l 1
 81 0 l 1
 81 691 l 1
 248 691 l 1
 489 131 l 1
 483 169 471 269 471 367 c 2
 471 691 l 1
 591 691 l 1
EndSplineSet
EndChar

StartChar: uni004F
Encoding: 79 79 47
Width: 691
Flags: W
LayerCount: 2
Fore
SplineSet
346 706 m 0
 531 706 648 577 648 346 c 0
 648 118 531 -15 346 -15 c 0
 161 -15 43 114 43 345 c 0
 43 572 161 706 346 706 c 0
346 605 m 0
 243 605 182 531 182 345 c 0
 182 159 245 86 346 86 c 0
 449 86 509 159 509 346 c 0
 509 531 450 605 346 605 c 0
EndSplineSet
EndChar

StartChar: uni0050
Encoding: 80 80 48
Width: 591
Flags: W
LayerCount: 2
Fore
SplineSet
285 691 m 2
 459 691 565 620 565 471 c 0
 565 312 450 241 294 241 c 2
 213 241 l 1
 213 0 l 1
 81 0 l 1
 81 691 l 1
 285 691 l 2
284 340 m 2
 372 340 427 370 427 471 c 0
 427 558 374 594 284 594 c 2
 213 594 l 1
 213 340 l 1
 284 340 l 2
EndSplineSet
EndChar

StartChar: uni0051
Encoding: 81 81 49
Width: 691
Flags: W
LayerCount: 2
Fore
SplineSet
487 42 m 1
 573 42 632 17 684 -20 c 1
 602 -127 l 1
 532 -56 467 -12 339 -12 c 0
 161 -12 43 114 43 345 c 0
 43 572 161 706 346 706 c 0
 531 706 648 577 648 346 c 0
 648 177 579 91 487 42 c 1
182 345 m 0
 182 159 245 86 346 86 c 0
 449 86 509 159 509 346 c 0
 509 531 450 605 346 605 c 0
 243 605 182 531 182 345 c 0
EndSplineSet
EndChar

StartChar: uni0052
Encoding: 82 82 50
Width: 611
Flags: W
LayerCount: 2
Fore
SplineSet
450 0 m 1
 297 277 l 1
 213 277 l 1
 213 0 l 1
 81 0 l 1
 81 691 l 1
 287 691 l 2
 468 691 561 625 561 488 c 0
 561 394 515 338 421 301 c 1
 602 0 l 1
 450 0 l 1
213 595 m 1
 213 372 l 1
 295 372 l 2
 377 372 423 405 423 488 c 0
 423 563 380 595 284 595 c 2
 213 595 l 1
EndSplineSet
EndChar

StartChar: uni0053
Encoding: 83 83 51
Width: 560
Flags: W
LayerCount: 2
Fore
SplineSet
280 706 m 0
 381 706 448 676 508 621 c 1
 443 546 l 1
 393 587 345 605 288 605 c 0
 226 605 181 577 181 523 c 0
 181 473 208 451 323 415 c 0
 444 377 528 327 528 197 c 0
 528 73 431 -15 266 -15 c 0
 156 -15 74 24 17 80 c 1
 85 156 l 1
 136 113 191 87 263 87 c 0
 337 87 390 123 390 190 c 0
 390 248 361 274 253 307 c 0
 108 352 45 410 45 515 c 0
 45 630 144 706 280 706 c 0
EndSplineSet
EndChar

StartChar: uni0054
Encoding: 84 84 52
Width: 530
Flags: W
LayerCount: 2
Fore
SplineSet
525 691 m 1
 511 586 l 1
 331 586 l 1
 331 0 l 1
 198 0 l 1
 198 586 l 1
 12 586 l 1
 12 691 l 1
 525 691 l 1
EndSplineSet
EndChar

StartChar: uni0055
Encoding: 85 85 53
Width: 656
Flags: W
LayerCount: 2
Fore
SplineSet
585 691 m 1
 585 226 l 2
 585 87 496 -15 327 -15 c 0
 157 -15 71 84 71 226 c 2
 71 691 l 1
 203 691 l 1
 203 233 l 2
 203 136 242 88 327 88 c 0
 413 88 452 136 452 233 c 2
 452 691 l 1
 585 691 l 1
EndSplineSet
EndChar

StartChar: uni0056
Encoding: 86 86 54
Width: 564
Flags: W
LayerCount: 2
Fore
SplineSet
568 691 m 1
 363 0 l 1
 206 0 l 1
 -5 691 l 1
 137 691 l 1
 287 117 l 1
 433 691 l 1
 568 691 l 1
EndSplineSet
EndChar

StartChar: uni0057
Encoding: 87 87 55
Width: 837
Flags: W
LayerCount: 2
Fore
SplineSet
821 691 m 1
 694 0 l 1
 522 0 l 1
 417 551 l 1
 309 0 l 1
 142 0 l 1
 17 691 l 1
 148 691 l 1
 236 105 l 1
 349 691 l 1
 489 691 l 1
 600 105 l 1
 696 691 l 1
 821 691 l 1
EndSplineSet
EndChar

StartChar: uni0058
Encoding: 88 88 56
Width: 562
Flags: W
LayerCount: 2
Fore
SplineSet
358 373 m 1
 563 0 l 1
 416 0 l 1
 278 283 l 1
 141 0 l 1
 0 0 l 1
 200 368 l 1
 16 691 l 1
 163 691 l 1
 280 452 l 1
 402 691 l 1
 543 691 l 1
 358 373 l 1
EndSplineSet
EndChar

StartChar: uni0059
Encoding: 89 89 57
Width: 574
Flags: W
LayerCount: 2
Fore
SplineSet
576 691 m 1
 354 262 l 1
 354 0 l 1
 220 0 l 1
 220 261 l 1
 -2 691 l 1
 144 691 l 1
 290 370 l 1
 436 691 l 1
 576 691 l 1
EndSplineSet
EndChar

StartChar: uni005A
Encoding: 90 90 58
Width: 534
Flags: W
LayerCount: 2
Fore
SplineSet
496 691 m 1
 496 589 l 1
 177 108 l 1
 499 108 l 1
 485 0 l 1
 23 0 l 1
 23 101 l 1
 348 586 l 1
 56 586 l 1
 56 691 l 1
 496 691 l 1
EndSplineSet
EndChar

StartChar: uni005B
Encoding: 91 91 59
Width: 323
Flags: W
LayerCount: 2
Fore
SplineSet
287 820 m 1
 287 720 l 1
 169 720 l 1
 169 -21 l 1
 287 -21 l 1
 287 -120 l 1
 48 -120 l 1
 48 820 l 1
 287 820 l 1
EndSplineSet
EndChar

StartChar: uni005C
Encoding: 92 92 60
Width: 520
Flags: W
LayerCount: 2
Fore
SplineSet
198 812 m 1
 432 -82 l 1
 321 -108 l 1
 88 787 l 1
 198 812 l 1
EndSplineSet
EndChar

StartChar: uni005D
Encoding: 93 93 61
Width: 323
Flags: W
LayerCount: 2
Fore
SplineSet
275 820 m 1
 275 -120 l 1
 36 -120 l 1
 36 -21 l 1
 154 -21 l 1
 154 721 l 1
 36 721 l 1
 36 820 l 1
 275 820 l 1
EndSplineSet
EndChar

StartChar: uni005E
Encoding: 94 94 62
Width: 550
Flags: W
LayerCount: 2
Fore
SplineSet
333 842 m 1
 522 527 l 1
 393 527 l 1
 274 741 l 1
 158 527 l 1
 28 527 l 1
 217 842 l 1
 333 842 l 1
EndSplineSet
EndChar

StartChar: uni005F
Encoding: 95 95 63
Width: 520
Flags: W
LayerCount: 2
Fore
SplineSet
13 -158 m 1
 13 -55 l 1
 507 -55 l 1
 507 -158 l 1
 13 -158 l 1
EndSplineSet
EndChar

StartChar: uni0060
Encoding: 96 96 64
Width: 322
Flags: W
LayerCount: 2
Fore
SplineSet
82 820 m 1
 292 695 l 1
 255 630 l 1
 30 720 l 1
 82 820 l 1
EndSplineSet
EndChar

StartChar: uni0061
Encoding: 97 97 65
Width: 543
Flags: W
LayerCount: 2
Fore
SplineSet
465 140 m 2
 465 97 479 82 505 72 c 1
 478 -13 l 1
 419 -8 381 12 361 64 c 1
 323 8 266 -15 202 -15 c 0
 97 -15 32 52 32 148 c 0
 32 263 118 325 272 325 c 2
 339 325 l 1
 339 355 l 2
 339 424 308 447 240 447 c 0
 204 447 153 437 99 419 c 1
 70 506 l 1
 135 531 202 544 261 544 c 0
 403 544 465 479 465 362 c 2
 465 140 l 2
237 78 m 0
 281 78 315 101 339 143 c 1
 339 250 l 1
 286 250 l 2
 203 250 162 220 162 158 c 0
 162 107 188 78 237 78 c 0
EndSplineSet
EndChar

StartChar: uni0062
Encoding: 98 98 66
Width: 589
Flags: W
LayerCount: 2
Fore
SplineSet
349 544 m 0
 472 544 545 442 545 265 c 0
 545 100 466 -15 336 -15 c 0
 278 -15 230 11 196 54 c 1
 188 0 l 1
 75 0 l 1
 75 741 l 1
 203 755 l 1
 203 469 l 1
 237 516 288 544 349 544 c 0
301 81 m 0
 366 81 411 132 411 265 c 0
 411 406 369 448 308 448 c 0
 262 448 228 417 203 376 c 1
 203 142 l 1
 226 104 261 81 301 81 c 0
EndSplineSet
EndChar

StartChar: uni0063
Encoding: 99 99 67
Width: 478
Flags: W
LayerCount: 2
Fore
SplineSet
290 544 m 0
 359 544 412 525 462 482 c 1
 405 405 l 1
 370 431 338 443 298 443 c 0
 224 443 179 389 179 262 c 0
 179 134 226 89 298 89 c 0
 338 89 366 102 405 127 c 1
 462 46 l 1
 414 7 359 -15 291 -15 c 0
 138 -15 43 91 43 260 c 0
 43 429 138 544 290 544 c 0
EndSplineSet
EndChar

StartChar: uni0064
Encoding: 100 100 68
Width: 592
Flags: W
LayerCount: 2
Fore
SplineSet
389 755 m 1
 517 741 l 1
 517 0 l 1
 404 0 l 1
 395 67 l 1
 363 19 312 -15 244 -15 c 0
 112 -15 43 96 43 264 c 0
 43 427 125 544 256 544 c 0
 312 544 356 520 389 487 c 1
 389 755 l 1
280 82 m 0
 327 82 359 105 389 150 c 1
 389 392 l 1
 361 426 331 448 288 448 c 0
 222 448 178 392 178 265 c 0
 178 129 217 82 280 82 c 0
EndSplineSet
EndChar

StartChar: uni0065
Encoding: 101 101 69
Width: 549
Flags: W
LayerCount: 2
Fore
SplineSet
511 277 m 0
 511 260 509 239 508 225 c 1
 176 225 l 1
 186 117 236 82 306 82 c 0
 353 82 392 97 438 129 c 1
 491 56 l 1
 439 14 375 -15 295 -15 c 0
 131 -15 43 94 43 261 c 0
 43 422 128 544 278 544 c 0
 426 544 511 444 511 277 c 0
384 308 m 1
 384 314 l 2
 384 401 353 453 281 453 c 0
 221 453 183 413 176 308 c 1
 384 308 l 1
EndSplineSet
EndChar

StartChar: uni0066
Encoding: 102 102 70
Width: 347
Flags: W
LayerCount: 2
Fore
SplineSet
291 658 m 0
 239 658 220 635 220 585 c 2
 220 529 l 1
 347 529 l 1
 333 437 l 1
 220 437 l 1
 220 0 l 1
 92 0 l 1
 92 437 l 1
 6 437 l 1
 6 529 l 1
 92 529 l 1
 92 587 l 2
 92 683 156 755 278 755 c 0
 331 755 374 743 415 724 c 1
 378 638 l 1
 346 653 316 658 291 658 c 0
EndSplineSet
EndChar

StartChar: uni0067
Encoding: 103 103 71
Width: 537
Flags: W
LayerCount: 2
Fore
SplineSet
505 603 m 1
 537 501 l 1
 497 487 447 483 384 483 c 1
 448 454 480 413 480 347 c 0
 480 244 400 169 267 169 c 0
 244 169 224 171 204 177 c 1
 191 168 182 154 182 138 c 0
 182 119 193 101 246 101 c 2
 327 101 l 2
 444 101 520 38 520 -49 c 0
 520 -155 429 -218 256 -218 c 0
 68 -218 15 -158 15 -52 c 1
 130 -52 l 1
 130 -105 153 -128 258 -128 c 0
 361 -128 391 -100 391 -58 c 0
 391 -19 360 5 301 5 c 2
 221 5 l 2
 115 5 70 52 70 107 c 0
 70 144 93 181 132 205 c 1
 67 239 39 286 39 354 c 0
 39 469 130 544 258 544 c 0
 383 541 441 569 505 603 c 1
260 457 m 0
 202 457 168 417 168 356 c 0
 168 292 203 252 262 252 c 0
 323 252 356 290 356 357 c 0
 356 424 324 457 260 457 c 0
EndSplineSet
EndChar

StartChar: uni0068
Encoding: 104 104 72
Width: 576
Flags: W
LayerCount: 2
Fore
SplineSet
357 544 m 0
 451 544 507 483 507 383 c 2
 507 0 l 1
 379 0 l 1
 379 363 l 2
 379 429 353 448 314 448 c 0
 269 448 234 417 203 369 c 1
 203 0 l 1
 75 0 l 1
 75 740 l 1
 203 753 l 1
 203 466 l 1
 244 516 293 544 357 544 c 0
EndSplineSet
EndChar

StartChar: uni0069
Encoding: 105 105 73
Width: 278
Flags: W
LayerCount: 2
Fore
SplineSet
138 797 m 0
 186 797 219 763 219 719 c 0
 219 676 186 642 138 642 c 0
 91 642 58 676 58 719 c 0
 58 763 91 797 138 797 c 0
203 529 m 1
 203 0 l 1
 75 0 l 1
 75 529 l 1
 203 529 l 1
EndSplineSet
EndChar

StartChar: uni006A
Encoding: 106 106 74
Width: 279
Flags: W
LayerCount: 2
Fore
SplineSet
140 797 m 0
 188 797 221 763 221 719 c 0
 221 676 188 642 140 642 c 0
 93 642 60 676 60 719 c 0
 60 763 93 797 140 797 c 0
204 529 m 1
 204 47 l 2
 204 -115 130 -169 11 -217 c 1
 -30 -124 l 1
 39 -92 76 -65 76 39 c 2
 76 529 l 1
 204 529 l 1
EndSplineSet
EndChar

StartChar: uni006B
Encoding: 107 107 75
Width: 532
Flags: W
LayerCount: 2
Fore
SplineSet
203 755 m 1
 203 0 l 1
 75 0 l 1
 75 741 l 1
 203 755 l 1
520 529 m 1
 344 296 l 1
 537 0 l 1
 390 0 l 1
 208 289 l 1
 385 529 l 1
 520 529 l 1
EndSplineSet
EndChar

StartChar: uni006C
Encoding: 108 108 76
Width: 297
Flags: W
LayerCount: 2
Fore
SplineSet
198 -15 m 0
 117 -15 69 34 69 121 c 2
 69 741 l 1
 197 755 l 1
 197 125 l 2
 197 100 205 88 227 88 c 0
 238 88 248 90 256 93 c 1
 284 3 l 1
 262 -7 231 -15 198 -15 c 0
EndSplineSet
EndChar

StartChar: uni006D
Encoding: 109 109 77
Width: 845
Flags: W
LayerCount: 2
Fore
SplineSet
636 544 m 0
 720 544 776 483 776 383 c 2
 776 0 l 1
 648 0 l 1
 648 363 l 2
 648 429 622 448 590 448 c 0
 546 448 519 417 490 368 c 1
 490 0 l 1
 362 0 l 1
 362 363 l 2
 362 429 335 448 304 448 c 0
 259 448 232 417 203 368 c 1
 203 0 l 1
 75 0 l 1
 75 529 l 1
 186 529 l 1
 196 460 l 1
 234 513 282 544 349 544 c 0
 411 544 457 511 477 455 c 1
 517 510 566 544 636 544 c 0
EndSplineSet
EndChar

StartChar: uni006E
Encoding: 110 110 78
Width: 576
Flags: W
LayerCount: 2
Fore
SplineSet
357 544 m 0
 452 544 507 484 507 383 c 2
 507 0 l 1
 379 0 l 1
 379 363 l 2
 379 429 354 448 314 448 c 0
 268 448 234 417 203 368 c 1
 203 0 l 1
 75 0 l 1
 75 529 l 1
 186 529 l 1
 196 460 l 1
 237 513 290 544 357 544 c 0
EndSplineSet
EndChar

StartChar: uni006F
Encoding: 111 111 79
Width: 584
Flags: W
LayerCount: 2
Fore
SplineSet
293 544 m 0
 449 544 541 438 541 265 c 0
 541 98 448 -15 292 -15 c 0
 136 -15 43 91 43 265 c 0
 43 431 136 544 293 544 c 0
293 447 m 0
 218 447 178 390 178 265 c 0
 178 138 217 82 292 82 c 0
 367 82 406 139 406 265 c 0
 406 391 367 447 293 447 c 0
EndSplineSet
EndChar

StartChar: uni0070
Encoding: 112 112 80
Width: 589
Flags: W
LayerCount: 2
Fore
SplineSet
349 544 m 0
 487 544 545 435 545 266 c 0
 545 104 470 -15 336 -15 c 0
 282 -15 236 4 203 43 c 1
 203 -204 l 1
 75 -218 l 1
 75 529 l 1
 187 529 l 1
 194 464 l 1
 236 519 292 544 349 544 c 0
300 83 m 0
 370 83 411 137 411 265 c 0
 411 399 375 448 311 448 c 0
 266 448 228 417 203 376 c 1
 203 138 l 1
 228 101 260 83 300 83 c 0
EndSplineSet
EndChar

StartChar: uni0071
Encoding: 113 113 81
Width: 592
Flags: W
LayerCount: 2
Fore
SplineSet
406 529 m 1
 517 529 l 1
 517 -218 l 1
 389 -204 l 1
 389 60 l 1
 356 15 308 -15 244 -15 c 0
 112 -15 43 96 43 264 c 0
 43 427 125 544 256 544 c 0
 316 544 362 519 399 477 c 1
 406 529 l 1
280 82 m 0
 327 82 359 105 389 150 c 1
 389 392 l 1
 361 426 332 448 289 448 c 0
 222 448 178 392 178 265 c 0
 178 129 217 82 280 82 c 0
EndSplineSet
EndChar

StartChar: uni0072
Encoding: 114 114 82
Width: 392
Flags: W
LayerCount: 2
Fore
SplineSet
336 543 m 0
 355 543 372 541 389 536 c 1
 367 412 l 1
 351 416 339 418 320 418 c 0
 256 418 223 371 203 282 c 1
 203 0 l 1
 75 0 l 1
 75 529 l 1
 186 529 l 1
 198 425 l 1
 223 501 274 543 336 543 c 0
EndSplineSet
EndChar

StartChar: uni0073
Encoding: 115 115 83
Width: 474
Flags: W
LayerCount: 2
Fore
SplineSet
244 544 m 0
 320 544 382 520 432 481 c 1
 382 406 l 1
 338 434 296 449 249 449 c 0
 198 449 169 428 169 396 c 0
 169 361 190 345 280 320 c 0
 388 291 449 247 449 153 c 0
 449 43 347 -15 226 -15 c 0
 135 -15 64 16 15 60 c 1
 79 132 l 1
 120 101 169 80 223 80 c 0
 280 80 317 104 317 144 c 0
 317 188 296 202 197 230 c 0
 88 260 40 312 40 390 c 0
 40 478 121 544 244 544 c 0
EndSplineSet
EndChar

StartChar: uni0074
Encoding: 116 116 84
Width: 375
Flags: W
LayerCount: 2
Fore
SplineSet
335 107 m 1
 380 25 l 1
 342 -2 294 -15 247 -15 c 0
 143 -14 88 45 88 158 c 2
 88 437 l 1
 5 437 l 1
 5 529 l 1
 88 529 l 1
 88 646 l 1
 216 661 l 1
 216 529 l 1
 339 529 l 1
 326 437 l 1
 216 437 l 1
 216 161 l 2
 216 109 233 88 272 88 c 0
 292 88 312 94 335 107 c 1
EndSplineSet
EndChar

StartChar: uni0075
Encoding: 117 117 85
Width: 571
Flags: W
LayerCount: 2
Fore
SplineSet
496 529 m 1
 496 0 l 1
 385 0 l 1
 378 74 l 1
 339 14 289 -15 216 -15 c 0
 120 -15 69 47 69 149 c 2
 69 529 l 1
 197 529 l 1
 197 165 l 2
 197 103 217 82 261 82 c 0
 305 82 341 111 368 157 c 1
 368 529 l 1
 496 529 l 1
EndSplineSet
EndChar

StartChar: uni0076
Encoding: 118 118 86
Width: 504
Flags: W
LayerCount: 2
Fore
SplineSet
502 529 m 1
 330 0 l 1
 177 0 l 1
 2 529 l 1
 141 529 l 1
 254 103 l 1
 370 529 l 1
 502 529 l 1
EndSplineSet
EndChar

StartChar: uni0077
Encoding: 119 119 87
Width: 734
Flags: W
LayerCount: 2
Fore
SplineSet
723 529 m 1
 608 0 l 1
 448 0 l 1
 368 415 l 1
 286 0 l 1
 129 0 l 1
 12 529 l 1
 140 529 l 1
 214 94 l 1
 306 529 l 1
 437 529 l 1
 521 94 l 1
 600 529 l 1
 723 529 l 1
EndSplineSet
EndChar

StartChar: uni0078
Encoding: 120 120 88
Width: 500
Flags: W
LayerCount: 2
Fore
SplineSet
326 283 m 1
 503 0 l 1
 355 0 l 1
 246 210 l 1
 138 0 l 1
 -3 0 l 1
 173 279 l 1
 15 529 l 1
 161 529 l 1
 251 349 l 1
 340 529 l 1
 479 529 l 1
 326 283 l 1
EndSplineSet
EndChar

StartChar: uni0079
Encoding: 121 121 89
Width: 506
Flags: W
LayerCount: 2
Fore
SplineSet
505 529 m 1
 333 -2 l 2
 293 -126 215 -206 58 -218 c 1
 45 -125 l 1
 150 -109 184 -75 214 0 c 1
 170 0 l 1
 2 529 l 1
 138 529 l 1
 253 85 l 1
 373 529 l 1
 505 529 l 1
EndSplineSet
EndChar

StartChar: uni007A
Encoding: 122 122 90
Width: 444
Flags: W
LayerCount: 2
Fore
SplineSet
421 529 m 1
 421 437 l 1
 165 100 l 1
 426 100 l 1
 413 0 l 1
 18 0 l 1
 18 92 l 1
 275 429 l 1
 40 429 l 1
 40 529 l 1
 421 529 l 1
EndSplineSet
EndChar

StartChar: uni007B
Encoding: 123 123 91
Width: 323
Flags: W
LayerCount: 2
Fore
SplineSet
288 838 m 1
 288 746 l 1
 225 746 204 729 204 682 c 2
 204 472 l 2
 204 390 170 365 113 349 c 1
 170 334 204 309 204 228 c 2
 204 18 l 2
 204 -29 226 -46 288 -46 c 1
 288 -138 l 1
 129 -138 84 -87 84 19 c 2
 84 218 l 2
 84 275 69 297 17 297 c 1
 17 402 l 1
 69 402 84 425 84 482 c 2
 84 681 l 2
 84 788 129 838 288 838 c 1
EndSplineSet
EndChar

StartChar: uni007C
Encoding: 124 124 92
Width: 388
Flags: W
LayerCount: 2
Fore
SplineSet
253 809 m 1
 253 -104 l 1
 135 -104 l 1
 135 809 l 1
 253 809 l 1
EndSplineSet
EndChar

StartChar: uni007D
Encoding: 125 125 93
Width: 323
Flags: W
LayerCount: 2
Fore
SplineSet
35 838 m 1
 194 838 239 788 239 681 c 2
 239 482 l 2
 239 425 254 402 307 402 c 1
 307 297 l 1
 254 297 239 275 239 218 c 2
 239 19 l 2
 239 -87 194 -138 35 -138 c 1
 35 -46 l 1
 97 -46 119 -29 119 18 c 2
 119 228 l 2
 119 309 153 334 210 349 c 1
 153 365 119 390 119 472 c 2
 119 682 l 2
 119 729 98 746 35 746 c 1
 35 838 l 1
EndSplineSet
EndChar

StartChar: uni007E
Encoding: 126 126 94
Width: 502
Flags: W
LayerCount: 2
Fore
SplineSet
330 240 m 0
 246 240 212 301 166 301 c 0
 132 301 113 275 96 249 c 1
 25 285 l 1
 51 337 95 398 175 398 c 0
 257 398 290 338 338 338 c 0
 370 338 390 360 408 386 c 1
 477 349 l 1
 451 297 408 240 330 240 c 0
EndSplineSet
EndChar

StartChar: uni00A1
Encoding: 161 161 96
Width: 241
Flags: W
LayerCount: 2
Fore
SplineSet
121 503 m 0
 166 503 201 466 201 422 c 0
 201 377 166 341 121 341 c 0
 75 341 39 377 39 422 c 0
 39 466 75 503 121 503 c 0
174 241 m 1
 190 -206 l 1
 52 -206 l 1
 68 241 l 1
 174 241 l 1
EndSplineSet
EndChar

StartChar: uni00A2
Encoding: 162 162 97
Width: 478
Flags: W
LayerCount: 2
Fore
SplineSet
405 127 m 1
 462 46 l 1
 426 16 385 -3 338 -11 c 1
 338 -158 l 1
 239 -158 l 1
 239 -11 l 1
 117 11 43 111 43 260 c 0
 43 410 117 517 240 540 c 1
 240 688 l 1
 338 688 l 1
 338 541 l 1
 385 533 424 514 462 482 c 1
 405 405 l 1
 370 431 338 443 298 443 c 0
 224 443 179 389 179 262 c 0
 179 134 226 89 298 89 c 0
 338 89 366 102 405 127 c 1
EndSplineSet
EndChar

StartChar: uni00A3
Encoding: 163 163 98
Width: 531
Flags: W
LayerCount: 2
Fore
SplineSet
242 224 m 2
 242 164 230 128 179 100 c 1
 492 100 l 1
 477 0 l 1
 33 0 l 1
 33 95 l 1
 106 119 116 148 116 220 c 2
 116 316 l 1
 49 316 l 1
 49 388 l 1
 116 388 l 1
 116 487 l 2
 116 601 186 685 318 685 c 0
 401 685 462 655 511 593 c 1
 431 533 l 1
 401 571 371 586 329 586 c 0
 272 586 242 551 242 487 c 2
 242 388 l 1
 437 388 l 1
 437 316 l 1
 242 316 l 1
 242 224 l 2
EndSplineSet
EndChar

StartChar: uni00A4
Encoding: 164 164 99
Width: 560
Flags: W
LayerCount: 2
Fore
SplineSet
497 341 m 0
 497 296 485 255 462 221 c 1
 538 146 l 1
 475 83 l 1
 397 159 l 1
 364 139 324 128 279 128 c 0
 235 128 196 140 163 160 c 1
 84 83 l 1
 23 146 l 1
 100 223 l 1
 78 256 66 297 66 341 c 0
 66 385 78 425 99 459 c 1
 23 538 l 1
 86 601 l 1
 164 522 l 1
 196 542 236 554 279 554 c 0
 325 554 365 543 398 523 c 1
 476 601 l 1
 538 538 l 1
 462 461 l 1
 485 427 497 386 497 341 c 0
281 219 m 0
 353 219 390 265 390 342 c 0
 390 418 353 464 281 464 c 0
 210 464 173 418 173 342 c 0
 173 265 210 219 281 219 c 0
EndSplineSet
EndChar

StartChar: uni00A5
Encoding: 165 165 100
Width: 554
Flags: W
LayerCount: 2
Fore
SplineSet
555 673 m 1
 372 349 l 1
 477 349 l 1
 477 276 l 1
 341 276 l 1
 341 196 l 1
 477 196 l 1
 477 124 l 1
 341 124 l 1
 341 0 l 1
 213 0 l 1
 213 124 l 1
 78 124 l 1
 78 196 l 1
 213 196 l 1
 213 276 l 1
 78 276 l 1
 78 349 l 1
 182 349 l 1
 -2 673 l 1
 136 673 l 1
 280 385 l 1
 422 673 l 1
 555 673 l 1
EndSplineSet
EndChar

StartChar: uni00A6
Encoding: 166 166 101
Width: 388
Flags: W
LayerCount: 2
Fore
SplineSet
253 809 m 1
 253 443 l 1
 135 443 l 1
 135 809 l 1
 253 809 l 1
253 262 m 1
 253 -104 l 1
 135 -104 l 1
 135 262 l 1
 253 262 l 1
EndSplineSet
EndChar

StartChar: uni00A7
Encoding: 167 167 102
Width: 542
Flags: W
LayerCount: 2
Fore
SplineSet
405 178 m 1
 442 151 459 121 459 75 c 0
 459 -17 375 -78 249 -78 c 0
 174 -78 114 -56 68 -25 c 1
 112 53 l 1
 154 27 196 15 246 15 c 0
 299 15 335 34 335 68 c 0
 335 107 318 122 214 155 c 0
 115 186 60 221 60 304 c 0
 60 356 93 399 139 426 c 1
 102 452 85 484 85 531 c 0
 85 623 166 683 287 683 c 0
 361 683 422 662 470 628 c 1
 426 553 l 1
 383 579 341 592 292 592 c 0
 237 592 208 571 208 537 c 0
 208 499 226 482 327 450 c 0
 427 417 482 379 482 300 c 0
 482 247 449 206 405 178 c 1
262 242 m 2
 334 215 l 1
 355 236 367 262 367 283 c 0
 367 323 346 340 264 369 c 0
 243 376 224 383 206 390 c 1
 187 368 176 342 176 322 c 0
 176 281 195 264 262 242 c 2
EndSplineSet
EndChar

StartChar: uni00A8
Encoding: 168 168 103
Width: 422
Flags: W
LayerCount: 2
Fore
SplineSet
100 785 m 0
 139 785 170 755 170 716 c 0
 170 677 139 647 100 647 c 0
 60 647 29 677 29 716 c 0
 29 755 60 785 100 785 c 0
321 785 m 0
 361 785 392 755 392 716 c 0
 392 677 361 647 321 647 c 0
 282 647 251 677 251 716 c 0
 251 755 282 785 321 785 c 0
EndSplineSet
EndChar

StartChar: uni00A9
Encoding: 169 169 104
Width: 810
Flags: W
LayerCount: 2
Fore
SplineSet
406 758 m 0
 587 758 732 624 732 433 c 0
 732 243 587 109 406 109 c 0
 225 109 78 243 78 433 c 0
 78 624 225 758 406 758 c 0
406 691 m 0
 263 691 156 586 156 433 c 0
 156 280 263 177 406 177 c 0
 548 177 655 280 655 433 c 0
 655 586 548 691 406 691 c 0
408 628 m 0
 459 628 498 611 532 582 c 1
 490 527 l 1
 465 546 443 553 416 553 c 0
 370 553 334 520 334 434 c 0
 334 351 367 316 415 316 c 0
 448 316 472 327 497 347 c 1
 536 290 l 1
 504 261 463 240 409 240 c 0
 307 240 238 309 238 434 c 0
 238 557 313 628 408 628 c 0
EndSplineSet
EndChar

StartChar: uni00AA
Encoding: 170 170 105
Width: 500
Flags: W
LayerCount: 2
Fore
SplineSet
252 527 m 2
 298 527 l 1
 298 544 l 2
 298 591 277 605 224 605 c 0
 197 605 155 598 113 584 c 1
 85 662 l 1
 138 681 195 691 243 691 c 0
 363 691 415 642 415 550 c 2
 415 396 l 2
 415 365 424 354 445 347 c 1
 420 269 l 1
 372 273 341 288 320 325 c 1
 290 284 244 267 193 267 c 0
 108 267 55 319 55 392 c 0
 55 479 126 527 252 527 c 2
228 352 m 0
 259 352 282 366 298 389 c 1
 298 460 l 1
 264 460 l 2
 206 460 176 441 176 400 c 0
 176 370 194 352 228 352 c 0
60 102 m 1
 455 102 l 1
 455 0 l 1
 60 0 l 1
 60 102 l 1
EndSplineSet
EndChar

StartChar: uni00AB
Encoding: 171 171 106
Width: 604
Flags: W
LayerCount: 2
Fore
SplineSet
228 547 m 1
 306 494 l 1
 174 286 l 1
 306 77 l 1
 228 25 l 1
 45 244 l 1
 45 327 l 1
 228 547 l 1
481 547 m 1
 559 494 l 1
 427 286 l 1
 559 77 l 1
 481 25 l 1
 298 244 l 1
 298 327 l 1
 481 547 l 1
EndSplineSet
EndChar

StartChar: uni00AC
Encoding: 172 172 107
Width: 517
Flags: W
LayerCount: 2
Fore
SplineSet
462 377 m 1
 462 126 l 1
 353 126 l 1
 353 275 l 1
 55 275 l 1
 55 377 l 1
 462 377 l 1
EndSplineSet
EndChar

StartChar: uni00AD
Encoding: 173 173 108
Width: 405
Flags: W
LayerCount: 2
Fore
SplineSet
52 262 m 1
 52 364 l 1
 354 364 l 1
 354 262 l 1
 52 262 l 1
EndSplineSet
EndChar

StartChar: uni00AE
Encoding: 174 174 109
Width: 639
Flags: W
LayerCount: 2
Fore
SplineSet
319 755 m 0
 471 755 585 639 585 488 c 0
 585 337 471 224 319 224 c 0
 170 224 54 337 54 488 c 0
 54 639 170 755 319 755 c 0
319 283 m 0
 436 283 517 366 517 488 c 0
 517 611 436 696 319 696 c 0
 205 696 122 611 122 488 c 0
 122 366 205 283 319 283 c 0
430 548 m 0
 430 509 404 484 369 471 c 1
 443 355 l 1
 368 355 l 1
 309 459 l 1
 286 459 l 1
 286 355 l 1
 221 355 l 1
 221 634 l 1
 302 634 l 2
 388 634 430 606 430 548 c 0
286 585 m 1
 286 511 l 1
 315 511 l 2
 344 511 364 522 364 549 c 0
 364 574 347 585 314 585 c 2
 286 585 l 1
EndSplineSet
EndChar

StartChar: uni00AF
Encoding: 175 175 110
Width: 351
Flags: W
LayerCount: 2
Fore
SplineSet
321 661 m 1
 30 661 l 1
 30 752 l 1
 321 752 l 1
 321 661 l 1
EndSplineSet
EndChar

StartChar: uni00B0
Encoding: 176 176 111
Width: 522
Flags: W
LayerCount: 2
Fore
SplineSet
218 375 m 0
 133 375 47 436 47 541 c 0
 47 646 133 706 218 706 c 0
 305 706 390 646 390 540 c 0
 390 435 305 375 218 375 c 0
218 453 m 0
 262 453 296 484 296 540 c 0
 296 596 262 628 218 628 c 0
 175 628 141 598 141 541 c 0
 141 484 175 453 218 453 c 0
EndSplineSet
EndChar

StartChar: uni00B1
Encoding: 177 177 112
Width: 517
Flags: W
LayerCount: 2
Fore
SplineSet
313 585 m 1
 313 432 l 1
 462 432 l 1
 462 331 l 1
 313 331 l 1
 313 178 l 1
 204 178 l 1
 204 331 l 1
 55 331 l 1
 55 432 l 1
 204 432 l 1
 204 585 l 1
 313 585 l 1
58 0 m 1
 58 102 l 1
 459 102 l 1
 459 0 l 1
 58 0 l 1
EndSplineSet
EndChar

StartChar: uni00B2
Encoding: 178 178 113
Width: 400
Flags: W
LayerCount: 2
Fore
SplineSet
195 749 m 0
 292 749 345 693 345 626 c 0
 345 562 308 514 172 398 c 1
 354 398 l 1
 344 321 l 1
 60 321 l 1
 60 392 l 1
 207 530 242 568 242 617 c 0
 242 653 219 672 185 672 c 0
 152 672 130 659 104 629 c 1
 45 676 l 1
 80 720 130 749 195 749 c 0
EndSplineSet
EndChar

StartChar: uni00B3
Encoding: 179 179 114
Width: 400
Flags: W
LayerCount: 2
Fore
SplineSet
198 749 m 0
 293 749 344 701 344 641 c 0
 344 592 312 557 254 543 c 1
 313 538 359 506 359 441 c 0
 359 370 299 310 191 310 c 0
 126 310 76 334 41 374 c 1
 97 427 l 1
 124 399 151 387 185 387 c 0
 226 387 255 408 255 447 c 0
 255 490 229 506 182 506 c 2
 146 506 l 1
 158 574 l 1
 182 574 l 2
 221 574 246 593 246 627 c 0
 246 658 223 675 187 675 c 0
 155 675 128 662 101 639 c 1
 51 692 l 1
 92 730 141 749 198 749 c 0
EndSplineSet
EndChar

StartChar: uni00B4
Encoding: 180 180 115
Width: 322
Flags: W
LayerCount: 2
Fore
SplineSet
240 820 m 1
 292 720 l 1
 66 630 l 1
 30 695 l 1
 240 820 l 1
EndSplineSet
EndChar

StartChar: uni00B5
Encoding: 181 181 116
Width: 583
Flags: W
LayerCount: 2
Fore
SplineSet
524 0 m 1
 406 -15 l 1
 391 18 387 41 382 76 c 1
 355 29 313 -10 261 -10 c 0
 220 -10 192 2 169 36 c 1
 187 -4 198 -38 198 -105 c 2
 198 -204 l 1
 75 -217 l 1
 75 529 l 1
 203 529 l 1
 203 162 l 2
 203 107 229 88 266 88 c 0
 304 88 341 109 371 166 c 1
 371 529 l 1
 499 529 l 1
 499 181 l 2
 499 101 511 42 524 0 c 1
EndSplineSet
EndChar

StartChar: uni00B6
Encoding: 182 182 117
Width: 763
Flags: W
LayerCount: 2
Fore
SplineSet
332 691 m 2
 637 691 l 1
 637 -203 l 1
 524 -219 l 1
 524 598 l 1
 422 598 l 1
 422 -203 l 1
 309 -219 l 1
 309 272 l 1
 150 277 76 364 76 482 c 0
 76 614 172 691 332 691 c 2
EndSplineSet
EndChar

StartChar: uni00B7
Encoding: 183 183 118
Width: 240
Flags: W
LayerCount: 2
Fore
SplineSet
119 390 m 0
 165 390 201 353 201 309 c 0
 201 265 165 228 119 228 c 0
 74 228 39 265 39 309 c 0
 39 353 74 390 119 390 c 0
EndSplineSet
EndChar

StartChar: uni00B8
Encoding: 184 184 119
Width: 300
Flags: W
LayerCount: 2
Fore
SplineSet
171 16 m 1
 171 -52 l 1
 241 -59 270 -96 270 -144 c 0
 270 -211 213 -253 133 -253 c 0
 90 -253 53 -241 30 -225 c 1
 61 -162 l 1
 80 -172 99 -178 124 -178 c 0
 152 -178 173 -169 173 -144 c 0
 173 -118 146 -106 82 -106 c 1
 97 16 l 1
 171 16 l 1
EndSplineSet
EndChar

StartChar: uni00B9
Encoding: 185 185 120
Width: 400
Flags: W
LayerCount: 2
Fore
SplineSet
288 740 m 1
 288 321 l 1
 190 321 l 1
 190 644 l 1
 95 587 l 1
 51 654 l 1
 199 740 l 1
 288 740 l 1
EndSplineSet
EndChar

StartChar: uni00BA
Encoding: 186 186 121
Width: 500
Flags: W
LayerCount: 2
Fore
SplineSet
251 691 m 0
 378 691 455 613 455 479 c 0
 455 352 379 267 250 267 c 0
 123 267 45 346 45 480 c 0
 45 607 123 691 251 691 c 0
251 604 m 0
 196 604 168 566 168 480 c 0
 168 392 196 354 250 354 c 0
 305 354 332 393 332 479 c 0
 332 567 305 604 251 604 c 0
49 0 m 1
 49 102 l 1
 451 102 l 1
 451 0 l 1
 49 0 l 1
EndSplineSet
EndChar

StartChar: uni00BB
Encoding: 187 187 122
Width: 598
Flags: W
LayerCount: 2
Fore
SplineSet
123 547 m 1
 306 327 l 1
 306 244 l 1
 123 25 l 1
 45 77 l 1
 176 286 l 1
 45 494 l 1
 123 547 l 1
371 547 m 1
 553 327 l 1
 553 244 l 1
 371 25 l 1
 293 77 l 1
 424 286 l 1
 293 494 l 1
 371 547 l 1
EndSplineSet
EndChar

StartChar: uni00BC
Encoding: 188 188 123
Width: 952
Flags: W
LayerCount: 2
Fore
SplineSet
642 755 m 1
 719 717 l 1
 310 -82 l 1
 233 -44 l 1
 642 755 l 1
288 272 m 1
 190 272 l 1
 190 595 l 1
 95 538 l 1
 51 605 l 1
 199 691 l 1
 288 691 l 1
 288 272 l 1
919 164 m 1
 919 90 l 1
 869 90 l 1
 869 0 l 1
 774 0 l 1
 773 90 l 1
 584 90 l 1
 584 157 l 1
 709 428 l 1
 793 397 l 1
 687 164 l 1
 774 164 l 1
 789 263 l 1
 869 263 l 1
 869 164 l 1
 919 164 l 1
EndSplineSet
EndChar

StartChar: uni00BD
Encoding: 189 189 124
Width: 952
Flags: W
LayerCount: 2
Fore
SplineSet
642 755 m 1
 719 717 l 1
 310 -82 l 1
 233 -44 l 1
 642 755 l 1
288 691 m 1
 288 272 l 1
 190 272 l 1
 190 595 l 1
 95 538 l 1
 51 605 l 1
 199 691 l 1
 288 691 l 1
747 428 m 0
 844 428 897 372 897 305 c 0
 897 241 860 193 724 77 c 1
 906 77 l 1
 896 0 l 1
 612 0 l 1
 612 71 l 1
 759 209 794 247 794 296 c 0
 794 332 771 351 737 351 c 0
 704 351 682 338 656 308 c 1
 597 355 l 1
 632 399 682 428 747 428 c 0
EndSplineSet
EndChar

StartChar: uni00BE
Encoding: 190 190 125
Width: 952
Flags: W
LayerCount: 2
Fore
SplineSet
642 755 m 1
 719 717 l 1
 310 -82 l 1
 233 -44 l 1
 642 755 l 1
359 392 m 0
 359 321 299 261 191 261 c 0
 126 261 76 285 41 325 c 1
 97 378 l 1
 124 350 151 338 185 338 c 0
 226 338 255 359 255 398 c 0
 255 441 229 457 182 457 c 2
 146 457 l 1
 158 525 l 1
 182 525 l 2
 221 525 246 544 246 578 c 0
 246 609 223 626 187 626 c 0
 155 626 128 613 101 590 c 1
 51 643 l 1
 92 681 141 700 198 700 c 0
 293 700 344 652 344 592 c 0
 344 543 312 508 254 494 c 1
 313 489 359 457 359 392 c 0
919 164 m 1
 919 90 l 1
 869 90 l 1
 869 0 l 1
 774 0 l 1
 773 90 l 1
 584 90 l 1
 584 157 l 1
 709 428 l 1
 793 397 l 1
 687 164 l 1
 774 164 l 1
 789 263 l 1
 869 263 l 1
 869 164 l 1
 919 164 l 1
EndSplineSet
EndChar

StartChar: uni00BF
Encoding: 191 191 126
Width: 471
Flags: W
LayerCount: 2
Fore
SplineSet
260 341 m 0
 214 341 179 377 179 422 c 0
 179 466 214 503 260 503 c 0
 305 503 340 466 340 422 c 0
 340 377 305 341 260 341 c 0
228 -219 m 0
 91 -219 22 -142 22 -57 c 0
 22 104 202 88 202 206 c 2
 202 241 l 1
 322 241 l 1
 322 201 l 2
 322 33 155 47 155 -47 c 0
 155 -91 187 -117 239 -117 c 0
 284 -117 328 -96 366 -51 c 1
 450 -116 l 1
 393 -182 322 -219 228 -219 c 0
EndSplineSet
EndChar

StartChar: uni00C0
Encoding: 192 192 127
Width: 583
Flags: W
LayerCount: 2
Fore
SplineSet
204 936 m 1
 416 819 l 1
 383 753 l 1
 154 836 l 1
 204 936 l 1
447 0 m 1
 404 160 l 1
 175 160 l 1
 132 0 l 1
 -5 0 l 1
 210 691 l 1
 373 691 l 1
 587 0 l 1
 447 0 l 1
201 260 m 1
 378 260 l 1
 289 590 l 1
 201 260 l 1
EndSplineSet
EndChar

StartChar: uni00C1
Encoding: 193 193 128
Width: 583
Flags: W
LayerCount: 2
Fore
SplineSet
423 836 m 1
 194 753 l 1
 161 819 l 1
 373 936 l 1
 423 836 l 1
447 0 m 1
 404 160 l 1
 175 160 l 1
 132 0 l 1
 -5 0 l 1
 210 691 l 1
 373 691 l 1
 587 0 l 1
 447 0 l 1
201 260 m 1
 377 260 l 1
 289 590 l 1
 201 260 l 1
EndSplineSet
EndChar

StartChar: uni00C2
Encoding: 194 194 129
Width: 583
Flags: W
LayerCount: 2
Fore
SplineSet
161 757 m 1
 112 812 l 1
 251 933 l 1
 331 933 l 1
 470 812 l 1
 421 757 l 1
 291 839 l 1
 161 757 l 1
447 0 m 1
 404 160 l 1
 175 160 l 1
 132 0 l 1
 -5 0 l 1
 210 691 l 1
 373 691 l 1
 587 0 l 1
 447 0 l 1
201 260 m 1
 378 260 l 1
 289 590 l 1
 201 260 l 1
EndSplineSet
EndChar

StartChar: uni00C3
Encoding: 195 195 130
Width: 583
Flags: W
LayerCount: 2
Fore
SplineSet
350 770 m 0
 322 770 301 781 282 795 c 0
 265 807 252 817 235 817 c 0
 211 817 198 801 182 772 c 1
 113 806 l 1
 137 863 177 910 233 910 c 0
 264 910 283 899 302 885 c 0
 319 873 333 864 349 864 c 0
 370 864 384 878 402 907 c 1
 470 873 l 1
 444 811 402 770 350 770 c 0
447 0 m 1
 404 160 l 1
 175 160 l 1
 132 0 l 1
 -5 0 l 1
 210 691 l 1
 373 691 l 1
 587 0 l 1
 447 0 l 1
201 260 m 1
 378 260 l 1
 289 590 l 1
 201 260 l 1
EndSplineSet
EndChar

StartChar: uni00C4
Encoding: 196 196 131
Width: 583
Flags: W
LayerCount: 2
Fore
SplineSet
180 911 m 0
 219 911 249 881 249 842 c 0
 249 803 219 773 180 773 c 0
 140 773 109 803 109 842 c 0
 109 881 140 911 180 911 c 0
401 911 m 0
 441 911 471 881 471 842 c 0
 471 803 441 773 401 773 c 0
 362 773 331 803 331 842 c 0
 331 881 362 911 401 911 c 0
447 0 m 1
 404 160 l 1
 175 160 l 1
 132 0 l 1
 -5 0 l 1
 210 691 l 1
 373 691 l 1
 587 0 l 1
 447 0 l 1
201 260 m 1
 378 260 l 1
 289 590 l 1
 201 260 l 1
EndSplineSet
EndChar

StartChar: uni00C5
Encoding: 197 197 132
Width: 583
Flags: W
LayerCount: 2
Fore
SplineSet
292 979 m 0
 369 979 419 925 419 859 c 0
 419 794 369 739 292 739 c 0
 214 739 164 794 164 859 c 0
 164 925 214 979 292 979 c 0
292 912 m 0
 262 912 243 893 243 859 c 0
 243 825 262 807 292 807 c 0
 321 807 340 825 340 859 c 0
 340 893 321 912 292 912 c 0
447 0 m 1
 404 160 l 1
 175 160 l 1
 132 0 l 1
 -5 0 l 1
 210 691 l 1
 373 691 l 1
 587 0 l 1
 447 0 l 1
201 260 m 1
 378 260 l 1
 289 590 l 1
 201 260 l 1
EndSplineSet
EndChar

StartChar: uni00C6
Encoding: 198 198 133
Width: 832
Flags: W
LayerCount: 2
Fore
SplineSet
560 99 m 1
 790 99 l 1
 790 0 l 1
 451 0 l 1
 419 160 l 1
 179 160 l 1
 122 0 l 1
 -18 0 l 1
 255 691 l 1
 751 691 l 1
 736 593 l 1
 448 593 l 1
 492 399 l 1
 742 399 l 1
 742 301 l 1
 514 301 l 1
 560 99 l 1
214 260 m 1
 399 260 l 1
 332 591 l 1
 214 260 l 1
EndSplineSet
EndChar

StartChar: uni00C7
Encoding: 199 199 134
Width: 568
Flags: W
LayerCount: 2
Fore
SplineSet
555 69 m 1
 518 31 458 -5 380 -13 c 1
 380 -52 l 1
 450 -59 479 -96 479 -144 c 0
 479 -211 422 -253 342 -253 c 0
 299 -253 262 -241 239 -225 c 1
 270 -162 l 1
 289 -172 308 -178 333 -178 c 0
 361 -178 382 -169 382 -144 c 0
 382 -118 355 -106 291 -106 c 1
 303 -12 l 1
 148 7 43 132 43 347 c 0
 43 579 175 706 345 706 c 0
 433 706 490 680 547 633 c 1
 480 555 l 1
 440 587 399 604 352 604 c 0
 256 604 182 534 182 347 c 0
 182 165 254 91 352 91 c 0
 412 91 453 117 493 147 c 1
 555 69 l 1
EndSplineSet
EndChar

StartChar: uni00C8
Encoding: 200 200 135
Width: 530
Flags: W
LayerCount: 2
Fore
SplineSet
196 936 m 1
 408 819 l 1
 375 753 l 1
 146 836 l 1
 196 936 l 1
482 691 m 1
 468 593 l 1
 213 593 l 1
 213 400 l 1
 435 400 l 1
 435 302 l 1
 213 302 l 1
 213 99 l 1
 486 99 l 1
 486 0 l 1
 81 0 l 1
 81 691 l 1
 482 691 l 1
EndSplineSet
EndChar

StartChar: uni00C9
Encoding: 201 201 136
Width: 530
Flags: W
LayerCount: 2
Fore
SplineSet
365 936 m 1
 415 836 l 1
 186 753 l 1
 153 819 l 1
 365 936 l 1
482 691 m 1
 468 593 l 1
 213 593 l 1
 213 400 l 1
 435 400 l 1
 435 302 l 1
 213 302 l 1
 213 99 l 1
 486 99 l 1
 486 0 l 1
 81 0 l 1
 81 691 l 1
 482 691 l 1
EndSplineSet
EndChar

StartChar: uni00CA
Encoding: 202 202 137
Width: 530
Flags: W
LayerCount: 2
Fore
SplineSet
153 757 m 1
 104 812 l 1
 243 933 l 1
 323 933 l 1
 462 812 l 1
 413 757 l 1
 283 839 l 1
 153 757 l 1
482 691 m 1
 468 593 l 1
 213 593 l 1
 213 400 l 1
 435 400 l 1
 435 302 l 1
 213 302 l 1
 213 99 l 1
 486 99 l 1
 486 0 l 1
 81 0 l 1
 81 691 l 1
 482 691 l 1
EndSplineSet
EndChar

StartChar: uni00CB
Encoding: 203 203 138
Width: 530
Flags: W
LayerCount: 2
Fore
SplineSet
173 911 m 0
 212 911 242 881 242 842 c 0
 242 803 212 773 173 773 c 0
 133 773 102 803 102 842 c 0
 102 881 133 911 173 911 c 0
394 911 m 0
 434 911 464 881 464 842 c 0
 464 803 434 773 394 773 c 0
 355 773 324 803 324 842 c 0
 324 881 355 911 394 911 c 0
482 691 m 1
 468 593 l 1
 213 593 l 1
 213 400 l 1
 435 400 l 1
 435 302 l 1
 213 302 l 1
 213 99 l 1
 486 99 l 1
 486 0 l 1
 81 0 l 1
 81 691 l 1
 482 691 l 1
EndSplineSet
EndChar

StartChar: uni00CC
Encoding: 204 204 139
Width: 294
Flags: W
LayerCount: 2
Fore
SplineSet
59 936 m 1
 271 819 l 1
 238 753 l 1
 9 836 l 1
 59 936 l 1
213 691 m 1
 213 0 l 1
 81 0 l 1
 81 691 l 1
 213 691 l 1
EndSplineSet
EndChar

StartChar: uni00CD
Encoding: 205 205 140
Width: 294
Flags: W
LayerCount: 2
Fore
SplineSet
228 936 m 1
 278 836 l 1
 49 753 l 1
 16 819 l 1
 228 936 l 1
213 691 m 1
 213 0 l 1
 81 0 l 1
 81 691 l 1
 213 691 l 1
EndSplineSet
EndChar

StartChar: uni00CE
Encoding: 206 206 141
Width: 294
Flags: W
LayerCount: 2
Fore
SplineSet
16 757 m 1
 -33 812 l 1
 106 933 l 1
 186 933 l 1
 325 812 l 1
 276 757 l 1
 146 839 l 1
 16 757 l 1
213 691 m 1
 213 0 l 1
 81 0 l 1
 81 691 l 1
 213 691 l 1
EndSplineSet
EndChar

StartChar: uni00CF
Encoding: 207 207 142
Width: 294
Flags: W
LayerCount: 2
Fore
SplineSet
35 911 m 0
 74 911 104 881 104 842 c 0
 104 803 74 773 35 773 c 0
 -5 773 -36 803 -36 842 c 0
 -36 881 -5 911 35 911 c 0
256 911 m 0
 296 911 326 881 326 842 c 0
 326 803 296 773 256 773 c 0
 217 773 186 803 186 842 c 0
 186 881 217 911 256 911 c 0
213 691 m 1
 213 0 l 1
 81 0 l 1
 81 691 l 1
 213 691 l 1
EndSplineSet
EndChar

StartChar: uni00D0
Encoding: 208 208 143
Width: 661
Flags: W
LayerCount: 2
Fore
SplineSet
264 691 m 2
 446 691 618 635 618 349 c 0
 618 69 447 0 282 0 c 2
 94 0 l 1
 94 310 l 1
 17 310 l 1
 17 396 l 1
 94 396 l 1
 94 691 l 1
 264 691 l 2
291 99 m 2
 394 99 479 145 479 349 c 0
 479 557 389 592 287 592 c 2
 226 592 l 1
 226 396 l 1
 371 396 l 1
 371 310 l 1
 226 310 l 1
 226 99 l 1
 291 99 l 2
EndSplineSet
EndChar

StartChar: uni00D1
Encoding: 209 209 144
Width: 672
Flags: W
LayerCount: 2
Fore
SplineSet
402 770 m 0
 374 770 353 781 334 795 c 0
 317 807 304 817 287 817 c 0
 263 817 250 801 234 772 c 1
 165 806 l 1
 189 863 229 910 285 910 c 0
 316 910 335 899 354 885 c 0
 371 873 385 864 401 864 c 0
 422 864 436 878 454 907 c 1
 522 873 l 1
 496 811 454 770 402 770 c 0
591 691 m 1
 591 0 l 1
 420 0 l 1
 183 559 l 1
 190 498 201 410 201 282 c 2
 201 0 l 1
 81 0 l 1
 81 691 l 1
 248 691 l 1
 489 131 l 1
 483 169 471 269 471 367 c 2
 471 691 l 1
 591 691 l 1
EndSplineSet
EndChar

StartChar: uni00D2
Encoding: 210 210 145
Width: 691
Flags: W
LayerCount: 2
Fore
SplineSet
258 936 m 1
 470 819 l 1
 437 753 l 1
 208 836 l 1
 258 936 l 1
346 706 m 0
 531 706 648 577 648 346 c 0
 648 118 531 -15 346 -15 c 0
 161 -15 43 114 43 345 c 0
 43 572 161 706 346 706 c 0
346 605 m 0
 243 605 182 531 182 345 c 0
 182 159 245 86 346 86 c 0
 449 86 509 159 509 346 c 0
 509 531 450 605 346 605 c 0
EndSplineSet
EndChar

StartChar: uni00D3
Encoding: 211 211 146
Width: 691
Flags: W
LayerCount: 2
Fore
SplineSet
427 936 m 1
 477 836 l 1
 248 753 l 1
 215 819 l 1
 427 936 l 1
346 706 m 0
 531 706 648 577 648 346 c 0
 648 118 531 -15 346 -15 c 0
 161 -15 43 114 43 345 c 0
 43 572 161 706 346 706 c 0
346 605 m 0
 243 605 182 531 182 345 c 0
 182 159 245 86 346 86 c 0
 449 86 509 159 509 346 c 0
 509 531 450 605 346 605 c 0
EndSplineSet
EndChar

StartChar: uni00D4
Encoding: 212 212 147
Width: 691
Flags: W
LayerCount: 2
Fore
SplineSet
215 757 m 1
 166 812 l 1
 305 933 l 1
 385 933 l 1
 524 812 l 1
 475 757 l 1
 345 839 l 1
 215 757 l 1
346 706 m 0
 531 706 648 577 648 346 c 0
 648 118 531 -15 346 -15 c 0
 161 -15 43 114 43 345 c 0
 43 572 161 706 346 706 c 0
346 605 m 0
 243 605 182 531 182 345 c 0
 182 159 245 86 346 86 c 0
 449 86 509 159 509 346 c 0
 509 531 450 605 346 605 c 0
EndSplineSet
EndChar

StartChar: uni00D5
Encoding: 213 213 148
Width: 691
Flags: W
LayerCount: 2
Fore
SplineSet
404 770 m 0
 376 770 355 781 336 795 c 0
 319 807 306 817 289 817 c 0
 265 817 252 801 236 772 c 1
 167 806 l 1
 191 863 231 910 287 910 c 0
 318 910 337 899 356 885 c 0
 373 873 387 864 403 864 c 0
 424 864 438 878 456 907 c 1
 524 873 l 1
 498 811 456 770 404 770 c 0
346 706 m 0
 531 706 648 577 648 346 c 0
 648 118 531 -15 346 -15 c 0
 161 -15 43 114 43 345 c 0
 43 572 161 706 346 706 c 0
346 605 m 0
 243 605 182 531 182 345 c 0
 182 159 245 86 346 86 c 0
 449 86 509 159 509 346 c 0
 509 531 450 605 346 605 c 0
EndSplineSet
EndChar

StartChar: uni00D6
Encoding: 214 214 149
Width: 691
Flags: W
LayerCount: 2
Fore
SplineSet
234 911 m 0
 273 911 303 881 303 842 c 0
 303 803 273 773 234 773 c 0
 194 773 163 803 163 842 c 0
 163 881 194 911 234 911 c 0
455 911 m 0
 495 911 525 881 525 842 c 0
 525 803 495 773 455 773 c 0
 416 773 385 803 385 842 c 0
 385 881 416 911 455 911 c 0
346 706 m 0
 531 706 648 577 648 346 c 0
 648 118 531 -15 346 -15 c 0
 161 -15 43 114 43 345 c 0
 43 572 161 706 346 706 c 0
346 605 m 0
 243 605 182 531 182 345 c 0
 182 159 245 86 346 86 c 0
 449 86 509 159 509 346 c 0
 509 531 450 605 346 605 c 0
EndSplineSet
EndChar

StartChar: uni00D7
Encoding: 215 215 150
Width: 510
Flags: W
LayerCount: 2
Fore
SplineSet
374 499 m 1
 447 426 l 1
 329 309 l 1
 447 188 l 1
 374 115 l 1
 257 237 l 1
 136 115 l 1
 63 188 l 1
 181 304 l 1
 63 426 l 1
 136 499 l 1
 253 376 l 1
 374 499 l 1
EndSplineSet
EndChar

StartChar: uni00D8
Encoding: 216 216 151
Width: 691
Flags: W
LayerCount: 2
Fore
SplineSet
502 667 m 1
 594 613 648 503 648 346 c 0
 648 118 531 -15 346 -15 c 0
 326 -15 307 -13 288 -10 c 1
 252 -131 l 1
 149 -104 l 1
 190 24 l 1
 97 79 43 189 43 345 c 0
 43 572 161 706 346 706 c 0
 365 706 384 705 402 702 c 1
 439 824 l 1
 543 796 l 1
 502 667 l 1
346 605 m 0
 243 605 182 531 182 345 c 0
 182 228 203 159 240 123 c 1
 384 602 l 1
 372 604 360 605 346 605 c 0
346 86 m 0
 449 86 509 159 509 346 c 0
 509 465 489 534 450 570 c 1
 307 89 l 1
 319 87 332 86 346 86 c 0
EndSplineSet
EndChar

StartChar: uni00D9
Encoding: 217 217 152
Width: 656
Flags: W
LayerCount: 2
Fore
SplineSet
240 936 m 1
 452 819 l 1
 419 753 l 1
 190 836 l 1
 240 936 l 1
585 691 m 1
 585 226 l 2
 585 87 496 -15 327 -15 c 0
 157 -15 71 84 71 226 c 2
 71 691 l 1
 203 691 l 1
 203 233 l 2
 203 136 242 88 327 88 c 0
 413 88 452 136 452 233 c 2
 452 691 l 1
 585 691 l 1
EndSplineSet
EndChar

StartChar: uni00DA
Encoding: 218 218 153
Width: 656
Flags: W
LayerCount: 2
Fore
SplineSet
409 936 m 1
 459 836 l 1
 230 753 l 1
 197 819 l 1
 409 936 l 1
585 691 m 1
 585 226 l 2
 585 87 496 -15 327 -15 c 0
 157 -15 71 84 71 226 c 2
 71 691 l 1
 203 691 l 1
 203 233 l 2
 203 136 242 88 327 88 c 0
 413 88 452 136 452 233 c 2
 452 691 l 1
 585 691 l 1
EndSplineSet
EndChar

StartChar: uni00DB
Encoding: 219 219 154
Width: 656
Flags: W
LayerCount: 2
Fore
SplineSet
197 757 m 1
 148 812 l 1
 287 933 l 1
 367 933 l 1
 506 812 l 1
 457 757 l 1
 327 839 l 1
 197 757 l 1
585 691 m 1
 585 226 l 2
 585 87 496 -15 327 -15 c 0
 157 -15 71 84 71 226 c 2
 71 691 l 1
 203 691 l 1
 203 233 l 2
 203 136 242 88 327 88 c 0
 413 88 452 136 452 233 c 2
 452 691 l 1
 585 691 l 1
EndSplineSet
EndChar

StartChar: uni00DC
Encoding: 220 220 155
Width: 656
Flags: W
LayerCount: 2
Fore
SplineSet
217 911 m 0
 256 911 286 881 286 842 c 0
 286 803 256 773 217 773 c 0
 177 773 146 803 146 842 c 0
 146 881 177 911 217 911 c 0
438 911 m 0
 478 911 508 881 508 842 c 0
 508 803 478 773 438 773 c 0
 399 773 368 803 368 842 c 0
 368 881 399 911 438 911 c 0
585 691 m 1
 585 226 l 2
 585 87 496 -15 327 -15 c 0
 157 -15 71 84 71 226 c 2
 71 691 l 1
 203 691 l 1
 203 233 l 2
 203 136 242 88 327 88 c 0
 413 88 452 136 452 233 c 2
 452 691 l 1
 585 691 l 1
EndSplineSet
EndChar

StartChar: uni00DD
Encoding: 221 221 156
Width: 574
Flags: W
LayerCount: 2
Fore
SplineSet
368 936 m 1
 418 836 l 1
 189 753 l 1
 156 819 l 1
 368 936 l 1
576 691 m 1
 354 262 l 1
 354 0 l 1
 220 0 l 1
 220 261 l 1
 -2 691 l 1
 144 691 l 1
 290 370 l 1
 436 691 l 1
 576 691 l 1
EndSplineSet
EndChar

StartChar: uni00DE
Encoding: 222 222 157
Width: 591
Flags: W
LayerCount: 2
Fore
SplineSet
285 578 m 2
 459 578 565 507 565 355 c 0
 565 191 450 120 294 120 c 2
 213 120 l 1
 213 0 l 1
 81 0 l 1
 81 691 l 1
 213 691 l 1
 213 578 l 1
 285 578 l 2
284 219 m 2
 372 219 427 249 427 355 c 0
 427 445 374 481 284 481 c 2
 213 481 l 1
 213 219 l 1
 284 219 l 2
EndSplineSet
EndChar

StartChar: uni00DF
Encoding: 223 223 158
Width: 598
Flags: W
LayerCount: 2
Fore
SplineSet
295 755 m 0
 419 755 490 688 490 608 c 0
 490 504 384 491 384 429 c 0
 384 350 570 339 570 164 c 0
 570 52 483 -15 379 -15 c 0
 332 -15 297 -5 268 10 c 1
 306 98 l 1
 320 90 338 85 364 85 c 0
 408 85 438 112 438 166 c 0
 438 285 270 285 270 412 c 0
 270 513 368 509 368 595 c 0
 368 638 336 661 293 661 c 0
 234 661 203 621 203 538 c 2
 203 0 l 1
 75 0 l 1
 75 536 l 2
 75 673 153 755 295 755 c 0
EndSplineSet
EndChar

StartChar: uni00E0
Encoding: 224 224 159
Width: 543
Flags: W
LayerCount: 2
Fore
SplineSet
194 820 m 1
 404 695 l 1
 367 630 l 1
 142 720 l 1
 194 820 l 1
465 140 m 2
 465 97 479 82 505 72 c 1
 478 -13 l 1
 419 -8 381 12 361 64 c 1
 323 8 266 -15 202 -15 c 0
 97 -15 32 52 32 148 c 0
 32 263 118 325 272 325 c 2
 339 325 l 1
 339 355 l 2
 339 424 308 447 240 447 c 0
 204 447 153 437 99 419 c 1
 70 506 l 1
 135 531 202 544 261 544 c 0
 403 544 465 479 465 362 c 2
 465 140 l 2
237 78 m 0
 281 78 315 101 339 143 c 1
 339 250 l 1
 286 250 l 2
 203 250 162 220 162 158 c 0
 162 107 188 78 237 78 c 0
EndSplineSet
EndChar

StartChar: uni00E1
Encoding: 225 225 160
Width: 543
Flags: W
LayerCount: 2
Fore
SplineSet
391 720 m 1
 165 630 l 1
 129 695 l 1
 339 820 l 1
 391 720 l 1
465 140 m 2
 465 97 479 82 505 72 c 1
 478 -13 l 1
 419 -8 381 13 361 65 c 1
 323 8 266 -15 202 -15 c 0
 97 -15 32 52 32 148 c 0
 32 263 118 325 272 325 c 2
 339 325 l 1
 339 355 l 2
 339 424 308 447 240 447 c 0
 204 447 153 437 99 419 c 1
 70 506 l 1
 135 531 202 544 261 544 c 0
 403 544 465 479 465 362 c 2
 465 140 l 2
237 78 m 0
 282 78 315 101 339 143 c 1
 339 250 l 1
 286 250 l 2
 203 250 162 220 162 158 c 0
 162 107 188 78 237 78 c 0
EndSplineSet
EndChar

StartChar: uni00E2
Encoding: 226 226 161
Width: 543
Flags: W
LayerCount: 2
Fore
SplineSet
133 627 m 1
 84 682 l 1
 222 808 l 1
 303 808 l 1
 442 682 l 1
 393 627 l 1
 263 715 l 1
 133 627 l 1
465 140 m 2
 465 97 479 82 505 72 c 1
 478 -13 l 1
 419 -8 381 12 361 64 c 1
 323 8 266 -15 202 -15 c 0
 97 -15 32 52 32 148 c 0
 32 263 118 325 272 325 c 2
 339 325 l 1
 339 355 l 2
 339 424 308 447 240 447 c 0
 204 447 153 437 99 419 c 1
 70 506 l 1
 135 531 202 544 261 544 c 0
 403 544 465 479 465 362 c 2
 465 140 l 2
237 78 m 0
 281 78 315 101 339 143 c 1
 339 250 l 1
 286 250 l 2
 203 250 162 220 162 158 c 0
 162 107 188 78 237 78 c 0
EndSplineSet
EndChar

StartChar: uni00E3
Encoding: 227 227 162
Width: 543
Flags: W
LayerCount: 2
Fore
SplineSet
322 644 m 0
 294 644 273 655 254 669 c 0
 237 681 224 691 207 691 c 0
 183 691 170 675 154 646 c 1
 85 680 l 1
 109 737 149 784 205 784 c 0
 236 784 255 773 274 759 c 0
 291 747 305 738 321 738 c 0
 342 738 356 752 374 781 c 1
 442 747 l 1
 416 685 374 644 322 644 c 0
465 140 m 2
 465 97 479 82 505 72 c 1
 478 -13 l 1
 419 -8 381 12 361 64 c 1
 323 8 266 -15 202 -15 c 0
 97 -15 32 52 32 148 c 0
 32 263 118 325 272 325 c 2
 339 325 l 1
 339 355 l 2
 339 424 308 447 240 447 c 0
 204 447 153 437 99 419 c 1
 70 506 l 1
 135 531 202 544 261 544 c 0
 403 544 465 479 465 362 c 2
 465 140 l 2
237 78 m 0
 281 78 315 101 339 143 c 1
 339 250 l 1
 286 250 l 2
 203 250 162 220 162 158 c 0
 162 107 188 78 237 78 c 0
EndSplineSet
EndChar

StartChar: uni00E4
Encoding: 228 228 163
Width: 543
Flags: W
LayerCount: 2
Fore
SplineSet
152 785 m 0
 191 785 221 755 221 716 c 0
 221 677 191 647 152 647 c 0
 112 647 81 677 81 716 c 0
 81 755 112 785 152 785 c 0
373 785 m 0
 413 785 443 755 443 716 c 0
 443 677 413 647 373 647 c 0
 334 647 303 677 303 716 c 0
 303 755 334 785 373 785 c 0
465 140 m 2
 465 97 479 82 505 72 c 1
 478 -13 l 1
 419 -8 381 12 361 64 c 1
 323 8 266 -15 202 -15 c 0
 97 -15 32 52 32 148 c 0
 32 263 118 325 272 325 c 2
 339 325 l 1
 339 355 l 2
 339 424 308 447 240 447 c 0
 204 447 153 437 99 419 c 1
 70 506 l 1
 135 531 202 544 261 544 c 0
 403 544 465 479 465 362 c 2
 465 140 l 2
237 78 m 0
 281 78 315 101 339 143 c 1
 339 250 l 1
 286 250 l 2
 203 250 162 220 162 158 c 0
 162 107 188 78 237 78 c 0
EndSplineSet
EndChar

StartChar: uni00E5
Encoding: 229 229 164
Width: 543
Flags: W
LayerCount: 2
Fore
SplineSet
264 853 m 0
 341 853 391 799 391 733 c 0
 391 668 341 613 264 613 c 0
 186 613 136 668 136 733 c 0
 136 799 186 853 264 853 c 0
264 786 m 0
 234 786 215 767 215 733 c 0
 215 699 234 681 264 681 c 0
 293 681 312 699 312 733 c 0
 312 767 293 786 264 786 c 0
465 140 m 2
 465 97 479 82 505 72 c 1
 478 -13 l 1
 419 -8 381 12 361 64 c 1
 323 8 266 -15 202 -15 c 0
 97 -15 32 52 32 148 c 0
 32 263 118 325 272 325 c 2
 339 325 l 1
 339 355 l 2
 339 424 308 447 240 447 c 0
 204 447 153 437 99 419 c 1
 70 506 l 1
 135 531 202 544 261 544 c 0
 403 544 465 479 465 362 c 2
 465 140 l 2
237 78 m 0
 281 78 315 101 339 143 c 1
 339 250 l 1
 286 250 l 2
 203 250 162 220 162 158 c 0
 162 107 188 78 237 78 c 0
EndSplineSet
EndChar

StartChar: uni00E6
Encoding: 230 230 165
Width: 849
Flags: W
LayerCount: 2
Fore
SplineSet
811 277 m 0
 811 260 809 239 808 225 c 1
 476 225 l 1
 485 117 536 82 606 82 c 0
 653 82 692 97 738 129 c 1
 791 56 l 1
 739 14 675 -15 595 -15 c 0
 504 -15 436 20 394 79 c 1
 345 9 283 -15 206 -15 c 0
 98 -15 32 52 32 148 c 0
 32 263 120 325 277 325 c 2
 343 325 l 1
 343 355 l 2
 343 423 313 446 245 446 c 0
 208 446 158 436 104 418 c 1
 74 506 l 1
 140 531 206 544 266 544 c 0
 348 544 397 516 426 471 c 1
 464 516 515 544 586 544 c 0
 725 544 811 444 811 277 c 0
684 308 m 1
 684 314 l 2
 684 401 653 453 581 453 c 0
 521 453 483 413 476 308 c 1
 684 308 l 1
243 78 m 0
 290 78 325 104 357 155 c 1
 350 182 345 212 345 244 c 2
 345 248 l 1
 291 248 l 2
 209 248 168 219 168 156 c 0
 168 106 194 78 243 78 c 0
EndSplineSet
EndChar

StartChar: uni00E7
Encoding: 231 231 166
Width: 478
Flags: W
LayerCount: 2
Fore
SplineSet
462 46 m 1
 420 12 373 -9 316 -14 c 1
 316 -52 l 1
 386 -59 415 -96 415 -144 c 0
 415 -211 358 -253 278 -253 c 0
 235 -253 198 -241 175 -225 c 1
 206 -162 l 1
 225 -172 244 -178 269 -178 c 0
 297 -178 318 -169 318 -144 c 0
 318 -118 291 -106 227 -106 c 1
 239 -11 l 1
 117 11 43 111 43 260 c 0
 43 429 138 544 290 544 c 0
 359 544 412 525 462 482 c 1
 405 405 l 1
 370 431 338 443 298 443 c 0
 224 443 179 389 179 262 c 0
 179 134 226 89 298 89 c 0
 338 89 366 102 405 127 c 1
 462 46 l 1
EndSplineSet
EndChar

StartChar: uni00E8
Encoding: 232 232 167
Width: 549
Flags: W
LayerCount: 2
Fore
SplineSet
212 820 m 1
 422 695 l 1
 385 630 l 1
 160 720 l 1
 212 820 l 1
511 277 m 0
 511 260 509 239 508 225 c 1
 176 225 l 1
 186 117 236 82 306 82 c 0
 353 82 392 97 438 129 c 1
 491 56 l 1
 439 14 375 -15 295 -15 c 0
 131 -15 43 94 43 261 c 0
 43 422 128 544 278 544 c 0
 426 544 511 444 511 277 c 0
384 308 m 1
 384 314 l 2
 384 401 353 453 281 453 c 0
 221 453 183 413 176 308 c 1
 384 308 l 1
EndSplineSet
EndChar

StartChar: uni00E9
Encoding: 233 233 168
Width: 549
Flags: W
LayerCount: 2
Fore
SplineSet
409 720 m 1
 183 630 l 1
 147 695 l 1
 357 820 l 1
 409 720 l 1
511 277 m 0
 511 260 509 239 508 225 c 1
 176 225 l 1
 185 117 236 82 306 82 c 0
 353 82 392 97 438 129 c 1
 491 56 l 1
 439 14 375 -15 295 -15 c 0
 131 -15 43 94 43 261 c 0
 43 422 128 544 278 544 c 0
 426 544 511 444 511 277 c 0
384 308 m 1
 384 314 l 2
 384 401 353 453 281 453 c 0
 221 453 183 413 176 308 c 1
 384 308 l 1
EndSplineSet
EndChar

StartChar: uni00EA
Encoding: 234 234 169
Width: 549
Flags: W
LayerCount: 2
Fore
SplineSet
281 715 m 1
 151 627 l 1
 102 682 l 1
 240 808 l 1
 321 808 l 1
 460 682 l 1
 411 627 l 1
 281 715 l 1
511 277 m 0
 511 260 509 239 508 225 c 1
 176 225 l 1
 185 117 236 82 306 82 c 0
 353 82 392 97 438 129 c 1
 491 56 l 1
 439 14 375 -15 295 -15 c 0
 131 -15 43 94 43 261 c 0
 43 422 128 544 278 544 c 0
 426 544 511 444 511 277 c 0
384 308 m 1
 384 314 l 2
 384 401 353 453 281 453 c 0
 221 453 183 413 176 308 c 1
 384 308 l 1
EndSplineSet
EndChar

StartChar: uni00EB
Encoding: 235 235 170
Width: 549
Flags: W
LayerCount: 2
Fore
SplineSet
170 785 m 0
 209 785 239 755 239 716 c 0
 239 677 209 647 170 647 c 0
 130 647 99 677 99 716 c 0
 99 755 130 785 170 785 c 0
391 785 m 0
 431 785 461 755 461 716 c 0
 461 677 431 647 391 647 c 0
 352 647 321 677 321 716 c 0
 321 755 352 785 391 785 c 0
511 277 m 0
 511 260 509 239 508 225 c 1
 176 225 l 1
 186 117 236 82 306 82 c 0
 353 82 392 97 438 129 c 1
 491 56 l 1
 439 14 375 -15 295 -15 c 0
 131 -15 43 94 43 261 c 0
 43 422 128 544 278 544 c 0
 426 544 511 444 511 277 c 0
384 308 m 1
 384 314 l 2
 384 401 353 453 281 453 c 0
 221 453 183 413 176 308 c 1
 384 308 l 1
EndSplineSet
EndChar

StartChar: uni00EC
Encoding: 236 236 171
Width: 278
Flags: W
LayerCount: 2
Fore
SplineSet
70 820 m 1
 280 695 l 1
 243 630 l 1
 18 720 l 1
 70 820 l 1
203 529 m 1
 203 0 l 1
 75 0 l 1
 75 529 l 1
 203 529 l 1
EndSplineSet
EndChar

StartChar: uni00ED
Encoding: 237 237 172
Width: 278
Flags: W
LayerCount: 2
Fore
SplineSet
215 820 m 1
 267 720 l 1
 41 630 l 1
 5 695 l 1
 215 820 l 1
203 529 m 1
 203 0 l 1
 75 0 l 1
 75 529 l 1
 203 529 l 1
EndSplineSet
EndChar

StartChar: uni00EE
Encoding: 238 238 173
Width: 278
Flags: W
LayerCount: 2
Fore
SplineSet
9 627 m 1
 -40 682 l 1
 98 808 l 1
 179 808 l 1
 318 682 l 1
 269 627 l 1
 139 715 l 1
 9 627 l 1
203 529 m 1
 203 0 l 1
 75 0 l 1
 75 529 l 1
 203 529 l 1
EndSplineSet
EndChar

StartChar: uni00EF
Encoding: 239 239 174
Width: 278
Flags: W
LayerCount: 2
Fore
SplineSet
28 785 m 0
 67 785 97 755 97 716 c 0
 97 677 67 647 28 647 c 0
 -12 647 -43 677 -43 716 c 0
 -43 755 -12 785 28 785 c 0
249 785 m 0
 289 785 319 755 319 716 c 0
 319 677 289 647 249 647 c 0
 210 647 179 677 179 716 c 0
 179 755 210 785 249 785 c 0
203 529 m 1
 203 0 l 1
 75 0 l 1
 75 529 l 1
 203 529 l 1
EndSplineSet
EndChar

StartChar: uni00F0
Encoding: 240 240 175
Width: 575
Flags: W
LayerCount: 2
Fore
SplineSet
349 668 m 1
 481 572 526 445 526 271 c 0
 526 105 433 -15 281 -15 c 0
 148 -15 43 76 43 234 c 0
 43 363 120 477 248 477 c 0
 308 477 352 456 387 421 c 1
 370 491 339 545 277 593 c 1
 215 532 l 1
 132 571 l 1
 196 639 l 1
 160 652 128 660 95 666 c 1
 121 754 l 1
 172 745 216 734 269 712 c 1
 340 788 l 1
 409 728 l 1
 349 668 l 1
281 81 m 0
 354 81 396 141 396 261 c 0
 396 284 395 305 395 326 c 1
 366 364 328 384 278 384 c 0
 199 384 174 321 174 238 c 0
 174 131 217 81 281 81 c 0
EndSplineSet
EndChar

StartChar: uni00F1
Encoding: 241 241 176
Width: 576
Flags: W
LayerCount: 2
Fore
SplineSet
237 691 m 0
 213 691 200 675 184 646 c 1
 115 680 l 1
 139 737 179 784 235 784 c 0
 266 784 285 773 304 759 c 0
 321 747 335 738 351 738 c 0
 372 738 386 752 404 781 c 1
 472 747 l 1
 446 685 404 644 352 644 c 0
 324 644 303 655 284 669 c 0
 267 681 254 691 237 691 c 0
357 544 m 0
 452 544 507 484 507 383 c 2
 507 0 l 1
 379 0 l 1
 379 363 l 2
 379 429 354 448 314 448 c 0
 268 448 234 417 203 368 c 1
 203 0 l 1
 75 0 l 1
 75 529 l 1
 186 529 l 1
 196 460 l 1
 237 513 290 544 357 544 c 0
EndSplineSet
EndChar

StartChar: uni00F2
Encoding: 242 242 177
Width: 584
Flags: W
LayerCount: 2
Fore
SplineSet
223 820 m 1
 433 695 l 1
 396 630 l 1
 171 720 l 1
 223 820 l 1
293 544 m 0
 449 544 541 438 541 265 c 0
 541 98 448 -15 292 -15 c 0
 136 -15 43 91 43 265 c 0
 43 431 136 544 293 544 c 0
293 447 m 0
 218 447 178 390 178 265 c 0
 178 138 217 82 292 82 c 0
 367 82 406 139 406 265 c 0
 406 391 367 447 293 447 c 0
EndSplineSet
EndChar

StartChar: uni00F3
Encoding: 243 243 178
Width: 584
Flags: W
LayerCount: 2
Fore
SplineSet
368 820 m 1
 420 720 l 1
 194 630 l 1
 158 695 l 1
 368 820 l 1
293 544 m 0
 449 544 541 438 541 265 c 0
 541 98 448 -15 292 -15 c 0
 136 -15 43 91 43 265 c 0
 43 431 136 544 293 544 c 0
293 447 m 0
 218 447 178 390 178 265 c 0
 178 138 217 82 292 82 c 0
 367 82 406 139 406 265 c 0
 406 391 367 447 293 447 c 0
EndSplineSet
EndChar

StartChar: uni00F4
Encoding: 244 244 179
Width: 584
Flags: W
LayerCount: 2
Fore
SplineSet
162 627 m 1
 113 682 l 1
 251 808 l 1
 332 808 l 1
 471 682 l 1
 422 627 l 1
 292 715 l 1
 162 627 l 1
293 544 m 0
 449 544 541 438 541 265 c 0
 541 98 448 -15 292 -15 c 0
 136 -15 43 91 43 265 c 0
 43 431 136 544 293 544 c 0
293 447 m 0
 218 447 178 390 178 265 c 0
 178 138 217 82 292 82 c 0
 367 82 406 139 406 265 c 0
 406 391 367 447 293 447 c 0
EndSplineSet
EndChar

StartChar: uni00F5
Encoding: 245 245 180
Width: 584
Flags: W
LayerCount: 2
Fore
SplineSet
350 644 m 0
 322 644 301 655 282 669 c 0
 265 681 252 691 235 691 c 0
 211 691 198 675 182 646 c 1
 113 680 l 1
 137 737 177 784 233 784 c 0
 264 784 283 773 302 759 c 0
 319 747 333 738 349 738 c 0
 370 738 384 752 402 781 c 1
 470 747 l 1
 444 685 402 644 350 644 c 0
293 544 m 0
 449 544 541 438 541 265 c 0
 541 98 448 -15 292 -15 c 0
 136 -15 43 91 43 265 c 0
 43 431 136 544 293 544 c 0
293 447 m 0
 218 447 178 390 178 265 c 0
 178 138 217 82 292 82 c 0
 367 82 406 139 406 265 c 0
 406 391 367 447 293 447 c 0
EndSplineSet
EndChar

StartChar: uni00F6
Encoding: 246 246 181
Width: 584
Flags: W
LayerCount: 2
Fore
SplineSet
181 785 m 0
 220 785 250 755 250 716 c 0
 250 677 220 647 181 647 c 0
 141 647 110 677 110 716 c 0
 110 755 141 785 181 785 c 0
402 785 m 0
 442 785 472 755 472 716 c 0
 472 677 442 647 402 647 c 0
 363 647 332 677 332 716 c 0
 332 755 363 785 402 785 c 0
293 544 m 0
 449 544 541 438 541 265 c 0
 541 98 448 -15 292 -15 c 0
 136 -15 43 91 43 265 c 0
 43 431 136 544 293 544 c 0
293 447 m 0
 218 447 178 390 178 265 c 0
 178 138 217 82 292 82 c 0
 367 82 406 139 406 265 c 0
 406 391 367 447 293 447 c 0
EndSplineSet
EndChar

StartChar: uni00F7
Encoding: 247 247 182
Width: 510
Flags: W
LayerCount: 2
Fore
SplineSet
255 649 m 0
 301 649 336 613 336 568 c 0
 336 524 301 487 255 487 c 0
 210 487 175 524 175 568 c 0
 175 613 210 649 255 649 c 0
55 281 m 1
 55 383 l 1
 456 383 l 1
 456 281 l 1
 55 281 l 1
255 178 m 0
 301 178 336 142 336 98 c 0
 336 53 301 16 255 16 c 0
 210 16 175 53 175 98 c 0
 175 142 210 178 255 178 c 0
EndSplineSet
EndChar

StartChar: uni00F8
Encoding: 248 248 183
Width: 584
Flags: W
LayerCount: 2
Fore
SplineSet
428 509 m 1
 501 465 541 379 541 265 c 0
 541 98 448 -15 292 -15 c 0
 278 -15 264 -14 251 -12 c 1
 213 -133 l 1
 115 -104 l 1
 156 20 l 1
 84 65 43 150 43 265 c 0
 43 431 136 544 293 544 c 0
 307 544 321 543 334 541 c 1
 373 662 l 1
 470 633 l 1
 428 509 l 1
293 447 m 0
 214 447 171 390 171 265 c 0
 171 185 183 139 206 112 c 1
 317 446 l 1
 310 447 301 447 293 447 c 0
292 82 m 0
 370 82 413 139 413 265 c 0
 413 344 401 391 378 417 c 1
 268 83 l 1
 276 82 284 82 292 82 c 0
EndSplineSet
EndChar

StartChar: uni00F9
Encoding: 249 249 184
Width: 571
Flags: W
LayerCount: 2
Fore
SplineSet
214 820 m 1
 424 695 l 1
 387 630 l 1
 162 720 l 1
 214 820 l 1
496 529 m 1
 496 0 l 1
 385 0 l 1
 378 74 l 1
 339 14 289 -15 216 -15 c 0
 120 -15 69 47 69 149 c 2
 69 529 l 1
 197 529 l 1
 197 165 l 2
 197 103 217 82 261 82 c 0
 305 82 341 111 368 157 c 1
 368 529 l 1
 496 529 l 1
EndSplineSet
EndChar

StartChar: uni00FA
Encoding: 250 250 185
Width: 571
Flags: W
LayerCount: 2
Fore
SplineSet
359 820 m 1
 411 720 l 1
 185 630 l 1
 149 695 l 1
 359 820 l 1
496 529 m 1
 496 0 l 1
 385 0 l 1
 378 74 l 1
 339 14 289 -15 216 -15 c 0
 120 -15 69 47 69 149 c 2
 69 529 l 1
 197 529 l 1
 197 165 l 2
 197 103 217 82 261 82 c 0
 305 82 341 111 368 157 c 1
 368 529 l 1
 496 529 l 1
EndSplineSet
EndChar

StartChar: uni00FB
Encoding: 251 251 186
Width: 571
Flags: W
LayerCount: 2
Fore
SplineSet
153 627 m 1
 104 682 l 1
 242 808 l 1
 323 808 l 1
 462 682 l 1
 413 627 l 1
 283 715 l 1
 153 627 l 1
496 529 m 1
 496 0 l 1
 385 0 l 1
 378 74 l 1
 339 14 289 -15 216 -15 c 0
 120 -15 69 47 69 149 c 2
 69 529 l 1
 197 529 l 1
 197 165 l 2
 197 103 217 82 261 82 c 0
 305 82 341 111 368 157 c 1
 368 529 l 1
 496 529 l 1
EndSplineSet
EndChar

StartChar: uni00FC
Encoding: 252 252 187
Width: 571
Flags: W
LayerCount: 2
Fore
SplineSet
172 785 m 0
 211 785 241 755 241 716 c 0
 241 677 211 647 172 647 c 0
 132 647 101 677 101 716 c 0
 101 755 132 785 172 785 c 0
393 785 m 0
 433 785 463 755 463 716 c 0
 463 677 433 647 393 647 c 0
 354 647 323 677 323 716 c 0
 323 755 354 785 393 785 c 0
496 529 m 1
 496 0 l 1
 385 0 l 1
 378 74 l 1
 339 14 289 -15 216 -15 c 0
 120 -15 69 47 69 149 c 2
 69 529 l 1
 197 529 l 1
 197 165 l 2
 197 103 217 82 261 82 c 0
 305 82 341 111 368 157 c 1
 368 529 l 1
 496 529 l 1
EndSplineSet
EndChar

StartChar: uni00FD
Encoding: 253 253 188
Width: 506
Flags: W
LayerCount: 2
Fore
SplineSet
329 820 m 1
 381 720 l 1
 155 630 l 1
 119 695 l 1
 329 820 l 1
505 529 m 1
 333 -2 l 2
 293 -126 215 -206 58 -218 c 1
 45 -125 l 1
 150 -109 184 -75 214 0 c 1
 170 0 l 1
 2 529 l 1
 138 529 l 1
 253 85 l 1
 373 529 l 1
 505 529 l 1
EndSplineSet
EndChar

StartChar: uni00FE
Encoding: 254 254 189
Width: 589
Flags: W
LayerCount: 2
Fore
SplineSet
347 544 m 0
 487 544 545 435 545 266 c 0
 545 104 470 -15 336 -15 c 0
 282 -15 236 4 203 43 c 1
 203 -201 l 1
 75 -218 l 1
 75 741 l 1
 203 755 l 1
 203 473 l 1
 243 523 296 544 347 544 c 0
300 83 m 0
 370 83 411 137 411 265 c 0
 411 399 375 448 309 448 c 0
 265 448 228 417 203 376 c 1
 203 138 l 1
 228 101 260 83 300 83 c 0
EndSplineSet
EndChar

StartChar: uni00FF
Encoding: 255 255 190
Width: 506
Flags: W
LayerCount: 2
Fore
SplineSet
142 785 m 0
 181 785 211 755 211 716 c 0
 211 677 181 647 142 647 c 0
 102 647 71 677 71 716 c 0
 71 755 102 785 142 785 c 0
363 785 m 0
 403 785 433 755 433 716 c 0
 433 677 403 647 363 647 c 0
 324 647 293 677 293 716 c 0
 293 755 324 785 363 785 c 0
505 529 m 1
 333 -2 l 2
 293 -126 215 -206 58 -218 c 1
 45 -125 l 1
 150 -109 184 -75 214 0 c 1
 170 0 l 1
 2 529 l 1
 138 529 l 1
 253 85 l 1
 373 529 l 1
 505 529 l 1
EndSplineSet
EndChar

StartChar: uni0100
Encoding: 256 256 191
Width: 583
Flags: W
LayerCount: 2
Fore
SplineSet
437 787 m 1
 146 787 l 1
 146 878 l 1
 437 878 l 1
 437 787 l 1
447 0 m 1
 404 160 l 1
 175 160 l 1
 132 0 l 1
 -5 0 l 1
 210 691 l 1
 373 691 l 1
 587 0 l 1
 447 0 l 1
201 260 m 1
 378 260 l 1
 289 590 l 1
 201 260 l 1
EndSplineSet
EndChar

StartChar: uni0101
Encoding: 257 257 192
Width: 543
Flags: W
LayerCount: 2
Fore
SplineSet
408 661 m 1
 117 661 l 1
 117 752 l 1
 408 752 l 1
 408 661 l 1
465 140 m 2
 465 97 479 82 505 72 c 1
 478 -13 l 1
 419 -8 381 12 361 64 c 1
 323 8 266 -15 202 -15 c 0
 97 -15 32 52 32 148 c 0
 32 263 118 325 272 325 c 2
 339 325 l 1
 339 355 l 2
 339 424 308 447 240 447 c 0
 204 447 153 437 99 419 c 1
 70 506 l 1
 135 531 202 544 261 544 c 0
 403 544 465 479 465 362 c 2
 465 140 l 2
237 78 m 0
 281 78 315 101 339 143 c 1
 339 250 l 1
 286 250 l 2
 203 250 162 220 162 158 c 0
 162 107 188 78 237 78 c 0
EndSplineSet
EndChar

StartChar: uni0102
Encoding: 258 258 193
Width: 583
Flags: W
LayerCount: 2
Fore
SplineSet
291 754 m 0
 197 754 137 818 129 898 c 1
 204 913 l 1
 217 874 245 846 291 846 c 0
 337 846 367 874 379 913 c 1
 455 898 l 1
 447 818 385 754 291 754 c 0
447 0 m 1
 404 160 l 1
 175 160 l 1
 132 0 l 1
 -5 0 l 1
 210 691 l 1
 373 691 l 1
 587 0 l 1
 447 0 l 1
201 260 m 1
 377 260 l 1
 289 590 l 1
 201 260 l 1
EndSplineSet
EndChar

StartChar: uni0103
Encoding: 259 259 194
Width: 543
Flags: W
LayerCount: 2
Fore
SplineSet
262 637 m 0
 168 637 108 702 100 792 c 1
 175 806 l 1
 188 757 216 729 262 729 c 0
 308 729 338 757 350 806 c 1
 426 792 l 1
 418 702 356 637 262 637 c 0
465 140 m 2
 465 97 479 82 505 72 c 1
 478 -13 l 1
 419 -8 381 13 361 65 c 1
 323 8 266 -15 202 -15 c 0
 97 -15 32 52 32 148 c 0
 32 263 118 325 272 325 c 2
 339 325 l 1
 339 355 l 2
 339 424 308 447 240 447 c 0
 204 447 153 437 99 419 c 1
 70 506 l 1
 135 531 202 544 261 544 c 0
 403 544 465 479 465 362 c 2
 465 140 l 2
237 78 m 0
 282 78 315 101 339 143 c 1
 339 250 l 1
 286 250 l 2
 203 250 162 220 162 158 c 0
 162 107 188 78 237 78 c 0
EndSplineSet
EndChar

StartChar: uni0104
Encoding: 260 260 195
Width: 583
Flags: W
LayerCount: 2
Fore
SplineSet
524 0 m 1
 424 -40 403 -76 403 -108 c 0
 403 -138 420 -154 458 -154 c 0
 478 -154 495 -152 519 -147 c 1
 509 -232 l 1
 488 -236 468 -239 442 -239 c 0
 360 -239 305 -195 305 -130 c 0
 305 -61 354 -13 441 22 c 1
 404 160 l 1
 175 160 l 1
 132 0 l 1
 -5 0 l 1
 210 691 l 1
 373 691 l 1
 587 0 l 1
 524 0 l 1
201 260 m 1
 378 260 l 1
 289 590 l 1
 201 260 l 1
EndSplineSet
EndChar

StartChar: uni0105
Encoding: 261 261 196
Width: 543
Flags: W
LayerCount: 2
Fore
SplineSet
478 -13 m 1
 378 -53 357 -89 357 -121 c 0
 357 -151 374 -167 412 -167 c 0
 432 -167 449 -165 473 -160 c 1
 463 -245 l 1
 442 -249 422 -252 396 -252 c 0
 314 -252 259 -208 259 -143 c 0
 259 -73 310 -24 400 11 c 1
 383 23 370 40 361 64 c 1
 323 8 266 -15 202 -15 c 0
 97 -15 32 52 32 148 c 0
 32 263 118 325 272 325 c 2
 339 325 l 1
 339 355 l 2
 339 424 308 447 240 447 c 0
 204 447 153 437 99 419 c 1
 70 506 l 1
 135 531 202 544 261 544 c 0
 403 544 465 479 465 362 c 2
 465 140 l 2
 465 97 479 82 505 72 c 1
 478 -13 l 1
339 143 m 1
 339 250 l 1
 286 250 l 2
 203 250 162 220 162 158 c 0
 162 107 188 78 237 78 c 0
 281 78 315 101 339 143 c 1
EndSplineSet
EndChar

StartChar: uni0106
Encoding: 262 262 197
Width: 568
Flags: W
LayerCount: 2
Fore
SplineSet
432 936 m 1
 482 836 l 1
 253 753 l 1
 220 819 l 1
 432 936 l 1
345 706 m 0
 433 706 490 680 547 633 c 1
 480 555 l 1
 440 587 399 604 352 604 c 0
 256 604 182 534 182 347 c 0
 182 165 254 91 352 91 c 0
 412 91 453 117 493 147 c 1
 555 69 l 1
 513 26 441 -15 347 -15 c 0
 168 -15 43 112 43 347 c 0
 43 579 175 706 345 706 c 0
EndSplineSet
EndChar

StartChar: uni0107
Encoding: 263 263 198
Width: 478
Flags: W
LayerCount: 2
Fore
SplineSet
366 820 m 1
 418 720 l 1
 192 630 l 1
 156 695 l 1
 366 820 l 1
290 544 m 0
 359 544 412 525 462 482 c 1
 405 405 l 1
 370 431 338 443 298 443 c 0
 224 443 179 389 179 262 c 0
 179 134 226 89 298 89 c 0
 338 89 366 102 405 127 c 1
 462 46 l 1
 414 7 359 -15 291 -15 c 0
 138 -15 43 91 43 260 c 0
 43 429 138 544 290 544 c 0
EndSplineSet
EndChar

StartChar: uni010C
Encoding: 268 268 199
Width: 568
Flags: W
LayerCount: 2
Fore
SplineSet
481 928 m 1
 530 872 l 1
 391 752 l 1
 311 752 l 1
 172 872 l 1
 221 928 l 1
 351 845 l 1
 481 928 l 1
345 706 m 0
 433 706 490 680 547 633 c 1
 480 555 l 1
 440 587 399 604 352 604 c 0
 256 604 182 534 182 347 c 0
 182 165 254 91 352 91 c 0
 412 91 453 117 493 147 c 1
 555 69 l 1
 513 26 441 -15 347 -15 c 0
 168 -15 43 112 43 347 c 0
 43 579 175 706 345 706 c 0
EndSplineSet
EndChar

StartChar: uni010D
Encoding: 269 269 200
Width: 478
Flags: W
LayerCount: 2
Fore
SplineSet
420 800 m 1
 469 744 l 1
 330 619 l 1
 250 619 l 1
 111 744 l 1
 160 800 l 1
 290 712 l 1
 420 800 l 1
290 544 m 0
 359 544 412 525 462 482 c 1
 405 405 l 1
 370 431 338 443 298 443 c 0
 224 443 179 389 179 262 c 0
 179 134 226 89 298 89 c 0
 338 89 366 102 405 127 c 1
 462 46 l 1
 414 7 359 -15 291 -15 c 0
 138 -15 43 91 43 260 c 0
 43 429 138 544 290 544 c 0
EndSplineSet
EndChar

StartChar: uni010E
Encoding: 270 270 201
Width: 648
Flags: W
LayerCount: 2
Fore
SplineSet
429 928 m 1
 478 872 l 1
 339 752 l 1
 259 752 l 1
 120 872 l 1
 169 928 l 1
 299 845 l 1
 429 928 l 1
251 691 m 2
 433 691 605 635 605 349 c 0
 605 69 434 0 269 0 c 2
 81 0 l 1
 81 691 l 1
 251 691 l 2
274 592 m 2
 213 592 l 1
 213 99 l 1
 278 99 l 2
 381 99 466 145 466 349 c 0
 466 557 376 592 274 592 c 2
EndSplineSet
EndChar

StartChar: uni010F
Encoding: 271 271 202
Width: 646
Flags: W
LayerCount: 2
Fore
SplineSet
389 487 m 1
 389 755 l 1
 517 741 l 1
 517 0 l 1
 404 0 l 1
 395 67 l 1
 363 19 312 -15 244 -15 c 0
 112 -15 43 96 43 264 c 0
 43 427 125 544 256 544 c 0
 312 544 356 520 389 487 c 1
585 754 m 1
 688 740 l 1
 635 539 l 1
 563 550 l 1
 585 754 l 1
280 82 m 0
 327 82 359 105 389 150 c 1
 389 392 l 1
 361 426 331 448 288 448 c 0
 222 448 178 392 178 265 c 0
 178 129 217 82 280 82 c 0
EndSplineSet
EndChar

StartChar: uni0110
Encoding: 272 272 203
Width: 661
Flags: W
LayerCount: 2
Fore
SplineSet
264 691 m 2
 446 691 618 635 618 349 c 0
 618 69 447 0 282 0 c 2
 94 0 l 1
 94 310 l 1
 17 310 l 1
 17 396 l 1
 94 396 l 1
 94 691 l 1
 264 691 l 2
291 99 m 2
 394 99 479 145 479 349 c 0
 479 557 389 592 287 592 c 2
 226 592 l 1
 226 396 l 1
 371 396 l 1
 371 310 l 1
 226 310 l 1
 226 99 l 1
 291 99 l 2
EndSplineSet
EndChar

StartChar: uni0111
Encoding: 273 273 204
Width: 606
Flags: W
LayerCount: 2
Fore
SplineSet
517 683 m 1
 592 683 l 1
 592 601 l 1
 517 601 l 1
 517 0 l 1
 404 0 l 1
 395 67 l 1
 363 19 312 -15 244 -15 c 0
 112 -15 43 96 43 264 c 0
 43 427 125 544 256 544 c 0
 312 544 356 520 389 487 c 1
 389 601 l 1
 248 601 l 1
 248 683 l 1
 389 683 l 1
 389 755 l 1
 517 741 l 1
 517 683 l 1
280 82 m 0
 327 82 359 105 389 150 c 1
 389 392 l 1
 361 426 331 448 288 448 c 0
 222 448 178 392 178 265 c 0
 178 129 217 82 280 82 c 0
EndSplineSet
EndChar

StartChar: uni0112
Encoding: 274 274 205
Width: 530
Flags: W
LayerCount: 2
Fore
SplineSet
429 787 m 1
 138 787 l 1
 138 878 l 1
 429 878 l 1
 429 787 l 1
482 691 m 1
 468 593 l 1
 213 593 l 1
 213 400 l 1
 435 400 l 1
 435 302 l 1
 213 302 l 1
 213 99 l 1
 486 99 l 1
 486 0 l 1
 81 0 l 1
 81 691 l 1
 482 691 l 1
EndSplineSet
EndChar

StartChar: uni0113
Encoding: 275 275 206
Width: 549
Flags: W
LayerCount: 2
Fore
SplineSet
426 661 m 1
 135 661 l 1
 135 752 l 1
 426 752 l 1
 426 661 l 1
511 277 m 0
 511 260 509 239 508 225 c 1
 176 225 l 1
 186 117 236 82 306 82 c 0
 353 82 392 97 438 129 c 1
 491 56 l 1
 439 14 375 -15 295 -15 c 0
 131 -15 43 94 43 261 c 0
 43 422 128 544 278 544 c 0
 426 544 511 444 511 277 c 0
384 308 m 1
 384 314 l 2
 384 401 353 453 281 453 c 0
 221 453 183 413 176 308 c 1
 384 308 l 1
EndSplineSet
EndChar

StartChar: uni0116
Encoding: 278 278 207
Width: 530
Flags: W
LayerCount: 2
Fore
SplineSet
283 923 m 0
 331 923 364 889 364 845 c 0
 364 802 331 768 283 768 c 0
 236 768 203 802 203 845 c 0
 203 889 236 923 283 923 c 0
482 691 m 1
 468 593 l 1
 213 593 l 1
 213 400 l 1
 435 400 l 1
 435 302 l 1
 213 302 l 1
 213 99 l 1
 486 99 l 1
 486 0 l 1
 81 0 l 1
 81 691 l 1
 482 691 l 1
EndSplineSet
EndChar

StartChar: uni0117
Encoding: 279 279 208
Width: 549
Flags: W
LayerCount: 2
Fore
SplineSet
280 797 m 0
 328 797 361 763 361 719 c 0
 361 676 328 642 280 642 c 0
 233 642 200 676 200 719 c 0
 200 763 233 797 280 797 c 0
511 277 m 0
 511 260 509 239 508 225 c 1
 176 225 l 1
 186 117 236 82 306 82 c 0
 353 82 392 97 438 129 c 1
 491 56 l 1
 439 14 375 -15 295 -15 c 0
 131 -15 43 94 43 261 c 0
 43 422 128 544 278 544 c 0
 426 544 511 444 511 277 c 0
384 308 m 1
 384 314 l 2
 384 401 353 453 281 453 c 0
 221 453 183 413 176 308 c 1
 384 308 l 1
EndSplineSet
EndChar

StartChar: uni0118
Encoding: 280 280 209
Width: 530
Flags: W
LayerCount: 2
Fore
SplineSet
213 99 m 1
 486 99 l 1
 486 0 l 1
 446 0 l 1
 346 -40 325 -76 325 -108 c 0
 325 -138 342 -154 380 -154 c 0
 400 -154 417 -152 441 -147 c 1
 431 -232 l 1
 410 -236 390 -239 364 -239 c 0
 282 -239 227 -195 227 -130 c 0
 227 -74 259 -32 317 0 c 1
 81 0 l 1
 81 691 l 1
 482 691 l 1
 468 593 l 1
 213 593 l 1
 213 400 l 1
 435 400 l 1
 435 302 l 1
 213 302 l 1
 213 99 l 1
EndSplineSet
EndChar

StartChar: uni0119
Encoding: 281 281 210
Width: 549
Flags: W
LayerCount: 2
Fore
SplineSet
511 277 m 0
 511 260 509 239 508 225 c 1
 176 225 l 1
 186 117 236 82 306 82 c 0
 353 82 392 97 438 129 c 1
 491 56 l 1
 460 31 425 11 386 -1 c 1
 305 -38 288 -71 288 -100 c 0
 288 -130 304 -146 342 -146 c 0
 362 -146 380 -144 403 -139 c 1
 393 -224 l 1
 372 -228 353 -231 326 -231 c 0
 245 -231 189 -187 189 -122 c 0
 189 -75 217 -39 263 -14 c 1
 120 0 43 105 43 261 c 0
 43 422 128 544 278 544 c 0
 426 544 511 444 511 277 c 0
384 308 m 1
 384 314 l 2
 384 401 353 453 281 453 c 0
 221 453 183 413 176 308 c 1
 384 308 l 1
EndSplineSet
EndChar

StartChar: uni011A
Encoding: 282 282 211
Width: 530
Flags: W
LayerCount: 2
Fore
SplineSet
414 928 m 1
 463 872 l 1
 324 752 l 1
 244 752 l 1
 105 872 l 1
 154 928 l 1
 284 845 l 1
 414 928 l 1
482 691 m 1
 468 593 l 1
 213 593 l 1
 213 400 l 1
 435 400 l 1
 435 302 l 1
 213 302 l 1
 213 99 l 1
 486 99 l 1
 486 0 l 1
 81 0 l 1
 81 691 l 1
 482 691 l 1
EndSplineSet
EndChar

StartChar: uni011B
Encoding: 283 283 212
Width: 549
Flags: W
LayerCount: 2
Fore
SplineSet
321 619 m 1
 241 619 l 1
 102 744 l 1
 151 800 l 1
 281 712 l 1
 411 800 l 1
 460 744 l 1
 321 619 l 1
511 277 m 0
 511 260 509 239 508 225 c 1
 176 225 l 1
 185 117 236 82 306 82 c 0
 353 82 392 97 438 129 c 1
 491 56 l 1
 439 14 375 -15 295 -15 c 0
 131 -15 43 94 43 261 c 0
 43 422 128 544 278 544 c 0
 426 544 511 444 511 277 c 0
384 308 m 1
 384 314 l 2
 384 401 353 453 281 453 c 0
 221 453 183 413 176 308 c 1
 384 308 l 1
EndSplineSet
EndChar

StartChar: uni011E
Encoding: 286 286 213
Width: 638
Flags: W
LayerCount: 2
Fore
SplineSet
352 754 m 0
 258 754 198 818 190 898 c 1
 265 913 l 1
 278 874 306 846 352 846 c 0
 398 846 428 874 440 913 c 1
 516 898 l 1
 508 818 446 754 352 754 c 0
360 706 m 0
 456 706 522 674 580 625 c 1
 509 551 l 1
 462 588 423 606 364 606 c 0
 266 606 182 532 182 346 c 0
 182 157 238 86 346 86 c 0
 385 86 423 94 456 113 c 1
 456 293 l 1
 352 293 l 1
 338 391 l 1
 586 391 l 1
 586 53 l 1
 517 11 435 -15 348 -15 c 0
 151 -15 43 109 43 346 c 0
 43 580 187 706 360 706 c 0
EndSplineSet
EndChar

StartChar: uni011F
Encoding: 287 287 214
Width: 537
Flags: W
LayerCount: 2
Fore
SplineSet
267 637 m 0
 173 637 113 702 105 792 c 1
 180 806 l 1
 193 757 221 729 267 729 c 0
 313 729 343 757 355 806 c 1
 431 792 l 1
 423 702 361 637 267 637 c 0
505 603 m 1
 537 501 l 1
 497 487 447 483 384 483 c 1
 448 454 480 413 480 347 c 0
 480 244 400 169 267 169 c 0
 244 169 224 171 204 177 c 1
 191 168 182 154 182 138 c 0
 182 119 193 101 246 101 c 2
 327 101 l 2
 444 101 520 38 520 -49 c 0
 520 -155 429 -218 256 -218 c 0
 68 -218 15 -158 15 -52 c 1
 130 -52 l 1
 130 -105 153 -128 258 -128 c 0
 361 -128 391 -100 391 -58 c 0
 391 -19 360 5 301 5 c 2
 221 5 l 2
 115 5 70 52 70 107 c 0
 70 144 93 181 132 205 c 1
 67 239 39 286 39 354 c 0
 39 469 130 544 258 544 c 0
 383 541 441 569 505 603 c 1
260 457 m 0
 202 457 168 417 168 356 c 0
 168 292 203 252 262 252 c 0
 323 252 356 290 356 357 c 0
 356 424 324 457 260 457 c 0
EndSplineSet
EndChar

StartChar: uni0122
Encoding: 290 290 215
Width: 638
Flags: W
LayerCount: 2
Fore
SplineSet
360 706 m 0
 456 706 522 674 580 625 c 1
 509 551 l 1
 462 588 423 606 364 606 c 0
 266 606 182 532 182 346 c 0
 182 157 238 86 346 86 c 0
 385 86 423 94 456 113 c 1
 456 293 l 1
 352 293 l 1
 338 391 l 1
 586 391 l 1
 586 53 l 1
 517 11 435 -15 348 -15 c 0
 151 -15 43 109 43 346 c 0
 43 580 187 706 360 706 c 0
348 -72 m 0
 387 -72 417 -101 417 -140 c 0
 417 -162 410 -180 390 -221 c 2
 346 -312 l 1
 279 -312 l 1
 307 -196 l 1
 290 -183 278 -164 278 -140 c 0
 278 -102 308 -72 348 -72 c 0
EndSplineSet
EndChar

StartChar: uni0123
Encoding: 291 291 216
Width: 537
Flags: W
LayerCount: 2
Fore
SplineSet
267 580 m 0
 227 580 198 609 198 647 c 0
 198 669 205 687 224 728 c 2
 268 819 l 1
 335 819 l 1
 308 704 l 1
 324 690 336 672 336 647 c 0
 336 610 306 580 267 580 c 0
505 603 m 1
 537 501 l 1
 497 487 447 483 384 483 c 1
 448 454 480 413 480 347 c 0
 480 244 400 169 267 169 c 0
 244 169 224 171 204 177 c 1
 191 168 182 154 182 138 c 0
 182 119 193 101 246 101 c 2
 327 101 l 2
 444 101 520 38 520 -49 c 0
 520 -155 429 -218 256 -218 c 0
 68 -218 15 -158 15 -52 c 1
 130 -52 l 1
 130 -105 153 -128 258 -128 c 0
 361 -128 391 -100 391 -58 c 0
 391 -19 360 5 301 5 c 2
 221 5 l 2
 115 5 70 52 70 107 c 0
 70 144 93 181 132 205 c 1
 67 239 39 286 39 354 c 0
 39 469 130 544 258 544 c 0
 383 541 441 569 505 603 c 1
260 457 m 0
 202 457 168 417 168 356 c 0
 168 292 203 252 262 252 c 0
 323 252 356 290 356 357 c 0
 356 424 324 457 260 457 c 0
EndSplineSet
EndChar

StartChar: uni012A
Encoding: 298 298 217
Width: 294
Flags: W
LayerCount: 2
Fore
SplineSet
292 787 m 1
 1 787 l 1
 1 878 l 1
 292 878 l 1
 292 787 l 1
213 691 m 1
 213 0 l 1
 81 0 l 1
 81 691 l 1
 213 691 l 1
EndSplineSet
EndChar

StartChar: uni012B
Encoding: 299 299 218
Width: 278
Flags: W
LayerCount: 2
Fore
SplineSet
284 661 m 1
 -7 661 l 1
 -7 752 l 1
 284 752 l 1
 284 661 l 1
203 529 m 1
 203 0 l 1
 75 0 l 1
 75 529 l 1
 203 529 l 1
EndSplineSet
EndChar

StartChar: uni012E
Encoding: 302 302 219
Width: 294
Flags: W
LayerCount: 2
Fore
SplineSet
81 691 m 1
 213 691 l 1
 213 0 l 1
 198 0 l 1
 98 -40 77 -76 77 -108 c 0
 77 -138 94 -154 132 -154 c 0
 152 -154 169 -152 193 -147 c 1
 183 -232 l 1
 162 -236 142 -239 116 -239 c 0
 34 -239 -21 -195 -21 -130 c 0
 -21 -71 15 -27 81 6 c 1
 81 691 l 1
EndSplineSet
EndChar

StartChar: uni012F
Encoding: 303 303 220
Width: 278
Flags: W
LayerCount: 2
Fore
SplineSet
138 642 m 0
 91 642 58 676 58 719 c 0
 58 763 91 797 138 797 c 0
 186 797 219 763 219 719 c 0
 219 676 186 642 138 642 c 0
75 7 m 1
 75 529 l 1
 203 529 l 1
 203 0 l 1
 190 0 l 1
 90 -40 69 -76 69 -108 c 0
 69 -138 86 -154 124 -154 c 0
 144 -154 161 -152 185 -147 c 1
 175 -232 l 1
 154 -236 134 -239 108 -239 c 0
 26 -239 -29 -195 -29 -130 c 0
 -29 -70 8 -26 75 7 c 1
EndSplineSet
EndChar

StartChar: uni0130
Encoding: 304 304 221
Width: 294
Flags: W
LayerCount: 2
Fore
SplineSet
146 923 m 0
 194 923 227 889 227 845 c 0
 227 802 194 768 146 768 c 0
 99 768 66 802 66 845 c 0
 66 889 99 923 146 923 c 0
213 691 m 1
 213 0 l 1
 81 0 l 1
 81 691 l 1
 213 691 l 1
EndSplineSet
EndChar

StartChar: uni0131
Encoding: 305 305 222
Width: 278
Flags: W
LayerCount: 2
Fore
SplineSet
203 529 m 1
 203 0 l 1
 75 0 l 1
 75 529 l 1
 203 529 l 1
EndSplineSet
EndChar

StartChar: uni0136
Encoding: 310 310 223
Width: 613
Flags: W
LayerCount: 2
Fore
SplineSet
213 691 m 1
 213 0 l 1
 81 0 l 1
 81 691 l 1
 213 691 l 1
601 691 m 1
 362 378 l 1
 620 0 l 1
 463 0 l 1
 219 369 l 1
 458 691 l 1
 601 691 l 1
322 -72 m 0
 361 -72 391 -101 391 -140 c 0
 391 -162 384 -180 364 -221 c 2
 320 -312 l 1
 253 -312 l 1
 281 -196 l 1
 264 -183 252 -164 252 -140 c 0
 252 -102 282 -72 322 -72 c 0
EndSplineSet
EndChar

StartChar: uni0137
Encoding: 311 311 224
Width: 532
Flags: W
LayerCount: 2
Fore
SplineSet
203 755 m 1
 203 0 l 1
 75 0 l 1
 75 741 l 1
 203 755 l 1
520 529 m 1
 344 296 l 1
 537 0 l 1
 390 0 l 1
 208 289 l 1
 385 529 l 1
 520 529 l 1
266 -72 m 0
 305 -72 335 -101 335 -140 c 0
 335 -162 328 -180 308 -221 c 2
 264 -312 l 1
 197 -312 l 1
 225 -196 l 1
 208 -183 196 -164 196 -140 c 0
 196 -102 226 -72 266 -72 c 0
EndSplineSet
EndChar

StartChar: uni0139
Encoding: 313 313 225
Width: 506
Flags: W
LayerCount: 2
Fore
SplineSet
228 936 m 1
 278 836 l 1
 49 753 l 1
 16 819 l 1
 228 936 l 1
213 691 m 1
 213 108 l 1
 490 108 l 1
 475 0 l 1
 81 0 l 1
 81 691 l 1
 213 691 l 1
EndSplineSet
EndChar

StartChar: uni013A
Encoding: 314 314 226
Width: 297
Flags: W
LayerCount: 2
Fore
SplineSet
214 985 m 1
 264 885 l 1
 35 802 l 1
 2 868 l 1
 214 985 l 1
198 -15 m 0
 117 -15 69 34 69 121 c 2
 69 741 l 1
 197 755 l 1
 197 125 l 2
 197 100 205 88 227 88 c 0
 238 88 248 90 256 93 c 1
 284 3 l 1
 262 -7 231 -15 198 -15 c 0
EndSplineSet
EndChar

StartChar: uni013B
Encoding: 315 315 227
Width: 506
Flags: W
LayerCount: 2
Fore
SplineSet
213 691 m 1
 213 108 l 1
 490 108 l 1
 475 0 l 1
 81 0 l 1
 81 691 l 1
 213 691 l 1
280 -72 m 0
 319 -72 349 -101 349 -140 c 0
 349 -162 342 -180 322 -221 c 2
 278 -312 l 1
 211 -312 l 1
 239 -196 l 1
 222 -183 210 -164 210 -140 c 0
 210 -102 240 -72 280 -72 c 0
EndSplineSet
EndChar

StartChar: uni013C
Encoding: 316 316 228
Width: 297
Flags: W
LayerCount: 2
Fore
SplineSet
198 -15 m 0
 117 -15 69 34 69 121 c 2
 69 741 l 1
 197 755 l 1
 197 125 l 2
 197 100 205 88 227 88 c 0
 238 88 248 90 256 93 c 1
 284 3 l 1
 262 -7 231 -15 198 -15 c 0
180 -72 m 0
 219 -72 249 -101 249 -140 c 0
 249 -162 242 -180 222 -221 c 2
 178 -312 l 1
 111 -312 l 1
 139 -196 l 1
 122 -183 110 -164 110 -140 c 0
 110 -102 140 -72 180 -72 c 0
EndSplineSet
EndChar

StartChar: uni013D
Encoding: 317 317 229
Width: 506
Flags: W
LayerCount: 2
Fore
SplineSet
333 490 m 1
 386 691 l 1
 283 705 l 1
 261 501 l 1
 333 490 l 1
213 691 m 1
 213 108 l 1
 490 108 l 1
 475 0 l 1
 81 0 l 1
 81 691 l 1
 213 691 l 1
EndSplineSet
EndChar

StartChar: uni013E
Encoding: 318 318 230
Width: 335
Flags: W
LayerCount: 2
Fore
SplineSet
198 -15 m 0
 117 -15 69 34 69 121 c 2
 69 741 l 1
 197 755 l 1
 197 125 l 2
 197 100 205 88 227 88 c 0
 238 88 248 90 256 93 c 1
 284 3 l 1
 262 -7 231 -15 198 -15 c 0
311 539 m 1
 364 740 l 1
 261 754 l 1
 239 550 l 1
 311 539 l 1
EndSplineSet
EndChar

StartChar: uni0141
Encoding: 321 321 231
Width: 535
Flags: W
LayerCount: 2
Fore
SplineSet
242 108 m 1
 518 108 l 1
 504 0 l 1
 110 0 l 1
 110 239 l 1
 61 209 l 1
 15 284 l 1
 110 342 l 1
 110 691 l 1
 242 691 l 1
 242 424 l 1
 385 513 l 1
 431 438 l 1
 242 321 l 1
 242 108 l 1
EndSplineSet
EndChar

StartChar: uni0142
Encoding: 322 322 232
Width: 337
Flags: W
LayerCount: 2
Fore
SplineSet
245 88 m 0
 256 88 266 90 274 93 c 1
 302 3 l 1
 280 -7 250 -15 217 -15 c 0
 136 -15 87 34 87 121 c 2
 87 281 l 1
 44 255 l 1
 0 328 l 1
 87 383 l 1
 87 741 l 1
 215 755 l 1
 215 460 l 1
 296 509 l 1
 339 435 l 1
 215 359 l 1
 215 125 l 2
 215 100 224 88 245 88 c 0
EndSplineSet
EndChar

StartChar: uni0143
Encoding: 323 323 233
Width: 672
Flags: W
LayerCount: 2
Fore
SplineSet
425 936 m 1
 475 836 l 1
 246 753 l 1
 213 819 l 1
 425 936 l 1
591 691 m 1
 591 0 l 1
 420 0 l 1
 183 559 l 1
 190 498 201 410 201 282 c 2
 201 0 l 1
 81 0 l 1
 81 691 l 1
 248 691 l 1
 489 131 l 1
 483 169 471 269 471 367 c 2
 471 691 l 1
 591 691 l 1
EndSplineSet
EndChar

StartChar: uni0144
Encoding: 324 324 234
Width: 576
Flags: W
LayerCount: 2
Fore
SplineSet
421 720 m 1
 195 630 l 1
 159 695 l 1
 369 820 l 1
 421 720 l 1
357 544 m 0
 452 544 507 484 507 383 c 2
 507 0 l 1
 379 0 l 1
 379 363 l 2
 379 429 354 448 314 448 c 0
 268 448 234 417 203 368 c 1
 203 0 l 1
 75 0 l 1
 75 529 l 1
 186 529 l 1
 196 460 l 1
 237 513 290 544 357 544 c 0
EndSplineSet
EndChar

StartChar: uni0145
Encoding: 325 325 235
Width: 672
Flags: W
LayerCount: 2
Fore
SplineSet
591 691 m 1
 591 0 l 1
 420 0 l 1
 183 559 l 1
 190 498 201 410 201 282 c 2
 201 0 l 1
 81 0 l 1
 81 691 l 1
 248 691 l 1
 489 131 l 1
 483 169 471 269 471 367 c 2
 471 691 l 1
 591 691 l 1
339 -72 m 0
 378 -72 408 -101 408 -140 c 0
 408 -162 401 -180 381 -221 c 2
 337 -312 l 1
 270 -312 l 1
 298 -196 l 1
 281 -183 269 -164 269 -140 c 0
 269 -102 299 -72 339 -72 c 0
EndSplineSet
EndChar

StartChar: uni0146
Encoding: 326 326 236
Width: 576
Flags: W
LayerCount: 2
Fore
SplineSet
357 544 m 0
 452 544 507 484 507 383 c 2
 507 0 l 1
 379 0 l 1
 379 363 l 2
 379 429 354 448 314 448 c 0
 268 448 234 417 203 368 c 1
 203 0 l 1
 75 0 l 1
 75 529 l 1
 186 529 l 1
 196 460 l 1
 237 513 290 544 357 544 c 0
291 -72 m 0
 330 -72 360 -101 360 -140 c 0
 360 -162 353 -180 333 -221 c 2
 289 -312 l 1
 222 -312 l 1
 250 -196 l 1
 233 -183 221 -164 221 -140 c 0
 221 -102 251 -72 291 -72 c 0
EndSplineSet
EndChar

StartChar: uni0147
Encoding: 327 327 237
Width: 672
Flags: W
LayerCount: 2
Fore
SplineSet
474 928 m 1
 523 872 l 1
 384 752 l 1
 304 752 l 1
 165 872 l 1
 214 928 l 1
 344 845 l 1
 474 928 l 1
591 691 m 1
 591 0 l 1
 420 0 l 1
 183 559 l 1
 190 498 201 410 201 282 c 2
 201 0 l 1
 81 0 l 1
 81 691 l 1
 248 691 l 1
 489 131 l 1
 483 169 471 269 471 367 c 2
 471 691 l 1
 591 691 l 1
EndSplineSet
EndChar

StartChar: uni0148
Encoding: 328 328 238
Width: 576
Flags: W
LayerCount: 2
Fore
SplineSet
334 619 m 1
 254 619 l 1
 115 744 l 1
 164 800 l 1
 294 712 l 1
 424 800 l 1
 473 744 l 1
 334 619 l 1
357 544 m 0
 452 544 507 484 507 383 c 2
 507 0 l 1
 379 0 l 1
 379 363 l 2
 379 429 354 448 314 448 c 0
 268 448 234 417 203 368 c 1
 203 0 l 1
 75 0 l 1
 75 529 l 1
 186 529 l 1
 196 460 l 1
 237 513 290 544 357 544 c 0
EndSplineSet
EndChar

StartChar: uni014C
Encoding: 332 332 239
Width: 691
Flags: W
LayerCount: 2
Fore
SplineSet
491 787 m 1
 200 787 l 1
 200 878 l 1
 491 878 l 1
 491 787 l 1
346 706 m 0
 531 706 648 577 648 346 c 0
 648 118 531 -15 346 -15 c 0
 161 -15 43 114 43 345 c 0
 43 572 161 706 346 706 c 0
346 605 m 0
 243 605 182 531 182 345 c 0
 182 159 245 86 346 86 c 0
 449 86 509 159 509 346 c 0
 509 531 450 605 346 605 c 0
EndSplineSet
EndChar

StartChar: uni014D
Encoding: 333 333 240
Width: 584
Flags: W
LayerCount: 2
Fore
SplineSet
437 661 m 1
 146 661 l 1
 146 752 l 1
 437 752 l 1
 437 661 l 1
293 544 m 0
 449 544 541 438 541 265 c 0
 541 98 448 -15 292 -15 c 0
 136 -15 43 91 43 265 c 0
 43 431 136 544 293 544 c 0
293 447 m 0
 218 447 178 390 178 265 c 0
 178 138 217 82 292 82 c 0
 367 82 406 139 406 265 c 0
 406 391 367 447 293 447 c 0
EndSplineSet
EndChar

StartChar: uni0150
Encoding: 336 336 241
Width: 691
Flags: W
LayerCount: 2
Fore
SplineSet
322 941 m 1
 405 890 l 1
 281 737 l 1
 222 771 l 1
 322 941 l 1
484 933 m 1
 565 876 l 1
 432 731 l 1
 376 768 l 1
 484 933 l 1
346 706 m 0
 531 706 648 577 648 346 c 0
 648 118 531 -15 346 -15 c 0
 161 -15 43 114 43 345 c 0
 43 572 161 706 346 706 c 0
346 605 m 0
 243 605 182 531 182 345 c 0
 182 159 245 86 346 86 c 0
 449 86 509 159 509 346 c 0
 509 531 450 605 346 605 c 0
EndSplineSet
EndChar

StartChar: uni0151
Encoding: 337 337 242
Width: 584
Flags: W
LayerCount: 2
Fore
SplineSet
286 813 m 1
 369 762 l 1
 245 599 l 1
 186 633 l 1
 286 813 l 1
448 805 m 1
 529 748 l 1
 396 593 l 1
 340 630 l 1
 448 805 l 1
293 544 m 0
 449 544 541 438 541 265 c 0
 541 98 448 -15 292 -15 c 0
 136 -15 43 91 43 265 c 0
 43 431 136 544 293 544 c 0
293 447 m 0
 218 447 178 390 178 265 c 0
 178 138 217 82 292 82 c 0
 367 82 406 139 406 265 c 0
 406 391 367 447 293 447 c 0
EndSplineSet
EndChar

StartChar: uni0152
Encoding: 338 338 243
Width: 901
Flags: W
LayerCount: 2
Fore
SplineSet
857 99 m 1
 857 0 l 1
 416 0 l 1
 390 -10 361 -15 331 -15 c 0
 161 -15 43 114 43 345 c 0
 43 572 161 706 331 706 c 0
 363 706 393 701 420 691 c 1
 854 691 l 1
 839 593 l 1
 551 593 l 1
 593 544 618 477 625 400 c 1
 807 400 l 1
 807 302 l 1
 626 302 l 1
 619 222 592 151 546 99 c 1
 857 99 l 1
182 345 m 0
 182 159 245 86 336 86 c 0
 429 86 489 159 489 346 c 0
 489 531 430 605 336 605 c 0
 243 605 182 531 182 345 c 0
EndSplineSet
EndChar

StartChar: uni0153
Encoding: 339 339 244
Width: 912
Flags: W
LayerCount: 2
Fore
SplineSet
873 277 m 0
 873 260 871 239 870 225 c 1
 539 225 l 1
 548 117 598 82 668 82 c 0
 716 82 754 97 800 129 c 1
 853 56 l 1
 801 14 737 -15 657 -15 c 0
 571 -15 512 19 472 77 c 1
 431 19 373 -15 292 -15 c 0
 135 -15 43 91 43 265 c 0
 43 431 136 544 292 544 c 0
 373 544 432 512 473 455 c 1
 512 510 568 544 644 544 c 0
 788 544 873 444 873 277 c 0
747 308 m 1
 747 314 l 2
 746 401 715 453 647 453 c 0
 583 453 546 413 538 308 c 1
 747 308 l 1
292 82 m 0
 366 82 406 139 406 265 c 0
 406 390 366 447 292 447 c 0
 218 447 178 390 178 265 c 0
 178 138 217 82 292 82 c 0
EndSplineSet
EndChar

StartChar: uni0154
Encoding: 340 340 245
Width: 611
Flags: W
LayerCount: 2
Fore
SplineSet
431 836 m 1
 202 753 l 1
 169 819 l 1
 381 936 l 1
 431 836 l 1
450 0 m 1
 297 277 l 1
 213 277 l 1
 213 0 l 1
 81 0 l 1
 81 691 l 1
 287 691 l 2
 468 691 561 625 561 488 c 0
 561 394 515 338 421 301 c 1
 602 0 l 1
 450 0 l 1
213 595 m 1
 213 372 l 1
 295 372 l 2
 377 372 423 405 423 488 c 0
 423 563 380 595 284 595 c 2
 213 595 l 1
EndSplineSet
EndChar

StartChar: uni0155
Encoding: 341 341 246
Width: 392
Flags: W
LayerCount: 2
Fore
SplineSet
361 720 m 1
 135 630 l 1
 99 695 l 1
 309 820 l 1
 361 720 l 1
336 543 m 0
 355 543 372 541 389 536 c 1
 367 412 l 1
 351 416 339 418 320 418 c 0
 256 418 223 371 203 282 c 1
 203 0 l 1
 75 0 l 1
 75 529 l 1
 186 529 l 1
 198 425 l 1
 223 501 274 543 336 543 c 0
EndSplineSet
EndChar

StartChar: uni0156
Encoding: 342 342 247
Width: 611
Flags: W
LayerCount: 2
Fore
SplineSet
421 301 m 1
 602 0 l 1
 450 0 l 1
 297 277 l 1
 213 277 l 1
 213 0 l 1
 81 0 l 1
 81 691 l 1
 287 691 l 2
 468 691 561 625 561 488 c 0
 561 394 515 338 421 301 c 1
213 595 m 1
 213 372 l 1
 295 372 l 2
 377 372 423 405 423 488 c 0
 423 563 380 595 284 595 c 2
 213 595 l 1
312 -72 m 0
 351 -72 381 -101 381 -140 c 0
 381 -162 374 -180 354 -221 c 2
 310 -312 l 1
 243 -312 l 1
 271 -196 l 1
 254 -183 242 -164 242 -140 c 0
 242 -102 272 -72 312 -72 c 0
EndSplineSet
EndChar

StartChar: uni0157
Encoding: 343 343 248
Width: 392
Flags: W
LayerCount: 2
Fore
SplineSet
336 543 m 0
 355 543 372 541 389 536 c 1
 367 412 l 1
 351 416 339 418 320 418 c 0
 256 418 223 371 203 282 c 1
 203 0 l 1
 75 0 l 1
 75 529 l 1
 186 529 l 1
 198 425 l 1
 223 501 274 543 336 543 c 0
141 -72 m 0
 180 -72 210 -101 210 -140 c 0
 210 -162 203 -180 183 -221 c 2
 139 -312 l 1
 72 -312 l 1
 100 -196 l 1
 83 -183 71 -164 71 -140 c 0
 71 -102 101 -72 141 -72 c 0
EndSplineSet
EndChar

StartChar: uni0158
Encoding: 344 344 249
Width: 611
Flags: W
LayerCount: 2
Fore
SplineSet
340 752 m 1
 260 752 l 1
 121 872 l 1
 170 928 l 1
 300 845 l 1
 430 928 l 1
 479 872 l 1
 340 752 l 1
450 0 m 1
 297 277 l 1
 213 277 l 1
 213 0 l 1
 81 0 l 1
 81 691 l 1
 287 691 l 2
 468 691 561 625 561 488 c 0
 561 394 515 338 421 301 c 1
 602 0 l 1
 450 0 l 1
213 595 m 1
 213 372 l 1
 295 372 l 2
 377 372 423 405 423 488 c 0
 423 563 380 595 284 595 c 2
 213 595 l 1
EndSplineSet
EndChar

StartChar: uni0159
Encoding: 345 345 250
Width: 392
Flags: W
LayerCount: 2
Fore
SplineSet
274 619 m 1
 194 619 l 1
 55 744 l 1
 104 800 l 1
 234 712 l 1
 364 800 l 1
 413 744 l 1
 274 619 l 1
198 425 m 1
 223 501 274 543 336 543 c 0
 355 543 372 541 389 536 c 1
 367 412 l 1
 351 416 339 418 320 418 c 0
 256 418 223 371 203 282 c 1
 203 0 l 1
 75 0 l 1
 75 529 l 1
 186 529 l 1
 198 425 l 1
EndSplineSet
EndChar

StartChar: uni015A
Encoding: 346 346 251
Width: 560
Flags: W
LayerCount: 2
Fore
SplineSet
368 936 m 1
 418 836 l 1
 189 753 l 1
 156 819 l 1
 368 936 l 1
280 706 m 0
 381 706 448 676 508 621 c 1
 443 546 l 1
 393 587 345 605 288 605 c 0
 226 605 181 577 181 523 c 0
 181 473 208 451 323 415 c 0
 444 377 528 327 528 197 c 0
 528 73 431 -15 266 -15 c 0
 156 -15 74 24 17 80 c 1
 85 156 l 1
 136 113 191 87 263 87 c 0
 337 87 390 123 390 190 c 0
 390 248 361 274 253 307 c 0
 108 352 45 410 45 515 c 0
 45 630 144 706 280 706 c 0
EndSplineSet
EndChar

StartChar: uni015B
Encoding: 347 347 252
Width: 474
Flags: W
LayerCount: 2
Fore
SplineSet
323 820 m 1
 375 720 l 1
 149 630 l 1
 113 695 l 1
 323 820 l 1
244 544 m 0
 320 544 382 520 432 481 c 1
 382 406 l 1
 338 434 296 449 249 449 c 0
 198 449 169 428 169 396 c 0
 169 361 190 345 280 320 c 0
 388 291 449 247 449 153 c 0
 449 43 347 -15 226 -15 c 0
 135 -15 64 16 15 60 c 1
 79 132 l 1
 120 101 169 80 223 80 c 0
 280 80 317 104 317 144 c 0
 317 188 296 202 197 230 c 0
 88 260 40 312 40 390 c 0
 40 478 121 544 244 544 c 0
EndSplineSet
EndChar

StartChar: uni015E
Encoding: 350 350 253
Width: 560
Flags: W
LayerCount: 2
Fore
SplineSet
528 197 m 0
 528 85 449 2 312 -13 c 1
 312 -52 l 1
 382 -59 411 -96 411 -144 c 0
 411 -211 354 -253 274 -253 c 0
 231 -253 194 -241 171 -225 c 1
 202 -162 l 1
 221 -172 240 -178 265 -178 c 0
 293 -178 314 -169 314 -144 c 0
 314 -118 287 -106 223 -106 c 1
 234 -14 l 1
 140 -7 68 30 17 80 c 1
 85 156 l 1
 136 113 191 87 263 87 c 0
 337 87 390 123 390 190 c 0
 390 248 361 274 253 307 c 0
 108 352 45 410 45 515 c 0
 45 630 144 706 280 706 c 0
 381 706 448 676 508 621 c 1
 443 546 l 1
 393 587 345 605 288 605 c 0
 226 605 181 577 181 523 c 0
 181 473 208 451 323 415 c 0
 444 377 528 327 528 197 c 0
EndSplineSet
EndChar

StartChar: uni015F
Encoding: 351 351 254
Width: 474
Flags: W
LayerCount: 2
Fore
SplineSet
449 153 m 0
 449 58 372 1 273 -12 c 1
 273 -52 l 1
 343 -59 372 -96 372 -144 c 0
 372 -211 315 -253 235 -253 c 0
 192 -253 155 -241 132 -225 c 1
 163 -162 l 1
 182 -172 201 -178 226 -178 c 0
 254 -178 275 -169 275 -144 c 0
 275 -118 248 -106 184 -106 c 1
 195 -14 l 1
 119 -8 58 21 15 60 c 1
 79 132 l 1
 120 101 169 80 223 80 c 0
 280 80 317 104 317 144 c 0
 317 188 296 202 197 230 c 0
 88 260 40 312 40 390 c 0
 40 478 121 544 244 544 c 0
 320 544 382 520 432 481 c 1
 382 406 l 1
 338 434 296 449 249 449 c 0
 198 449 169 428 169 396 c 0
 169 361 190 345 280 320 c 0
 388 291 449 247 449 153 c 0
EndSplineSet
EndChar

StartChar: uni0160
Encoding: 352 352 255
Width: 560
Flags: W
LayerCount: 2
Fore
SplineSet
417 928 m 1
 466 872 l 1
 327 752 l 1
 247 752 l 1
 108 872 l 1
 157 928 l 1
 287 845 l 1
 417 928 l 1
280 706 m 0
 381 706 448 676 508 621 c 1
 443 546 l 1
 393 587 345 605 288 605 c 0
 226 605 181 577 181 523 c 0
 181 473 208 451 323 415 c 0
 444 377 528 327 528 197 c 0
 528 73 431 -15 266 -15 c 0
 156 -15 74 24 17 80 c 1
 85 156 l 1
 136 113 191 87 263 87 c 0
 337 87 390 123 390 190 c 0
 390 248 361 274 253 307 c 0
 108 352 45 410 45 515 c 0
 45 630 144 706 280 706 c 0
EndSplineSet
EndChar

StartChar: uni0161
Encoding: 353 353 256
Width: 474
Flags: W
LayerCount: 2
Fore
SplineSet
377 800 m 1
 426 744 l 1
 287 619 l 1
 207 619 l 1
 68 744 l 1
 117 800 l 1
 247 712 l 1
 377 800 l 1
244 544 m 0
 320 544 382 520 432 481 c 1
 382 406 l 1
 338 434 296 449 249 449 c 0
 198 449 169 428 169 396 c 0
 169 361 190 345 280 320 c 0
 388 291 449 247 449 153 c 0
 449 43 347 -15 226 -15 c 0
 135 -15 64 16 15 60 c 1
 79 132 l 1
 120 101 169 80 223 80 c 0
 280 80 317 104 317 144 c 0
 317 188 296 202 197 230 c 0
 88 260 40 312 40 390 c 0
 40 478 121 544 244 544 c 0
EndSplineSet
EndChar

StartChar: uni0162
Encoding: 354 354 257
Width: 530
Flags: W
LayerCount: 2
Fore
SplineSet
331 -52 m 1
 401 -59 432 -96 432 -144 c 0
 432 -211 374 -253 292 -253 c 0
 250 -253 214 -241 192 -225 c 1
 223 -162 l 1
 242 -172 260 -178 283 -178 c 0
 313 -178 335 -169 335 -143 c 0
 335 -118 308 -106 244 -106 c 1
 257 0 l 1
 198 0 l 1
 198 586 l 1
 12 586 l 1
 12 691 l 1
 525 691 l 1
 511 586 l 1
 331 586 l 1
 331 -52 l 1
EndSplineSet
EndChar

StartChar: uni0163
Encoding: 355 355 258
Width: 375
Flags: W
LayerCount: 2
Fore
SplineSet
269 -52 m 1
 339 -59 368 -96 368 -144 c 0
 368 -211 311 -253 231 -253 c 0
 188 -253 151 -241 128 -225 c 1
 159 -162 l 1
 178 -172 197 -178 222 -178 c 0
 250 -178 271 -169 271 -144 c 0
 271 -118 244 -106 180 -106 c 1
 192 -8 l 1
 124 11 88 67 88 158 c 2
 88 437 l 1
 5 437 l 1
 5 529 l 1
 88 529 l 1
 88 646 l 1
 216 661 l 1
 216 529 l 1
 339 529 l 1
 326 437 l 1
 216 437 l 1
 216 161 l 2
 216 109 233 88 272 88 c 0
 292 88 312 94 335 107 c 1
 380 25 l 1
 348 2 309 -11 269 -14 c 1
 269 -52 l 1
EndSplineSet
EndChar

StartChar: uni0164
Encoding: 356 356 259
Width: 530
Flags: W
LayerCount: 2
Fore
SplineSet
395 928 m 1
 444 872 l 1
 305 752 l 1
 225 752 l 1
 86 872 l 1
 135 928 l 1
 265 845 l 1
 395 928 l 1
525 691 m 1
 511 586 l 1
 331 586 l 1
 331 0 l 1
 198 0 l 1
 198 586 l 1
 12 586 l 1
 12 691 l 1
 525 691 l 1
EndSplineSet
EndChar

StartChar: uni0165
Encoding: 357 357 260
Width: 375
Flags: W
LayerCount: 2
Fore
SplineSet
366 765 m 1
 313 564 l 1
 242 575 l 1
 263 779 l 1
 366 765 l 1
335 107 m 1
 380 25 l 1
 342 -2 294 -15 247 -15 c 0
 143 -14 88 45 88 158 c 2
 88 437 l 1
 5 437 l 1
 5 529 l 1
 88 529 l 1
 88 646 l 1
 216 661 l 1
 216 529 l 1
 339 529 l 1
 326 437 l 1
 216 437 l 1
 216 161 l 2
 216 109 233 88 272 88 c 0
 292 88 312 94 335 107 c 1
EndSplineSet
EndChar

StartChar: uni016A
Encoding: 362 362 261
Width: 656
Flags: W
LayerCount: 2
Fore
SplineSet
473 787 m 1
 182 787 l 1
 182 878 l 1
 473 878 l 1
 473 787 l 1
585 691 m 1
 585 226 l 2
 585 87 496 -15 327 -15 c 0
 157 -15 71 84 71 226 c 2
 71 691 l 1
 203 691 l 1
 203 233 l 2
 203 136 242 88 327 88 c 0
 413 88 452 136 452 233 c 2
 452 691 l 1
 585 691 l 1
EndSplineSet
EndChar

StartChar: uni016B
Encoding: 363 363 262
Width: 571
Flags: W
LayerCount: 2
Fore
SplineSet
428 661 m 1
 137 661 l 1
 137 752 l 1
 428 752 l 1
 428 661 l 1
496 529 m 1
 496 0 l 1
 385 0 l 1
 378 74 l 1
 339 14 289 -15 216 -15 c 0
 120 -15 69 47 69 149 c 2
 69 529 l 1
 197 529 l 1
 197 165 l 2
 197 103 217 82 261 82 c 0
 305 82 341 111 368 157 c 1
 368 529 l 1
 496 529 l 1
EndSplineSet
EndChar

StartChar: uni016E
Encoding: 366 366 263
Width: 656
Flags: W
LayerCount: 2
Fore
SplineSet
328 979 m 0
 405 979 455 925 455 859 c 0
 455 794 405 739 328 739 c 0
 250 739 200 794 200 859 c 0
 200 925 250 979 328 979 c 0
328 912 m 0
 298 912 279 893 279 859 c 0
 279 825 298 807 328 807 c 0
 357 807 376 825 376 859 c 0
 376 893 357 912 328 912 c 0
585 691 m 1
 585 226 l 2
 585 87 496 -15 327 -15 c 0
 157 -15 71 84 71 226 c 2
 71 691 l 1
 203 691 l 1
 203 233 l 2
 203 136 242 88 327 88 c 0
 413 88 452 136 452 233 c 2
 452 691 l 1
 585 691 l 1
EndSplineSet
EndChar

StartChar: uni016F
Encoding: 367 367 264
Width: 571
Flags: W
LayerCount: 2
Fore
SplineSet
283 853 m 0
 360 853 410 799 410 733 c 0
 410 668 360 613 283 613 c 0
 205 613 155 668 155 733 c 0
 155 799 205 853 283 853 c 0
283 786 m 0
 253 786 234 767 234 733 c 0
 234 699 253 681 283 681 c 0
 312 681 331 699 331 733 c 0
 331 767 312 786 283 786 c 0
496 529 m 1
 496 0 l 1
 385 0 l 1
 378 74 l 1
 339 14 289 -15 216 -15 c 0
 120 -15 69 47 69 149 c 2
 69 529 l 1
 197 529 l 1
 197 165 l 2
 197 103 217 82 261 82 c 0
 305 82 341 111 368 157 c 1
 368 529 l 1
 496 529 l 1
EndSplineSet
EndChar

StartChar: uni0170
Encoding: 368 368 265
Width: 656
Flags: W
LayerCount: 2
Fore
SplineSet
304 941 m 1
 387 890 l 1
 263 737 l 1
 204 771 l 1
 304 941 l 1
466 933 m 1
 547 876 l 1
 414 731 l 1
 358 768 l 1
 466 933 l 1
585 691 m 1
 585 226 l 2
 585 87 496 -15 327 -15 c 0
 157 -15 71 84 71 226 c 2
 71 691 l 1
 203 691 l 1
 203 233 l 2
 203 136 242 88 327 88 c 0
 413 88 452 136 452 233 c 2
 452 691 l 1
 585 691 l 1
EndSplineSet
EndChar

StartChar: uni0171
Encoding: 369 369 266
Width: 571
Flags: W
LayerCount: 2
Fore
SplineSet
277 813 m 1
 360 762 l 1
 236 599 l 1
 177 633 l 1
 277 813 l 1
439 805 m 1
 520 748 l 1
 387 593 l 1
 331 630 l 1
 439 805 l 1
496 529 m 1
 496 0 l 1
 385 0 l 1
 378 74 l 1
 339 14 289 -15 216 -15 c 0
 120 -15 69 47 69 149 c 2
 69 529 l 1
 197 529 l 1
 197 165 l 2
 197 103 217 82 261 82 c 0
 305 82 341 111 368 157 c 1
 368 529 l 1
 496 529 l 1
EndSplineSet
EndChar

StartChar: uni0172
Encoding: 370 370 267
Width: 656
Flags: W
LayerCount: 2
Fore
SplineSet
452 691 m 1
 585 691 l 1
 585 226 l 2
 585 118 531 32 427 -1 c 1
 329 -41 309 -76 309 -108 c 0
 309 -138 325 -154 363 -154 c 0
 383 -154 401 -152 424 -147 c 1
 414 -232 l 1
 393 -236 374 -239 347 -239 c 0
 266 -239 210 -195 210 -130 c 0
 210 -78 244 -40 299 -14 c 1
 148 -4 71 92 71 226 c 2
 71 691 l 1
 203 691 l 1
 203 233 l 2
 203 136 242 88 327 88 c 0
 413 88 452 136 452 233 c 2
 452 691 l 1
EndSplineSet
EndChar

StartChar: uni0173
Encoding: 371 371 268
Width: 571
Flags: W
LayerCount: 2
Fore
SplineSet
376 -108 m 0
 376 -138 393 -154 431 -154 c 0
 451 -154 468 -152 492 -147 c 1
 482 -232 l 1
 461 -236 441 -239 415 -239 c 0
 333 -239 278 -195 278 -130 c 0
 278 -69 316 -25 384 9 c 1
 378 74 l 1
 339 14 289 -15 216 -15 c 0
 120 -15 69 47 69 149 c 2
 69 529 l 1
 197 529 l 1
 197 165 l 2
 197 103 217 82 261 82 c 0
 305 82 341 111 368 157 c 1
 368 529 l 1
 496 529 l 1
 496 2 l 1
 497 0 l 1
 397 -40 376 -76 376 -108 c 0
EndSplineSet
EndChar

StartChar: uni0178
Encoding: 376 376 269
Width: 574
Flags: W
LayerCount: 2
Fore
SplineSet
176 911 m 0
 215 911 245 881 245 842 c 0
 245 803 215 773 176 773 c 0
 136 773 105 803 105 842 c 0
 105 881 136 911 176 911 c 0
397 911 m 0
 437 911 467 881 467 842 c 0
 467 803 437 773 397 773 c 0
 358 773 327 803 327 842 c 0
 327 881 358 911 397 911 c 0
576 691 m 1
 354 262 l 1
 354 0 l 1
 220 0 l 1
 220 261 l 1
 -2 691 l 1
 144 691 l 1
 290 370 l 1
 436 691 l 1
 576 691 l 1
EndSplineSet
EndChar

StartChar: uni0179
Encoding: 377 377 270
Width: 534
Flags: W
LayerCount: 2
Fore
SplineSet
356 936 m 1
 406 836 l 1
 177 753 l 1
 144 819 l 1
 356 936 l 1
496 691 m 1
 496 589 l 1
 177 108 l 1
 499 108 l 1
 485 0 l 1
 23 0 l 1
 23 101 l 1
 348 586 l 1
 56 586 l 1
 56 691 l 1
 496 691 l 1
EndSplineSet
EndChar

StartChar: uni017A
Encoding: 378 378 271
Width: 444
Flags: W
LayerCount: 2
Fore
SplineSet
302 820 m 1
 354 720 l 1
 128 630 l 1
 92 695 l 1
 302 820 l 1
421 529 m 1
 421 437 l 1
 165 100 l 1
 426 100 l 1
 413 0 l 1
 18 0 l 1
 18 92 l 1
 275 429 l 1
 40 429 l 1
 40 529 l 1
 421 529 l 1
EndSplineSet
EndChar

StartChar: uni017B
Encoding: 379 379 272
Width: 534
Flags: W
LayerCount: 2
Fore
SplineSet
274 923 m 0
 322 923 355 889 355 845 c 0
 355 802 322 768 274 768 c 0
 227 768 194 802 194 845 c 0
 194 889 227 923 274 923 c 0
496 691 m 1
 496 589 l 1
 177 108 l 1
 499 108 l 1
 485 0 l 1
 23 0 l 1
 23 101 l 1
 348 586 l 1
 56 586 l 1
 56 691 l 1
 496 691 l 1
EndSplineSet
EndChar

StartChar: uni017C
Encoding: 380 380 273
Width: 444
Flags: W
LayerCount: 2
Fore
SplineSet
226 797 m 0
 274 797 307 763 307 719 c 0
 307 676 274 642 226 642 c 0
 179 642 146 676 146 719 c 0
 146 763 179 797 226 797 c 0
421 529 m 1
 421 437 l 1
 165 100 l 1
 426 100 l 1
 413 0 l 1
 18 0 l 1
 18 92 l 1
 275 429 l 1
 40 429 l 1
 40 529 l 1
 421 529 l 1
EndSplineSet
EndChar

StartChar: uni017D
Encoding: 381 381 274
Width: 534
Flags: W
LayerCount: 2
Fore
SplineSet
404 928 m 1
 453 872 l 1
 314 752 l 1
 234 752 l 1
 95 872 l 1
 144 928 l 1
 274 845 l 1
 404 928 l 1
496 691 m 1
 496 589 l 1
 177 108 l 1
 499 108 l 1
 485 0 l 1
 23 0 l 1
 23 101 l 1
 348 586 l 1
 56 586 l 1
 56 691 l 1
 496 691 l 1
EndSplineSet
EndChar

StartChar: uni017E
Encoding: 382 382 275
Width: 444
Flags: W
LayerCount: 2
Fore
SplineSet
357 800 m 1
 406 744 l 1
 267 619 l 1
 187 619 l 1
 48 744 l 1
 97 800 l 1
 227 712 l 1
 357 800 l 1
421 529 m 1
 421 437 l 1
 165 100 l 1
 426 100 l 1
 413 0 l 1
 18 0 l 1
 18 92 l 1
 275 429 l 1
 40 429 l 1
 40 529 l 1
 421 529 l 1
EndSplineSet
EndChar

StartChar: uni0192
Encoding: 402 402 276
Width: 358
Flags: W
LayerCount: 2
Fore
SplineSet
300 658 m 0
 244 658 226 635 226 585 c 2
 226 529 l 1
 353 529 l 1
 339 437 l 1
 226 437 l 1
 226 47 l 2
 226 -115 152 -169 34 -217 c 1
 -7 -124 l 1
 61 -92 98 -65 98 39 c 2
 98 437 l 1
 15 437 l 1
 15 529 l 1
 98 529 l 1
 98 587 l 2
 98 683 161 755 284 755 c 0
 340 755 383 743 426 724 c 1
 389 638 l 1
 355 653 326 658 300 658 c 0
EndSplineSet
EndChar

StartChar: uni0218
Encoding: 536 536 277
Width: 560
Flags: W
LayerCount: 2
Fore
SplineSet
280 706 m 0
 381 706 448 676 508 621 c 1
 443 546 l 1
 393 587 345 605 288 605 c 0
 226 605 181 577 181 523 c 0
 181 473 208 451 323 415 c 0
 444 377 528 327 528 197 c 0
 528 73 431 -15 266 -15 c 0
 156 -15 74 24 17 80 c 1
 85 156 l 1
 136 113 191 87 263 87 c 0
 337 87 390 123 390 190 c 0
 390 248 361 274 253 307 c 0
 108 352 45 410 45 515 c 0
 45 630 144 706 280 706 c 0
278 -72 m 0
 317 -72 347 -101 347 -140 c 0
 347 -162 340 -180 320 -221 c 2
 276 -312 l 1
 209 -312 l 1
 237 -196 l 1
 220 -183 208 -164 208 -140 c 0
 208 -102 238 -72 278 -72 c 0
EndSplineSet
EndChar

StartChar: uni0219
Encoding: 537 537 278
Width: 474
Flags: W
LayerCount: 2
Fore
SplineSet
244 544 m 0
 320 544 382 520 432 481 c 1
 382 406 l 1
 338 434 296 449 249 449 c 0
 198 449 169 428 169 396 c 0
 169 361 190 345 280 320 c 0
 388 291 449 247 449 153 c 0
 449 43 347 -15 226 -15 c 0
 135 -15 64 16 15 60 c 1
 79 132 l 1
 120 101 169 80 223 80 c 0
 280 80 317 104 317 144 c 0
 317 188 296 202 197 230 c 0
 88 260 40 312 40 390 c 0
 40 478 121 544 244 544 c 0
241 -72 m 0
 280 -72 310 -101 310 -140 c 0
 310 -162 303 -180 283 -221 c 2
 239 -312 l 1
 172 -312 l 1
 200 -196 l 1
 183 -183 171 -164 171 -140 c 0
 171 -102 201 -72 241 -72 c 0
EndSplineSet
EndChar

StartChar: uni021A
Encoding: 538 538 279
Width: 530
Flags: W
LayerCount: 2
Fore
SplineSet
525 691 m 1
 511 586 l 1
 331 586 l 1
 331 0 l 1
 198 0 l 1
 198 586 l 1
 12 586 l 1
 12 691 l 1
 525 691 l 1
267 -72 m 0
 306 -72 336 -101 336 -140 c 0
 336 -162 329 -180 309 -221 c 2
 265 -312 l 1
 198 -312 l 1
 226 -196 l 1
 209 -183 197 -164 197 -140 c 0
 197 -102 227 -72 267 -72 c 0
EndSplineSet
EndChar

StartChar: uni021B
Encoding: 539 539 280
Width: 375
Flags: W
LayerCount: 2
Fore
SplineSet
380 25 m 1
 342 -2 294 -15 247 -15 c 0
 143 -14 88 45 88 158 c 2
 88 437 l 1
 5 437 l 1
 5 529 l 1
 88 529 l 1
 88 646 l 1
 216 661 l 1
 216 529 l 1
 339 529 l 1
 326 437 l 1
 216 437 l 1
 216 161 l 2
 216 109 233 88 272 88 c 0
 292 88 312 94 335 107 c 1
 380 25 l 1
236 -72 m 0
 275 -72 305 -101 305 -140 c 0
 305 -162 298 -180 278 -221 c 2
 234 -312 l 1
 167 -312 l 1
 195 -196 l 1
 178 -183 166 -164 166 -140 c 0
 166 -102 196 -72 236 -72 c 0
EndSplineSet
EndChar

StartChar: uni0237
Encoding: 567 567 281
Width: 279
Flags: W
LayerCount: 2
Fore
SplineSet
204 529 m 1
 204 47 l 2
 204 -115 130 -169 11 -217 c 1
 -30 -124 l 1
 39 -92 76 -65 76 39 c 2
 76 529 l 1
 204 529 l 1
EndSplineSet
EndChar

StartChar: uni0300
Encoding: 768 768 282
Width: 0
Flags: W
LayerCount: 2
Fore
SplineSet
-240 820 m 1
 -30 695 l 1
 -67 630 l 1
 -292 720 l 1
 -240 820 l 1
EndSplineSet
EndChar

StartChar: uni0301
Encoding: 769 769 283
Width: 0
Flags: W
LayerCount: 2
Fore
SplineSet
-82 820 m 1
 -30 720 l 1
 -256 630 l 1
 -292 695 l 1
 -82 820 l 1
EndSplineSet
EndChar

StartChar: uni0302
Encoding: 770 770 284
Width: 0
Flags: W
LayerCount: 2
Fore
SplineSet
-339 627 m 1
 -388 682 l 1
 -250 808 l 1
 -169 808 l 1
 -30 682 l 1
 -79 627 l 1
 -209 715 l 1
 -339 627 l 1
EndSplineSet
EndChar

StartChar: uni0303
Encoding: 771 771 285
Width: 0
Flags: W
LayerCount: 2
Fore
SplineSet
-150 644 m 0
 -178 644 -199 655 -218 669 c 0
 -235 681 -248 691 -265 691 c 0
 -289 691 -302 675 -318 646 c 1
 -387 680 l 1
 -363 737 -323 784 -267 784 c 0
 -236 784 -217 773 -198 759 c 0
 -181 747 -167 738 -151 738 c 0
 -130 738 -116 752 -98 781 c 1
 -30 747 l 1
 -56 685 -98 644 -150 644 c 0
EndSplineSet
EndChar

StartChar: uni0304
Encoding: 772 772 286
Width: 0
Flags: W
LayerCount: 2
Fore
SplineSet
-30 661 m 1
 -321 661 l 1
 -321 752 l 1
 -30 752 l 1
 -30 661 l 1
EndSplineSet
EndChar

StartChar: uni0305
Encoding: 773 773 287
Width: 0
Flags: W
LayerCount: 2
Fore
SplineSet
-30 661 m 1
 -471 661 l 1
 -471 730 l 1
 -30 730 l 1
 -30 661 l 1
EndSplineSet
EndChar

StartChar: uni0306
Encoding: 774 774 288
Width: 0
Flags: W
LayerCount: 2
Fore
SplineSet
-194 637 m 0
 -288 637 -348 702 -356 792 c 1
 -281 806 l 1
 -268 757 -240 729 -194 729 c 0
 -148 729 -118 757 -106 806 c 1
 -30 792 l 1
 -38 702 -100 637 -194 637 c 0
EndSplineSet
EndChar

StartChar: uni0307
Encoding: 775 775 289
Width: 0
Flags: W
LayerCount: 2
Fore
SplineSet
-111 797 m 0
 -63 797 -30 763 -30 719 c 0
 -30 676 -63 642 -111 642 c 0
 -158 642 -191 676 -191 719 c 0
 -191 763 -158 797 -111 797 c 0
EndSplineSet
EndChar

StartChar: uni0308
Encoding: 776 776 290
Width: 0
Flags: W
LayerCount: 2
Fore
SplineSet
-321 785 m 0
 -282 785 -252 755 -252 716 c 0
 -252 677 -282 647 -321 647 c 0
 -361 647 -392 677 -392 716 c 0
 -392 755 -361 785 -321 785 c 0
-100 785 m 0
 -60 785 -30 755 -30 716 c 0
 -30 677 -60 647 -100 647 c 0
 -139 647 -170 677 -170 716 c 0
 -170 755 -139 785 -100 785 c 0
EndSplineSet
EndChar

StartChar: uni0309
Encoding: 777 777 291
Width: 0
Flags: W
LayerCount: 2
Fore
SplineSet
-192 608 m 1
 -192 705 l 1
 -145 709 -121 716 -121 745 c 0
 -121 768 -138 778 -163 778 c 0
 -186 778 -203 773 -222 765 c 1
 -246 824 l 1
 -220 839 -188 849 -144 849 c 0
 -68 849 -27 811 -27 753 c 0
 -27 702 -58 672 -110 663 c 1
 -110 608 l 1
 -192 608 l 1
EndSplineSet
EndChar

StartChar: uni030A
Encoding: 778 778 292
Width: 0
Flags: W
LayerCount: 2
Fore
SplineSet
-157 853 m 0
 -80 853 -30 799 -30 733 c 0
 -30 668 -80 613 -157 613 c 0
 -235 613 -285 668 -285 733 c 0
 -285 799 -235 853 -157 853 c 0
-157 786 m 0
 -187 786 -206 767 -206 733 c 0
 -206 699 -187 681 -157 681 c 0
 -128 681 -109 699 -109 733 c 0
 -109 767 -128 786 -157 786 c 0
EndSplineSet
EndChar

StartChar: uni030B
Encoding: 779 779 293
Width: 0
Flags: W
LayerCount: 2
Fore
SplineSet
-273 813 m 1
 -190 762 l 1
 -314 599 l 1
 -373 633 l 1
 -273 813 l 1
-111 805 m 1
 -30 748 l 1
 -163 593 l 1
 -219 630 l 1
 -111 805 l 1
EndSplineSet
EndChar

StartChar: uni030C
Encoding: 780 780 294
Width: 0
Flags: W
LayerCount: 2
Fore
SplineSet
-79 800 m 1
 -30 744 l 1
 -169 619 l 1
 -249 619 l 1
 -388 744 l 1
 -339 800 l 1
 -209 712 l 1
 -79 800 l 1
EndSplineSet
EndChar

StartChar: uni030D
Encoding: 781 781 295
Width: 0
Flags: W
LayerCount: 2
Fore
SplineSet
-145 623 m 1
 -145 871 l 1
 -30 871 l 1
 -30 623 l 1
 -145 623 l 1
EndSplineSet
EndChar

StartChar: uni030F
Encoding: 783 783 296
Width: 0
Flags: W
LayerCount: 2
Fore
SplineSet
-278 847 m 1
 -186 661 l 1
 -257 629 l 1
 -371 799 l 1
 -278 847 l 1
-113 847 m 1
 -30 664 l 1
 -102 634 l 1
 -207 801 l 1
 -113 847 l 1
EndSplineSet
EndChar

StartChar: uni0311
Encoding: 785 785 297
Width: 0
Flags: W
LayerCount: 2
Fore
SplineSet
-194 776 m 0
 -100 776 -38 712 -30 622 c 1
 -106 607 l 1
 -118 656 -148 684 -194 684 c 0
 -240 684 -268 656 -281 607 c 1
 -356 622 l 1
 -348 712 -288 776 -194 776 c 0
EndSplineSet
EndChar

StartChar: uni0312
Encoding: 786 786 298
Width: 0
Flags: W
LayerCount: 2
Fore
SplineSet
-103 580 m 0
 -143 580 -172 609 -172 647 c 0
 -172 669 -165 687 -146 728 c 2
 -102 819 l 1
 -35 819 l 1
 -62 704 l 1
 -46 690 -34 672 -34 647 c 0
 -34 610 -64 580 -103 580 c 0
EndSplineSet
EndChar

StartChar: uni0313
Encoding: 787 787 299
Width: 0
Flags: W
LayerCount: 2
Fore
SplineSet
-99 823 m 0
 -60 823 -30 794 -30 755 c 0
 -30 733 -37 715 -57 674 c 2
 -101 583 l 1
 -168 583 l 1
 -140 698 l 1
 -157 712 -169 731 -169 755 c 0
 -169 793 -139 823 -99 823 c 0
EndSplineSet
EndChar

StartChar: uni0316
Encoding: 790 790 300
Width: 0
Flags: W
LayerCount: 2
Fore
SplineSet
-242 -45 m 1
 -30 -161 l 1
 -63 -227 l 1
 -292 -144 l 1
 -242 -45 l 1
EndSplineSet
EndChar

StartChar: uni0317
Encoding: 791 791 301
Width: 0
Flags: W
LayerCount: 2
Fore
SplineSet
-80 -45 m 1
 -30 -144 l 1
 -259 -227 l 1
 -292 -161 l 1
 -80 -45 l 1
EndSplineSet
EndChar

StartChar: uni0318
Encoding: 792 792 302
Width: 0
Flags: W
LayerCount: 2
Fore
SplineSet
-111 -60 m 1
 -30 -60 l 1
 -30 -354 l 1
 -111 -354 l 1
 -111 -244 l 1
 -241 -244 l 1
 -241 -171 l 1
 -111 -171 l 1
 -111 -60 l 1
EndSplineSet
EndChar

StartChar: uni0319
Encoding: 793 793 303
Width: 0
Flags: W
LayerCount: 2
Fore
SplineSet
-161 -60 m 1
 -161 -171 l 1
 -31 -171 l 1
 -31 -244 l 1
 -161 -244 l 1
 -161 -354 l 1
 -242 -354 l 1
 -242 -60 l 1
 -161 -60 l 1
EndSplineSet
EndChar

StartChar: uni031A
Encoding: 794 794 304
Width: 0
Flags: W
LayerCount: 2
Fore
SplineSet
-228 791 m 1
 -30 791 l 1
 -30 595 l 1
 -110 595 l 1
 -110 718 l 1
 -228 718 l 1
 -228 791 l 1
EndSplineSet
EndChar

StartChar: uni031B
Encoding: 795 795 305
Width: 0
Flags: W
LayerCount: 2
Fore
SplineSet
-168 405 m 1
 -178 472 l 1
 -140 475 -124 491 -124 524 c 0
 -124 555 -130 573 -138 593 c 1
 -49 608 l 1
 -39 589 -30 562 -30 523 c 0
 -30 446 -81 407 -168 405 c 1
EndSplineSet
EndChar

StartChar: uni031C
Encoding: 796 796 306
Width: 0
Flags: W
LayerCount: 2
Fore
SplineSet
-30 -297 m 1
 -30 -229 l 1
 -60 -229 -79 -211 -79 -177 c 0
 -79 -143 -61 -124 -30 -124 c 1
 -30 -57 l 1
 -108 -57 -158 -111 -158 -177 c 0
 -158 -242 -108 -297 -30 -297 c 1
EndSplineSet
EndChar

StartChar: uni031D
Encoding: 797 797 307
Width: 0
Flags: W
LayerCount: 2
Fore
SplineSet
-30 -242 m 1
 -30 -316 l 1
 -344 -316 l 1
 -344 -242 l 1
 -229 -242 l 1
 -229 -89 l 1
 -146 -89 l 1
 -146 -242 l 1
 -30 -242 l 1
EndSplineSet
EndChar

StartChar: uni031E
Encoding: 798 798 308
Width: 0
Flags: W
LayerCount: 2
Fore
SplineSet
-30 -163 m 1
 -146 -163 l 1
 -146 -316 l 1
 -229 -316 l 1
 -229 -163 l 1
 -344 -163 l 1
 -344 -89 l 1
 -30 -89 l 1
 -30 -163 l 1
EndSplineSet
EndChar

StartChar: uni031F
Encoding: 799 799 309
Width: 0
Flags: W
LayerCount: 2
Fore
SplineSet
-121 -80 m 1
 -121 -168 l 1
 -30 -168 l 1
 -30 -245 l 1
 -121 -245 l 1
 -121 -332 l 1
 -209 -332 l 1
 -209 -245 l 1
 -300 -245 l 1
 -300 -168 l 1
 -209 -168 l 1
 -209 -80 l 1
 -121 -80 l 1
EndSplineSet
EndChar

StartChar: uni0320
Encoding: 800 800 310
Width: 0
Flags: W
LayerCount: 2
Fore
SplineSet
-300 -245 m 1
 -300 -168 l 1
 -30 -168 l 1
 -30 -245 l 1
 -300 -245 l 1
EndSplineSet
EndChar

StartChar: uni0321
Encoding: 801 801 311
Width: 0
Flags: W
LayerCount: 2
Fore
SplineSet
-205 -218 m 0
 -265 -218 -306 -199 -335 -177 c 1
 -289 -101 l 1
 -266 -113 -249 -121 -218 -121 c 0
 -181 -121 -158 -101 -158 -54 c 2
 -158 1 l 1
 -30 1 l 1
 -30 -43 l 2
 -30 -159 -100 -218 -205 -218 c 0
EndSplineSet
EndChar

StartChar: uni0323
Encoding: 803 803 312
Width: 0
Flags: W
LayerCount: 2
Fore
SplineSet
-110 -221 m 0
 -158 -221 -191 -188 -191 -143 c 0
 -191 -100 -158 -67 -110 -67 c 0
 -63 -67 -30 -100 -30 -143 c 0
 -30 -188 -63 -221 -110 -221 c 0
EndSplineSet
EndChar

StartChar: uni0324
Encoding: 804 804 313
Width: 0
Flags: W
LayerCount: 2
Fore
SplineSet
-321 -73 m 0
 -282 -73 -252 -104 -252 -142 c 0
 -252 -181 -282 -211 -321 -211 c 0
 -361 -211 -392 -181 -392 -142 c 0
 -392 -104 -361 -73 -321 -73 c 0
-100 -73 m 0
 -60 -73 -30 -104 -30 -142 c 0
 -30 -181 -60 -211 -100 -211 c 0
 -139 -211 -170 -181 -170 -142 c 0
 -170 -104 -139 -73 -100 -73 c 0
EndSplineSet
EndChar

StartChar: uni0325
Encoding: 805 805 314
Width: 0
Flags: W
LayerCount: 2
Fore
SplineSet
-157 -57 m 0
 -80 -57 -30 -111 -30 -177 c 0
 -30 -242 -80 -297 -157 -297 c 0
 -235 -297 -285 -242 -285 -177 c 0
 -285 -111 -235 -57 -157 -57 c 0
-157 -124 m 0
 -187 -124 -206 -143 -206 -177 c 0
 -206 -211 -187 -229 -157 -229 c 0
 -128 -229 -109 -211 -109 -177 c 0
 -109 -143 -128 -124 -157 -124 c 0
EndSplineSet
EndChar

StartChar: uni0326
Encoding: 806 806 315
Width: 0
Flags: W
LayerCount: 2
Fore
SplineSet
-99 -72 m 0
 -60 -72 -30 -101 -30 -140 c 0
 -30 -162 -37 -180 -57 -221 c 2
 -101 -312 l 1
 -168 -312 l 1
 -140 -196 l 1
 -157 -183 -169 -164 -169 -140 c 0
 -169 -102 -139 -72 -99 -72 c 0
EndSplineSet
EndChar

StartChar: uni0327
Encoding: 807 807 316
Width: 0
Flags: W
LayerCount: 2
Fore
SplineSet
-129 16 m 1
 -129 -52 l 1
 -59 -59 -30 -96 -30 -144 c 0
 -30 -211 -87 -253 -167 -253 c 0
 -210 -253 -247 -241 -270 -225 c 1
 -239 -162 l 1
 -220 -172 -201 -178 -176 -178 c 0
 -148 -178 -127 -169 -127 -144 c 0
 -127 -118 -154 -106 -218 -106 c 1
 -203 16 l 1
 -129 16 l 1
EndSplineSet
EndChar

StartChar: uni0328
Encoding: 808 808 317
Width: 0
Flags: W
LayerCount: 2
Fore
SplineSet
-50 43 m 1
 -30 0 l 1
 -130 -40 -151 -76 -151 -108 c 0
 -151 -138 -134 -154 -96 -154 c 0
 -76 -154 -59 -152 -35 -147 c 1
 -45 -232 l 1
 -66 -236 -86 -239 -112 -239 c 0
 -194 -239 -249 -195 -249 -130 c 0
 -249 -46 -176 7 -50 43 c 1
EndSplineSet
EndChar

StartChar: uni0329
Encoding: 809 809 318
Width: 0
Flags: W
LayerCount: 2
Fore
SplineSet
-153 -318 m 1
 -153 -69 l 1
 -38 -69 l 1
 -38 -318 l 1
 -153 -318 l 1
EndSplineSet
EndChar

StartChar: uni032A
Encoding: 810 810 319
Width: 0
Flags: W
LayerCount: 2
Fore
SplineSet
-324 -246 m 1
 -324 -89 l 1
 -30 -89 l 1
 -30 -246 l 1
 -110 -246 l 1
 -110 -160 l 1
 -244 -160 l 1
 -244 -246 l 1
 -324 -246 l 1
EndSplineSet
EndChar

StartChar: uni032B
Encoding: 811 811 320
Width: 0
Flags: W
LayerCount: 2
Fore
SplineSet
-87 -58 m 1
 -30 -63 l 1
 -36 -152 -77 -213 -139 -213 c 0
 -182 -213 -215 -184 -232 -136 c 1
 -250 -184 -283 -213 -326 -213 c 0
 -389 -213 -429 -152 -434 -63 c 1
 -378 -58 l 1
 -372 -100 -356 -125 -324 -125 c 0
 -294 -125 -276 -100 -270 -58 c 1
 -195 -58 l 1
 -188 -100 -172 -125 -141 -125 c 0
 -110 -125 -92 -100 -87 -58 c 1
EndSplineSet
EndChar

StartChar: uni032C
Encoding: 812 812 321
Width: 0
Flags: W
LayerCount: 2
Fore
SplineSet
-79 -66 m 1
 -30 -121 l 1
 -169 -242 l 1
 -249 -242 l 1
 -388 -121 l 1
 -339 -66 l 1
 -209 -148 l 1
 -79 -66 l 1
EndSplineSet
EndChar

StartChar: uni032D
Encoding: 813 813 322
Width: 0
Flags: W
LayerCount: 2
Fore
SplineSet
-339 -247 m 1
 -388 -191 l 1
 -250 -65 l 1
 -169 -65 l 1
 -30 -191 l 1
 -79 -247 l 1
 -209 -159 l 1
 -339 -247 l 1
EndSplineSet
EndChar

StartChar: uni032F
Encoding: 815 815 323
Width: 0
Flags: W
LayerCount: 2
Fore
SplineSet
-194 -48 m 0
 -100 -48 -38 -112 -30 -202 c 1
 -106 -216 l 1
 -118 -167 -148 -139 -194 -139 c 0
 -240 -139 -268 -167 -281 -216 c 1
 -356 -202 l 1
 -348 -112 -288 -48 -194 -48 c 0
EndSplineSet
EndChar

StartChar: uni0330
Encoding: 816 816 324
Width: 0
Flags: W
LayerCount: 2
Fore
SplineSet
-150 -199 m 0
 -178 -199 -199 -188 -218 -175 c 0
 -235 -162 -248 -153 -265 -153 c 0
 -289 -153 -302 -168 -318 -198 c 1
 -387 -164 l 1
 -363 -107 -323 -60 -267 -60 c 0
 -236 -60 -217 -71 -198 -85 c 0
 -181 -97 -167 -106 -151 -106 c 0
 -130 -106 -116 -92 -98 -62 c 1
 -30 -96 l 1
 -56 -158 -98 -199 -150 -199 c 0
EndSplineSet
EndChar

StartChar: uni0331
Encoding: 817 817 325
Width: 0
Flags: W
LayerCount: 2
Fore
SplineSet
-30 -183 m 1
 -321 -183 l 1
 -321 -92 l 1
 -30 -92 l 1
 -30 -183 l 1
EndSplineSet
EndChar

StartChar: uni0332
Encoding: 818 818 326
Width: 0
Flags: W
LayerCount: 2
Fore
SplineSet
-30 -183 m 1
 -466 -183 l 1
 -466 -92 l 1
 -30 -92 l 1
 -30 -183 l 1
EndSplineSet
EndChar

StartChar: uni0334
Encoding: 820 820 327
Width: 0
Flags: W
LayerCount: 2
Fore
SplineSet
-178 240 m 0
 -262 240 -296 301 -341 301 c 0
 -376 301 -395 275 -412 249 c 1
 -483 285 l 1
 -457 337 -413 398 -333 398 c 0
 -251 398 -218 338 -170 338 c 0
 -138 338 -118 360 -100 386 c 1
 -30 349 l 1
 -56 297 -100 240 -178 240 c 0
EndSplineSet
EndChar

StartChar: uni0335
Encoding: 821 821 328
Width: 0
Flags: W
LayerCount: 2
Fore
SplineSet
-353 262 m 1
 -353 364 l 1
 -51 364 l 1
 -51 262 l 1
 -353 262 l 1
EndSplineSet
EndChar

StartChar: uni0336
Encoding: 822 822 329
Width: 0
Flags: W
LayerCount: 2
Fore
SplineSet
-771 262 m 1
 -771 364 l 1
 -30 364 l 1
 -30 262 l 1
 -771 262 l 1
EndSplineSet
EndChar

StartChar: uni0339
Encoding: 825 825 330
Width: 0
Flags: W
LayerCount: 2
Fore
SplineSet
-157 -296 m 1
 -80 -296 -30 -241 -30 -176 c 0
 -30 -110 -80 -56 -157 -56 c 1
 -157 -123 l 1
 -127 -123 -109 -142 -109 -176 c 0
 -109 -210 -128 -228 -157 -228 c 1
 -157 -296 l 1
EndSplineSet
EndChar

StartChar: uni033A
Encoding: 826 826 331
Width: 0
Flags: W
LayerCount: 2
Fore
SplineSet
-324 -89 m 1
 -244 -89 l 1
 -244 -175 l 1
 -110 -175 l 1
 -110 -89 l 1
 -30 -89 l 1
 -30 -246 l 1
 -324 -246 l 1
 -324 -89 l 1
EndSplineSet
EndChar

StartChar: uni033B
Encoding: 827 827 332
Width: 0
Flags: W
LayerCount: 2
Fore
SplineSet
-324 -246 m 1
 -324 -65 l 1
 -30 -65 l 1
 -30 -246 l 1
 -324 -246 l 1
-256 -187 m 1
 -99 -187 l 1
 -99 -124 l 1
 -256 -124 l 1
 -256 -187 l 1
EndSplineSet
EndChar

StartChar: uni033C
Encoding: 828 828 333
Width: 0
Flags: W
LayerCount: 2
Fore
SplineSet
-139 -58 m 0
 -77 -58 -36 -119 -30 -208 c 1
 -87 -213 l 1
 -92 -171 -110 -146 -141 -146 c 0
 -172 -146 -188 -171 -195 -213 c 1
 -270 -213 l 1
 -276 -171 -294 -146 -324 -146 c 0
 -356 -146 -372 -171 -378 -213 c 1
 -434 -208 l 1
 -429 -119 -389 -58 -326 -58 c 0
 -283 -58 -250 -87 -232 -135 c 1
 -215 -87 -182 -58 -139 -58 c 0
EndSplineSet
EndChar

StartChar: uni033D
Encoding: 829 829 334
Width: 0
Flags: W
LayerCount: 2
Fore
SplineSet
-126 728 m 1
 -30 600 l 1
 -119 600 l 1
 -176 690 l 1
 -232 600 l 1
 -318 600 l 1
 -222 726 l 1
 -308 838 l 1
 -220 838 l 1
 -173 762 l 1
 -128 838 l 1
 -44 838 l 1
 -126 728 l 1
EndSplineSet
EndChar

StartChar: uni0342
Encoding: 834 834 335
Width: 0
Flags: W
LayerCount: 2
Fore
SplineSet
-150 644 m 0
 -178 644 -199 655 -218 669 c 0
 -235 681 -248 691 -265 691 c 0
 -289 691 -302 675 -318 646 c 1
 -387 680 l 1
 -363 737 -323 784 -267 784 c 0
 -236 784 -217 773 -198 759 c 0
 -181 747 -167 738 -151 738 c 0
 -130 738 -116 752 -98 781 c 1
 -30 747 l 1
 -56 685 -98 644 -150 644 c 0
EndSplineSet
EndChar

StartChar: uni0345
Encoding: 837 837 336
Width: 0
Flags: W
LayerCount: 2
Fore
SplineSet
-136 -197 m 0
 -215 -197 -259 -149 -259 -80 c 2
 -259 -41 l 1
 -162 -41 l 1
 -162 -78 l 2
 -162 -105 -148 -119 -121 -119 c 0
 -99 -119 -85 -113 -68 -103 c 1
 -30 -161 l 1
 -54 -179 -86 -197 -136 -197 c 0
EndSplineSet
EndChar

StartChar: uni035C
Encoding: 860 860 337
Width: 0
Flags: W
LayerCount: 2
Fore
SplineSet
338 -91 m 1
 251 -160 144 -219 -1 -219 c 0
 -145 -219 -252 -160 -339 -90 c 1
 -294 -27 l 1
 -209 -77 -117 -107 -1 -107 c 0
 116 -107 208 -77 292 -27 c 1
 338 -91 l 1
EndSplineSet
EndChar

StartChar: uni0361
Encoding: 865 865 338
Width: 0
Flags: W
LayerCount: 2
Fore
SplineSet
338 676 m 1
 292 612 l 1
 208 663 116 692 -1 692 c 0
 -117 692 -209 663 -294 612 c 1
 -339 675 l 1
 -252 745 -145 804 -1 804 c 0
 144 804 251 745 338 676 c 1
EndSplineSet
EndChar

StartChar: uni037E
Encoding: 894 894 339
Width: 240
Flags: W
LayerCount: 2
Fore
SplineSet
119 503 m 0
 165 503 201 466 201 422 c 0
 201 377 165 341 119 341 c 0
 74 341 39 377 39 422 c 0
 39 466 74 503 119 503 c 0
119 147 m 0
 166 147 201 112 201 66 c 0
 201 40 193 16 175 -24 c 2
 110 -172 l 1
 32 -172 l 1
 73 0 l 1
 51 15 39 39 39 67 c 0
 39 112 74 147 119 147 c 0
EndSplineSet
EndChar

StartChar: uni0384
Encoding: 900 900 340
Width: 190
Flags: W
LayerCount: 2
Fore
SplineSet
32 823 m 1
 160 813 l 1
 119 596 l 1
 34 596 l 1
 32 823 l 1
EndSplineSet
EndChar

StartChar: uni0385
Encoding: 901 901 341
Width: 439
Flags: W
LayerCount: 2
Fore
SplineSet
182 932 m 1
 293 923 l 1
 258 736 l 1
 184 736 l 1
 182 932 l 1
101 750 m 0
 139 750 170 719 170 681 c 0
 170 642 139 611 101 611 c 0
 60 611 30 642 30 681 c 0
 30 719 60 750 101 750 c 0
339 750 m 0
 378 750 409 719 409 681 c 0
 409 642 378 611 339 611 c 0
 299 611 269 642 269 681 c 0
 269 719 299 750 339 750 c 0
EndSplineSet
EndChar

StartChar: uni0386
Encoding: 902 902 342
Width: 648
Flags: W
LayerCount: 2
Fore
SplineSet
73 701 m 1
 202 691 l 1
 161 475 l 1
 76 475 l 1
 73 701 l 1
513 0 m 1
 470 160 l 1
 240 160 l 1
 198 0 l 1
 61 0 l 1
 276 691 l 1
 439 691 l 1
 653 0 l 1
 513 0 l 1
267 260 m 1
 443 260 l 1
 355 590 l 1
 267 260 l 1
EndSplineSet
EndChar

StartChar: uni0387
Encoding: 903 903 343
Width: 240
Flags: W
LayerCount: 2
Fore
SplineSet
119 390 m 0
 165 390 201 353 201 309 c 0
 201 265 165 228 119 228 c 0
 74 228 39 265 39 309 c 0
 39 353 74 390 119 390 c 0
EndSplineSet
EndChar

StartChar: uni0388
Encoding: 904 904 344
Width: 677
Flags: W
LayerCount: 2
Fore
SplineSet
65 701 m 1
 194 691 l 1
 153 475 l 1
 68 475 l 1
 65 701 l 1
629 691 m 1
 615 593 l 1
 360 593 l 1
 360 400 l 1
 582 400 l 1
 582 302 l 1
 360 302 l 1
 360 99 l 1
 633 99 l 1
 633 0 l 1
 228 0 l 1
 228 691 l 1
 629 691 l 1
EndSplineSet
EndChar

StartChar: uni0389
Encoding: 905 905 345
Width: 819
Flags: W
LayerCount: 2
Fore
SplineSet
65 701 m 1
 194 691 l 1
 153 475 l 1
 68 475 l 1
 65 701 l 1
606 0 m 1
 606 309 l 1
 360 309 l 1
 360 0 l 1
 228 0 l 1
 228 691 l 1
 360 691 l 1
 360 414 l 1
 606 414 l 1
 606 691 l 1
 739 691 l 1
 739 0 l 1
 606 0 l 1
EndSplineSet
EndChar

StartChar: uni038A
Encoding: 906 906 346
Width: 441
Flags: W
LayerCount: 2
Fore
SplineSet
65 701 m 1
 194 691 l 1
 153 475 l 1
 68 475 l 1
 65 701 l 1
360 691 m 1
 360 0 l 1
 228 0 l 1
 228 691 l 1
 360 691 l 1
EndSplineSet
EndChar

StartChar: uni038C
Encoding: 908 908 347
Width: 803
Flags: W
LayerCount: 2
Fore
SplineSet
457 706 m 0
 642 706 760 577 760 346 c 0
 760 118 642 -15 457 -15 c 0
 273 -15 155 114 155 345 c 0
 155 572 273 706 457 706 c 0
55 701 m 1
 184 691 l 1
 143 475 l 1
 58 475 l 1
 55 701 l 1
457 605 m 0
 355 605 294 531 294 345 c 0
 294 159 357 86 457 86 c 0
 561 86 620 159 620 346 c 0
 620 531 562 605 457 605 c 0
EndSplineSet
EndChar

StartChar: uni038E
Encoding: 910 910 348
Width: 792
Flags: W
LayerCount: 2
Fore
SplineSet
65 701 m 1
 194 691 l 1
 153 475 l 1
 68 475 l 1
 65 701 l 1
793 691 m 1
 571 262 l 1
 571 0 l 1
 438 0 l 1
 438 261 l 1
 216 691 l 1
 362 691 l 1
 508 370 l 1
 654 691 l 1
 793 691 l 1
EndSplineSet
EndChar

StartChar: uni038F
Encoding: 911 911 349
Width: 814
Flags: W
LayerCount: 2
Fore
SplineSet
468 706 m 0
 656 706 771 573 771 367 c 0
 771 235 733 155 637 101 c 1
 749 101 l 1
 749 0 l 1
 513 0 l 1
 513 98 l 1
 603 132 631 213 631 367 c 0
 631 529 573 605 468 605 c 0
 366 605 305 529 305 366 c 0
 305 204 338 132 422 98 c 1
 422 0 l 1
 187 0 l 1
 187 101 l 1
 294 101 l 1
 206 149 166 231 166 366 c 0
 166 569 284 706 468 706 c 0
55 701 m 1
 184 691 l 1
 143 475 l 1
 58 475 l 1
 55 701 l 1
EndSplineSet
EndChar

StartChar: uni0390
Encoding: 912 912 350
Width: 279
Flags: W
LayerCount: 2
Fore
SplineSet
95 932 m 1
 206 923 l 1
 171 736 l 1
 97 736 l 1
 95 932 l 1
14 750 m 0
 52 750 83 719 83 681 c 0
 83 642 52 611 14 611 c 0
 -27 611 -57 642 -57 681 c 0
 -57 719 -27 750 14 750 c 0
252 750 m 0
 291 750 322 719 322 681 c 0
 322 642 291 611 252 611 c 0
 212 611 182 642 182 681 c 0
 182 719 212 750 252 750 c 0
197 529 m 1
 197 162 l 2
 197 112 209 94 241 79 c 1
 203 -15 l 1
 112 5 69 48 69 146 c 2
 69 529 l 1
 197 529 l 1
EndSplineSet
EndChar

StartChar: uni0391
Encoding: 913 913 351
Width: 583
Flags: W
LayerCount: 2
Fore
SplineSet
447 0 m 1
 404 160 l 1
 175 160 l 1
 132 0 l 1
 -5 0 l 1
 210 691 l 1
 373 691 l 1
 587 0 l 1
 447 0 l 1
201 260 m 1
 378 260 l 1
 289 590 l 1
 201 260 l 1
EndSplineSet
EndChar

StartChar: uni0392
Encoding: 914 914 352
Width: 613
Flags: W
LayerCount: 2
Fore
SplineSet
420 366 m 1
 499 351 578 314 578 199 c 0
 578 47 457 0 289 0 c 2
 81 0 l 1
 81 691 l 1
 262 691 l 2
 440 691 548 641 548 515 c 0
 548 429 486 380 420 366 c 1
275 594 m 2
 213 594 l 1
 213 407 l 1
 294 407 l 2
 366 407 413 439 413 504 c 0
 413 574 365 594 275 594 c 2
290 99 m 2
 377 99 440 117 440 204 c 0
 440 287 381 315 304 315 c 2
 213 315 l 1
 213 99 l 1
 290 99 l 2
EndSplineSet
EndChar

StartChar: uni0393
Encoding: 915 915 353
Width: 509
Flags: W
LayerCount: 2
Fore
SplineSet
504 691 m 1
 488 584 l 1
 213 584 l 1
 213 0 l 1
 81 0 l 1
 81 691 l 1
 504 691 l 1
EndSplineSet
EndChar

StartChar: uni0394
Encoding: 916 916 354
Width: 592
Flags: W
LayerCount: 2
Fore
SplineSet
378 691 m 1
 596 0 l 1
 -5 0 l 1
 215 691 l 1
 378 691 l 1
294 589 m 1
 157 101 l 1
 431 101 l 1
 294 589 l 1
EndSplineSet
EndChar

StartChar: uni0395
Encoding: 917 917 355
Width: 530
Flags: W
LayerCount: 2
Fore
SplineSet
482 691 m 1
 468 593 l 1
 213 593 l 1
 213 400 l 1
 435 400 l 1
 435 302 l 1
 213 302 l 1
 213 99 l 1
 486 99 l 1
 486 0 l 1
 81 0 l 1
 81 691 l 1
 482 691 l 1
EndSplineSet
EndChar

StartChar: uni0396
Encoding: 918 918 356
Width: 534
Flags: W
LayerCount: 2
Fore
SplineSet
496 691 m 1
 496 589 l 1
 177 108 l 1
 499 108 l 1
 485 0 l 1
 23 0 l 1
 23 101 l 1
 348 586 l 1
 56 586 l 1
 56 691 l 1
 496 691 l 1
EndSplineSet
EndChar

StartChar: uni0397
Encoding: 919 919 357
Width: 672
Flags: W
LayerCount: 2
Fore
SplineSet
459 0 m 1
 459 309 l 1
 213 309 l 1
 213 0 l 1
 81 0 l 1
 81 691 l 1
 213 691 l 1
 213 414 l 1
 459 414 l 1
 459 691 l 1
 592 691 l 1
 592 0 l 1
 459 0 l 1
EndSplineSet
EndChar

StartChar: uni0398
Encoding: 920 920 358
Width: 691
Flags: W
LayerCount: 2
Fore
SplineSet
346 706 m 0
 531 706 648 577 648 346 c 0
 648 118 531 -15 346 -15 c 0
 161 -15 43 114 43 345 c 0
 43 572 161 706 346 706 c 0
346 605 m 0
 240 605 178 531 178 345 c 0
 178 159 242 86 346 86 c 0
 453 86 514 159 514 346 c 0
 514 531 453 605 346 605 c 0
455 394 m 1
 455 310 l 1
 236 310 l 1
 236 394 l 1
 455 394 l 1
EndSplineSet
EndChar

StartChar: uni0399
Encoding: 921 921 359
Width: 294
Flags: W
LayerCount: 2
Fore
SplineSet
213 691 m 1
 213 0 l 1
 81 0 l 1
 81 691 l 1
 213 691 l 1
EndSplineSet
EndChar

StartChar: uni039A
Encoding: 922 922 360
Width: 613
Flags: W
LayerCount: 2
Fore
SplineSet
213 691 m 1
 213 0 l 1
 81 0 l 1
 81 691 l 1
 213 691 l 1
601 691 m 1
 362 378 l 1
 620 0 l 1
 463 0 l 1
 219 369 l 1
 458 691 l 1
 601 691 l 1
EndSplineSet
EndChar

StartChar: uni039B
Encoding: 923 923 361
Width: 583
Flags: W
LayerCount: 2
Fore
SplineSet
373 691 m 1
 587 0 l 1
 447 0 l 1
 290 590 l 1
 132 0 l 1
 -5 0 l 1
 210 691 l 1
 373 691 l 1
EndSplineSet
EndChar

StartChar: uni039C
Encoding: 924 924 362
Width: 782
Flags: W
LayerCount: 2
Fore
SplineSet
682 691 m 1
 736 0 l 1
 607 0 l 1
 589 289 l 2
 583 391 578 498 580 571 c 1
 454 75 l 1
 329 75 l 1
 195 572 l 1
 199 479 197 384 191 285 c 2
 174 0 l 1
 46 0 l 1
 101 691 l 1
 271 691 l 1
 394 207 l 1
 510 691 l 1
 682 691 l 1
EndSplineSet
EndChar

StartChar: uni039D
Encoding: 925 925 363
Width: 672
Flags: W
LayerCount: 2
Fore
SplineSet
591 691 m 1
 591 0 l 1
 420 0 l 1
 183 559 l 1
 190 498 201 410 201 282 c 2
 201 0 l 1
 81 0 l 1
 81 691 l 1
 248 691 l 1
 489 131 l 1
 483 169 471 269 471 367 c 2
 471 691 l 1
 591 691 l 1
EndSplineSet
EndChar

StartChar: uni039E
Encoding: 926 926 364
Width: 518
Flags: W
LayerCount: 2
Fore
SplineSet
478 691 m 1
 462 578 l 1
 37 578 l 1
 37 691 l 1
 478 691 l 1
414 405 m 1
 414 296 l 1
 99 296 l 1
 99 405 l 1
 414 405 l 1
482 117 m 1
 482 0 l 1
 37 0 l 1
 37 117 l 1
 482 117 l 1
EndSplineSet
EndChar

StartChar: uni039F
Encoding: 927 927 365
Width: 691
Flags: W
LayerCount: 2
Fore
SplineSet
346 706 m 0
 531 706 648 577 648 346 c 0
 648 118 531 -15 346 -15 c 0
 161 -15 43 114 43 345 c 0
 43 572 161 706 346 706 c 0
346 605 m 0
 243 605 182 531 182 345 c 0
 182 159 245 86 346 86 c 0
 449 86 509 159 509 346 c 0
 509 531 450 605 346 605 c 0
EndSplineSet
EndChar

StartChar: uni03A0
Encoding: 928 928 366
Width: 669
Flags: W
LayerCount: 2
Fore
SplineSet
588 691 m 1
 588 0 l 1
 456 0 l 1
 456 586 l 1
 213 586 l 1
 213 0 l 1
 81 0 l 1
 81 691 l 1
 588 691 l 1
EndSplineSet
EndChar

StartChar: uni03A1
Encoding: 929 929 367
Width: 591
Flags: W
LayerCount: 2
Fore
SplineSet
285 691 m 2
 459 691 565 620 565 471 c 0
 565 312 450 241 294 241 c 2
 213 241 l 1
 213 0 l 1
 81 0 l 1
 81 691 l 1
 285 691 l 2
284 340 m 2
 372 340 427 370 427 471 c 0
 427 558 374 594 284 594 c 2
 213 594 l 1
 213 340 l 1
 284 340 l 2
EndSplineSet
EndChar

StartChar: uni03A3
Encoding: 931 931 368
Width: 503
Flags: W
LayerCount: 2
Fore
SplineSet
473 691 m 1
 473 591 l 1
 177 591 l 1
 360 373 l 1
 360 309 l 1
 176 102 l 1
 473 102 l 1
 473 0 l 1
 30 0 l 1
 30 100 l 1
 236 339 l 1
 30 591 l 1
 30 691 l 1
 473 691 l 1
EndSplineSet
EndChar

StartChar: uni03A4
Encoding: 932 932 369
Width: 530
Flags: W
LayerCount: 2
Fore
SplineSet
525 691 m 1
 511 586 l 1
 331 586 l 1
 331 0 l 1
 198 0 l 1
 198 586 l 1
 12 586 l 1
 12 691 l 1
 525 691 l 1
EndSplineSet
EndChar

StartChar: uni03A5
Encoding: 933 933 370
Width: 574
Flags: W
LayerCount: 2
Fore
SplineSet
576 691 m 1
 354 262 l 1
 354 0 l 1
 220 0 l 1
 220 261 l 1
 -2 691 l 1
 144 691 l 1
 290 370 l 1
 436 691 l 1
 576 691 l 1
EndSplineSet
EndChar

StartChar: uni03A6
Encoding: 934 934 371
Width: 828
Flags: W
LayerCount: 2
Fore
SplineSet
803 348 m 0
 803 173 674 79 478 72 c 1
 478 0 l 1
 349 0 l 1
 349 73 l 1
 145 82 25 180 25 345 c 0
 25 517 154 611 349 618 c 1
 349 691 l 1
 478 691 l 1
 478 617 l 1
 683 608 803 510 803 348 c 0
160 345 m 0
 160 231 223 165 354 158 c 1
 354 532 l 1
 221 523 160 459 160 345 c 0
473 157 m 1
 607 166 668 232 668 348 c 0
 668 459 605 525 473 532 c 1
 473 157 l 1
EndSplineSet
EndChar

StartChar: uni03A7
Encoding: 935 935 372
Width: 562
Flags: W
LayerCount: 2
Fore
SplineSet
358 373 m 1
 563 0 l 1
 416 0 l 1
 278 283 l 1
 141 0 l 1
 0 0 l 1
 200 368 l 1
 16 691 l 1
 163 691 l 1
 280 452 l 1
 402 691 l 1
 543 691 l 1
 358 373 l 1
EndSplineSet
EndChar

StartChar: uni03A8
Encoding: 936 936 373
Width: 712
Flags: W
LayerCount: 2
Fore
SplineSet
557 691 m 1
 686 691 l 1
 686 430 l 2
 686 286 592 205 422 187 c 1
 422 0 l 1
 289 0 l 1
 289 187 l 1
 113 205 27 288 27 428 c 2
 27 691 l 1
 155 691 l 1
 155 429 l 2
 155 340 195 294 294 283 c 1
 294 691 l 1
 417 691 l 1
 417 284 l 1
 513 295 557 340 557 429 c 2
 557 691 l 1
EndSplineSet
EndChar

StartChar: uni03A9
Encoding: 937 937 374
Width: 691
Flags: W
LayerCount: 2
Fore
SplineSet
346 706 m 0
 534 706 648 573 648 367 c 0
 648 235 610 155 515 101 c 1
 627 101 l 1
 627 0 l 1
 391 0 l 1
 391 98 l 1
 480 132 509 213 509 367 c 0
 509 529 450 605 346 605 c 0
 243 605 182 529 182 366 c 0
 182 204 216 132 300 98 c 1
 300 0 l 1
 64 0 l 1
 64 101 l 1
 172 101 l 1
 84 149 43 231 43 366 c 0
 43 569 161 706 346 706 c 0
EndSplineSet
EndChar

StartChar: uni03AA
Encoding: 938 938 375
Width: 294
Flags: W
LayerCount: 2
Fore
SplineSet
35 911 m 0
 74 911 104 881 104 842 c 0
 104 803 74 773 35 773 c 0
 -5 773 -36 803 -36 842 c 0
 -36 881 -5 911 35 911 c 0
256 911 m 0
 296 911 326 881 326 842 c 0
 326 803 296 773 256 773 c 0
 217 773 186 803 186 842 c 0
 186 881 217 911 256 911 c 0
213 691 m 1
 213 0 l 1
 81 0 l 1
 81 691 l 1
 213 691 l 1
EndSplineSet
EndChar

StartChar: uni03AB
Encoding: 939 939 376
Width: 574
Flags: W
LayerCount: 2
Fore
SplineSet
176 911 m 0
 215 911 245 881 245 842 c 0
 245 803 215 773 176 773 c 0
 136 773 105 803 105 842 c 0
 105 881 136 911 176 911 c 0
397 911 m 0
 437 911 467 881 467 842 c 0
 467 803 437 773 397 773 c 0
 358 773 327 803 327 842 c 0
 327 881 358 911 397 911 c 0
576 691 m 1
 354 262 l 1
 354 0 l 1
 220 0 l 1
 220 261 l 1
 -2 691 l 1
 144 691 l 1
 290 370 l 1
 436 691 l 1
 576 691 l 1
EndSplineSet
EndChar

StartChar: uni03AC
Encoding: 940 940 377
Width: 595
Flags: W
LayerCount: 2
Fore
SplineSet
233 823 m 1
 361 813 l 1
 320 596 l 1
 235 596 l 1
 233 823 l 1
254 544 m 0
 342 544 395 499 414 394 c 1
 435 529 l 1
 547 529 l 1
 484 255 l 1
 510 137 l 2
 518 107 532 92 562 84 c 1
 520 -15 l 1
 466 -8 425 22 414 79 c 2
 406 124 l 1
 375 41 327 -15 241 -15 c 0
 120 -15 43 78 43 260 c 0
 43 425 118 544 254 544 c 0
268 448 m 0
 211 448 175 386 175 260 c 0
 175 133 209 81 264 81 c 0
 309 81 353 115 382 270 c 1
 357 408 324 448 268 448 c 0
EndSplineSet
EndChar

StartChar: uni03AD
Encoding: 941 941 378
Width: 470
Flags: W
LayerCount: 2
Fore
SplineSet
210 823 m 1
 338 813 l 1
 297 596 l 1
 212 596 l 1
 210 823 l 1
259 544 m 0
 335 544 394 525 445 489 c 1
 389 419 l 1
 353 440 320 452 274 452 c 0
 221 452 190 428 190 385 c 0
 190 345 222 318 278 318 c 2
 342 318 l 1
 328 230 l 1
 271 230 l 2
 200 230 173 206 173 156 c 0
 173 111 207 80 273 80 c 0
 322 80 362 95 406 123 c 1
 462 48 l 1
 411 9 339 -15 258 -15 c 0
 130 -15 39 42 39 147 c 0
 39 230 90 271 176 282 c 1
 99 297 59 336 59 399 c 0
 59 489 139 544 259 544 c 0
EndSplineSet
EndChar

StartChar: uni03AE
Encoding: 942 942 379
Width: 582
Flags: W
LayerCount: 2
Fore
SplineSet
334 596 m 1
 249 596 l 1
 247 823 l 1
 375 813 l 1
 334 596 l 1
363 544 m 0
 457 544 513 484 513 380 c 2
 513 -218 l 1
 385 -204 l 1
 385 363 l 2
 385 428 360 448 320 448 c 0
 274 448 241 418 210 370 c 1
 210 0 l 1
 82 0 l 1
 82 371 l 2
 82 437 72 484 59 526 c 1
 176 542 l 1
 186 523 195 498 202 459 c 1
 242 513 296 544 363 544 c 0
EndSplineSet
EndChar

StartChar: uni03AF
Encoding: 943 943 380
Width: 279
Flags: W
LayerCount: 2
Fore
SplineSet
88 823 m 1
 216 813 l 1
 175 596 l 1
 90 596 l 1
 88 823 l 1
197 529 m 1
 197 162 l 2
 197 112 209 94 241 79 c 1
 203 -15 l 1
 112 5 69 48 69 146 c 2
 69 529 l 1
 197 529 l 1
EndSplineSet
EndChar

StartChar: uni03B0
Encoding: 944 944 381
Width: 564
Flags: W
LayerCount: 2
Fore
SplineSet
242 932 m 1
 353 923 l 1
 318 736 l 1
 244 736 l 1
 242 932 l 1
161 750 m 0
 199 750 230 719 230 681 c 0
 230 642 199 611 161 611 c 0
 120 611 90 642 90 681 c 0
 90 719 120 750 161 750 c 0
399 750 m 0
 438 750 469 719 469 681 c 0
 469 642 438 611 399 611 c 0
 359 611 329 642 329 681 c 0
 329 719 359 750 399 750 c 0
482 529 m 1
 498 445 510 358 510 251 c 0
 510 62 383 -15 263 -15 c 0
 157 -15 69 45 69 173 c 2
 69 529 l 1
 197 529 l 1
 197 177 l 2
 197 111 224 82 271 82 c 0
 321 82 381 124 381 262 c 0
 381 341 372 433 355 529 c 1
 482 529 l 1
EndSplineSet
EndChar

StartChar: uni03B1
Encoding: 945 945 382
Width: 595
Flags: W
LayerCount: 2
Fore
SplineSet
254 544 m 0
 342 544 395 499 414 394 c 1
 435 529 l 1
 547 529 l 1
 484 255 l 1
 510 137 l 2
 518 107 532 92 562 84 c 1
 520 -15 l 1
 466 -8 425 22 414 79 c 2
 406 124 l 1
 375 41 327 -15 241 -15 c 0
 120 -15 43 78 43 260 c 0
 43 425 118 544 254 544 c 0
268 448 m 0
 211 448 175 386 175 260 c 0
 175 133 209 81 264 81 c 0
 309 81 353 115 382 270 c 1
 357 408 324 448 268 448 c 0
EndSplineSet
EndChar

StartChar: uni03B2
Encoding: 946 946 383
Width: 603
Flags: W
LayerCount: 2
Fore
SplineSet
370 405 m 1
 459 396 568 357 568 205 c 0
 568 72 468 -15 344 -15 c 0
 288 -15 242 3 200 33 c 1
 200 -201 l 1
 75 -218 l 1
 75 544 l 2
 75 677 164 755 297 755 c 0
 426 755 513 680 513 568 c 0
 513 476 456 421 370 405 c 1
318 85 m 0
 385 85 439 126 439 213 c 0
 439 311 384 353 290 353 c 2
 245 353 l 1
 255 443 l 1
 291 443 l 2
 348 443 390 479 390 559 c 0
 390 629 352 661 296 661 c 0
 234 661 200 624 200 544 c 2
 200 118 l 1
 231 96 267 85 318 85 c 0
EndSplineSet
EndChar

StartChar: uni03B3
Encoding: 947 947 384
Width: 496
Flags: W
LayerCount: 2
Fore
SplineSet
106 543 m 1
 153 484 212 355 248 136 c 1
 367 543 l 1
 494 516 l 1
 307 25 l 2
 277 -53 274 -110 291 -205 c 1
 189 -220 l 1
 149 -139 147 -79 183 11 c 1
 118 259 55 423 -12 501 c 1
 106 543 l 1
EndSplineSet
EndChar

StartChar: uni03B4
Encoding: 948 948 385
Width: 578
Flags: W
LayerCount: 2
Fore
SplineSet
333 511 m 0
 468 455 535 387 535 246 c 0
 535 97 442 -15 289 -15 c 0
 139 -15 43 81 43 241 c 0
 43 349 102 421 195 466 c 1
 118 508 98 550 98 606 c 0
 98 685 161 755 295 755 c 0
 376 755 434 731 480 697 c 1
 419 625 l 1
 382 650 349 662 306 662 c 0
 246 662 224 636 224 604 c 0
 224 566 241 549 333 511 c 0
288 82 m 0
 361 82 400 136 400 246 c 0
 400 347 373 387 266 434 c 1
 205 389 177 334 177 244 c 0
 177 137 213 82 288 82 c 0
EndSplineSet
EndChar

StartChar: uni03B5
Encoding: 949 949 386
Width: 470
Flags: W
LayerCount: 2
Fore
SplineSet
259 544 m 0
 335 544 394 525 445 489 c 1
 389 419 l 1
 353 440 320 452 274 452 c 0
 221 452 190 428 190 385 c 0
 190 345 222 318 278 318 c 2
 342 318 l 1
 328 230 l 1
 271 230 l 2
 200 230 173 206 173 156 c 0
 173 111 207 80 273 80 c 0
 322 80 362 95 406 123 c 1
 462 48 l 1
 411 9 339 -15 258 -15 c 0
 130 -15 39 42 39 147 c 0
 39 230 90 271 176 282 c 1
 99 297 59 336 59 399 c 0
 59 489 139 544 259 544 c 0
EndSplineSet
EndChar

StartChar: uni03B6
Encoding: 950 950 387
Width: 405
Flags: W
LayerCount: 2
Fore
SplineSet
417 741 m 1
 434 667 l 1
 226 493 163 369 163 257 c 0
 163 173 198 143 285 109 c 0
 366 76 422 44 422 -37 c 0
 422 -117 367 -169 251 -219 c 1
 201 -138 l 1
 252 -114 288 -92 288 -50 c 0
 288 -15 270 -2 197 28 c 0
 85 74 30 127 30 254 c 0
 30 384 135 548 318 661 c 1
 291 653 234 645 176 645 c 2
 35 645 l 1
 49 741 l 1
 417 741 l 1
EndSplineSet
EndChar

StartChar: uni03B7
Encoding: 951 951 388
Width: 582
Flags: W
LayerCount: 2
Fore
SplineSet
363 544 m 0
 457 544 513 484 513 380 c 2
 513 -218 l 1
 385 -204 l 1
 385 363 l 2
 385 428 360 448 320 448 c 0
 274 448 241 418 210 370 c 1
 210 0 l 1
 82 0 l 1
 82 371 l 2
 82 437 72 484 59 526 c 1
 176 542 l 1
 186 523 195 498 202 459 c 1
 242 513 296 544 363 544 c 0
EndSplineSet
EndChar

StartChar: uni03B8
Encoding: 952 952 389
Width: 568
Flags: W
LayerCount: 2
Fore
SplineSet
285 755 m 0
 441 755 524 619 524 372 c 0
 524 123 439 -15 284 -15 c 0
 128 -15 43 120 43 372 c 0
 43 615 128 755 285 755 c 0
285 658 m 0
 210 658 172 598 168 414 c 1
 399 414 l 1
 395 598 359 658 285 658 c 0
284 82 m 0
 359 82 395 141 399 332 c 1
 168 332 l 1
 174 140 211 82 284 82 c 0
EndSplineSet
EndChar

StartChar: uni03B9
Encoding: 953 953 390
Width: 279
Flags: W
LayerCount: 2
Fore
SplineSet
197 529 m 1
 197 162 l 2
 197 112 209 94 241 79 c 1
 203 -15 l 1
 112 5 69 48 69 146 c 2
 69 529 l 1
 197 529 l 1
EndSplineSet
EndChar

StartChar: uni03BA
Encoding: 954 954 391
Width: 540
Flags: W
LayerCount: 2
Fore
SplineSet
522 494 m 1
 353 285 l 1
 481 128 l 2
 502 102 519 90 545 81 c 1
 502 -15 l 1
 445 -9 411 13 370 71 c 2
 214 282 l 1
 419 543 l 1
 522 494 l 1
176 542 m 1
 195 505 210 454 210 342 c 2
 210 0 l 1
 82 0 l 1
 82 371 l 2
 82 437 71 487 59 526 c 1
 176 542 l 1
EndSplineSet
EndChar

StartChar: uni03BB
Encoding: 955 955 392
Width: 511
Flags: W
LayerCount: 2
Fore
SplineSet
81 755 m 1
 244 729 312 673 353 498 c 0
 421 211 456 120 528 28 c 1
 406 -15 l 1
 338 85 301 176 255 431 c 1
 139 -15 l 1
 13 15 l 1
 178 529 l 1
 227 529 l 1
 201 613 168 647 65 664 c 1
 81 755 l 1
EndSplineSet
EndChar

StartChar: uni03BC
Encoding: 956 956 393
Width: 583
Flags: W
LayerCount: 2
Fore
SplineSet
524 0 m 1
 406 -15 l 1
 391 18 387 41 382 76 c 1
 355 29 313 -10 261 -10 c 0
 220 -10 192 2 169 36 c 1
 187 -4 198 -38 198 -105 c 2
 198 -204 l 1
 75 -217 l 1
 75 529 l 1
 203 529 l 1
 203 162 l 2
 203 107 229 88 266 88 c 0
 304 88 341 109 371 166 c 1
 371 529 l 1
 499 529 l 1
 499 181 l 2
 499 101 511 42 524 0 c 1
EndSplineSet
EndChar

StartChar: uni03BD
Encoding: 957 957 394
Width: 496
Flags: W
LayerCount: 2
Fore
SplineSet
106 543 m 1
 155 483 204 343 245 104 c 1
 370 543 l 1
 494 516 l 1
 318 0 l 1
 167 0 l 1
 108 256 59 426 -12 501 c 1
 106 543 l 1
EndSplineSet
EndChar

StartChar: uni03BE
Encoding: 958 958 395
Width: 444
Flags: W
LayerCount: 2
Fore
SplineSet
277 755 m 0
 354 755 410 736 459 697 c 1
 401 625 l 1
 367 648 337 661 295 661 c 0
 234 661 207 627 207 576 c 0
 207 518 242 484 300 484 c 2
 365 484 l 1
 351 391 l 1
 294 391 l 2
 220 391 172 343 172 268 c 0
 172 186 205 159 312 115 c 0
 409 74 459 42 459 -38 c 0
 459 -117 404 -169 288 -219 c 1
 238 -138 l 1
 290 -114 326 -92 326 -51 c 0
 326 -15 307 -2 228 32 c 0
 116 81 38 122 38 260 c 0
 38 374 112 429 199 444 c 1
 124 465 77 511 77 589 c 0
 77 685 158 755 277 755 c 0
EndSplineSet
EndChar

StartChar: uni03BF
Encoding: 959 959 396
Width: 584
Flags: W
LayerCount: 2
Fore
SplineSet
293 544 m 0
 449 544 541 438 541 265 c 0
 541 98 448 -15 292 -15 c 0
 136 -15 43 91 43 265 c 0
 43 431 136 544 293 544 c 0
293 447 m 0
 218 447 178 390 178 265 c 0
 178 138 217 82 292 82 c 0
 367 82 406 139 406 265 c 0
 406 391 367 447 293 447 c 0
EndSplineSet
EndChar

StartChar: uni03C0
Encoding: 960 960 397
Width: 604
Flags: W
LayerCount: 2
Fore
SplineSet
579 431 m 1
 509 431 l 1
 509 161 l 2
 509 111 521 94 554 79 c 1
 516 -15 l 1
 423 4 381 47 381 145 c 2
 381 431 l 1
 234 430 l 1
 234 0 l 1
 108 0 l 1
 108 430 l 1
 71 430 57 427 29 419 c 1
 7 510 l 1
 43 525 71 529 136 529 c 2
 579 529 l 1
 579 431 l 1
EndSplineSet
EndChar

StartChar: uni03C1
Encoding: 961 961 398
Width: 582
Flags: W
LayerCount: 2
Fore
SplineSet
295 544 m 0
 450 544 534 446 534 266 c 0
 534 111 458 -15 325 -15 c 0
 272 -15 227 2 192 49 c 1
 192 -204 l 1
 64 -218 l 1
 64 273 l 2
 64 449 141 544 295 544 c 0
290 83 m 0
 359 83 400 141 400 265 c 0
 400 400 362 449 297 449 c 0
 218 449 192 386 192 258 c 2
 192 143 l 1
 216 101 249 83 290 83 c 0
EndSplineSet
EndChar

StartChar: uni03C2
Encoding: 962 962 399
Width: 473
Flags: W
LayerCount: 2
Fore
SplineSet
290 544 m 0
 359 544 412 525 462 482 c 1
 404 404 l 1
 370 431 338 443 298 443 c 0
 226 443 178 391 178 274 c 0
 178 180 206 151 305 109 c 0
 385 76 440 44 440 -37 c 0
 440 -117 385 -169 269 -219 c 1
 220 -140 l 1
 271 -114 307 -92 307 -50 c 0
 307 -15 288 -3 216 26 c 0
 111 69 43 125 43 274 c 0
 43 438 140 544 290 544 c 0
EndSplineSet
EndChar

StartChar: uni03C3
Encoding: 963 963 400
Width: 596
Flags: W
LayerCount: 2
Fore
SplineSet
578 529 m 1
 578 433 l 1
 464 441 l 1
 510 407 541 348 541 261 c 0
 541 98 448 -15 292 -15 c 0
 136 -15 43 91 43 265 c 0
 43 427 129 537 316 537 c 0
 403 537 500 533 578 529 c 1
292 82 m 0
 367 82 406 139 406 261 c 0
 406 359 382 415 352 444 c 1
 349 444 l 2
 219 444 178 402 178 264 c 0
 178 138 217 82 292 82 c 0
EndSplineSet
EndChar

StartChar: uni03C4
Encoding: 964 964 401
Width: 471
Flags: W
LayerCount: 2
Fore
SplineSet
469 431 m 1
 298 431 l 1
 298 162 l 2
 298 112 310 94 342 79 c 1
 304 -15 l 1
 211 4 170 47 170 145 c 2
 170 431 l 1
 112 431 l 2
 60 430 47 428 16 419 c 1
 -7 510 l 1
 30 525 58 529 119 529 c 2
 469 529 l 1
 469 431 l 1
EndSplineSet
EndChar

StartChar: uni03C5
Encoding: 965 965 402
Width: 564
Flags: W
LayerCount: 2
Fore
SplineSet
482 529 m 1
 498 445 510 358 510 251 c 0
 510 62 383 -15 263 -15 c 0
 157 -15 69 45 69 173 c 2
 69 529 l 1
 197 529 l 1
 197 177 l 2
 197 111 224 82 271 82 c 0
 321 82 381 124 381 262 c 0
 381 341 372 433 355 529 c 1
 482 529 l 1
EndSplineSet
EndChar

StartChar: uni03C6
Encoding: 966 966 403
Width: 745
Flags: W
LayerCount: 2
Fore
SplineSet
697 269 m 0
 697 88 610 1 429 -14 c 1
 429 -204 l 1
 309 -218 l 1
 309 -14 l 1
 128 0 50 92 50 242 c 0
 50 355 80 451 110 529 c 1
 234 529 l 1
 204 448 175 357 175 252 c 0
 175 137 215 87 309 77 c 1
 309 331 l 2
 309 467 377 544 495 544 c 0
 625 544 697 459 697 269 c 0
429 77 m 1
 538 88 571 138 571 267 c 0
 571 415 548 453 497 453 c 0
 458 453 429 435 429 331 c 2
 429 77 l 1
EndSplineSet
EndChar

StartChar: uni03C7
Encoding: 967 967 404
Width: 481
Flags: W
LayerCount: 2
Fore
SplineSet
307 186 m 1
 485 -197 l 1
 356 -216 l 1
 239 81 l 1
 120 -216 l 1
 -9 -202 l 1
 174 185 l 1
 95 357 51 432 -14 501 c 1
 110 542 l 1
 158 479 191 424 242 274 c 1
 334 541 l 1
 466 527 l 1
 307 186 l 1
EndSplineSet
EndChar

StartChar: uni03C8
Encoding: 968 968 405
Width: 768
Flags: W
LayerCount: 2
Fore
SplineSet
713 251 m 0
 713 77 606 -1 446 -13 c 1
 446 -204 l 1
 324 -218 l 1
 324 -14 l 1
 145 -2 65 79 65 203 c 2
 65 529 l 1
 191 529 l 1
 191 211 l 2
 191 134 225 89 324 80 c 1
 324 529 l 1
 446 529 l 1
 446 81 l 1
 543 92 586 148 586 257 c 0
 586 337 578 433 560 529 c 1
 686 529 l 1
 702 445 713 358 713 251 c 0
EndSplineSet
EndChar

StartChar: uni03C9
Encoding: 969 969 406
Width: 776
Flags: W
LayerCount: 2
Fore
SplineSet
664 529 m 1
 696 455 726 360 726 241 c 0
 726 62 642 -15 534 -15 c 0
 456 -15 404 21 388 103 c 1
 368 20 322 -15 238 -15 c 0
 132 -15 50 59 50 241 c 0
 50 360 79 453 112 529 c 1
 231 529 l 1
 196 426 176 342 176 244 c 0
 176 129 206 82 259 82 c 0
 298 82 328 98 328 184 c 2
 328 355 l 1
 448 371 l 1
 448 184 l 2
 448 107 475 82 516 82 c 0
 560 82 600 116 600 245 c 0
 600 341 579 426 543 529 c 1
 664 529 l 1
EndSplineSet
EndChar

StartChar: uni03CA
Encoding: 970 970 407
Width: 279
Flags: W
LayerCount: 2
Fore
SplineSet
22 785 m 0
 61 785 91 755 91 716 c 0
 91 677 61 647 22 647 c 0
 -18 647 -49 677 -49 716 c 0
 -49 755 -18 785 22 785 c 0
243 785 m 0
 283 785 313 755 313 716 c 0
 313 677 283 647 243 647 c 0
 204 647 173 677 173 716 c 0
 173 755 204 785 243 785 c 0
197 529 m 1
 197 162 l 2
 197 112 209 94 241 79 c 1
 203 -15 l 1
 112 5 69 48 69 146 c 2
 69 529 l 1
 197 529 l 1
EndSplineSet
EndChar

StartChar: uni03CB
Encoding: 971 971 408
Width: 564
Flags: W
LayerCount: 2
Fore
SplineSet
170 785 m 0
 209 785 239 755 239 716 c 0
 239 677 209 647 170 647 c 0
 130 647 99 677 99 716 c 0
 99 755 130 785 170 785 c 0
391 785 m 0
 431 785 461 755 461 716 c 0
 461 677 431 647 391 647 c 0
 352 647 321 677 321 716 c 0
 321 755 352 785 391 785 c 0
482 529 m 1
 498 445 510 358 510 251 c 0
 510 62 383 -15 263 -15 c 0
 157 -15 69 45 69 173 c 2
 69 529 l 1
 197 529 l 1
 197 177 l 2
 197 111 224 82 271 82 c 0
 321 82 381 124 381 262 c 0
 381 341 372 433 355 529 c 1
 482 529 l 1
EndSplineSet
EndChar

StartChar: uni03CC
Encoding: 972 972 409
Width: 584
Flags: W
LayerCount: 2
Fore
SplineSet
247 823 m 1
 375 813 l 1
 334 596 l 1
 249 596 l 1
 247 823 l 1
293 544 m 0
 449 544 541 438 541 265 c 0
 541 98 448 -15 292 -15 c 0
 136 -15 43 91 43 265 c 0
 43 431 136 544 293 544 c 0
293 447 m 0
 218 447 178 390 178 265 c 0
 178 138 217 82 292 82 c 0
 367 82 406 139 406 265 c 0
 406 391 367 447 293 447 c 0
EndSplineSet
EndChar

StartChar: uni03CD
Encoding: 973 973 410
Width: 564
Flags: W
LayerCount: 2
Fore
SplineSet
236 823 m 1
 364 813 l 1
 323 596 l 1
 238 596 l 1
 236 823 l 1
482 529 m 1
 498 445 510 358 510 251 c 0
 510 62 383 -15 263 -15 c 0
 157 -15 69 45 69 173 c 2
 69 529 l 1
 197 529 l 1
 197 177 l 2
 197 111 224 82 271 82 c 0
 321 82 381 124 381 262 c 0
 381 341 372 433 355 529 c 1
 482 529 l 1
EndSplineSet
EndChar

StartChar: uni03CE
Encoding: 974 974 411
Width: 776
Flags: W
LayerCount: 2
Fore
SplineSet
343 823 m 1
 471 813 l 1
 430 596 l 1
 345 596 l 1
 343 823 l 1
664 529 m 1
 696 455 726 360 726 241 c 0
 726 62 642 -15 534 -15 c 0
 456 -15 404 21 388 103 c 1
 368 20 322 -15 238 -15 c 0
 132 -15 50 59 50 241 c 0
 50 360 79 453 112 529 c 1
 231 529 l 1
 196 426 176 342 176 244 c 0
 176 129 206 82 259 82 c 0
 298 82 328 98 328 184 c 2
 328 355 l 1
 448 371 l 1
 448 184 l 2
 448 107 475 82 516 82 c 0
 560 82 600 116 600 245 c 0
 600 341 579 426 543 529 c 1
 664 529 l 1
EndSplineSet
EndChar

StartChar: uni03D0
Encoding: 976 976 412
Width: 567
Flags: W
LayerCount: 2
Fore
SplineSet
363 434 m 0
 482 434 530 343 530 228 c 0
 530 95 439 -15 286 -15 c 0
 112 -15 45 121 45 344 c 0
 45 609 174 755 325 755 c 0
 446 755 487 685 487 621 c 0
 487 536 432 464 309 425 c 1
 332 432 347 434 363 434 c 0
317 662 m 0
 255 662 194 605 180 425 c 1
 212 438 l 2
 318 481 368 532 368 610 c 0
 368 646 347 662 317 662 c 0
286 82 m 0
 355 82 394 135 394 223 c 0
 394 314 370 369 290 369 c 0
 266 369 238 361 208 348 c 2
 177 334 l 1
 177 161 206 82 286 82 c 0
EndSplineSet
EndChar

StartChar: uni03D1
Encoding: 977 977 413
Width: 544
Flags: W
LayerCount: 2
Fore
SplineSet
530 494 m 1
 530 403 l 1
 495 403 l 1
 495 402 l 2
 495 126 425 -15 240 -15 c 0
 134 -15 50 45 50 173 c 2
 50 351 l 1
 174 351 l 1
 174 171 l 2
 174 109 199 80 246 81 c 0
 326 82 362 160 362 401 c 2
 362 403 l 1
 258 403 l 2
 100 403 33 473 33 574 c 0
 33 672 116 755 238 755 c 0
 389 755 469 657 490 494 c 1
 530 494 l 1
261 493 m 2
 358 493 l 1
 345 612 306 659 239 659 c 0
 184 659 152 624 152 577 c 0
 152 520 192 492 261 493 c 2
EndSplineSet
EndChar

StartChar: uni03D2
Encoding: 978 978 414
Width: 611
Flags: W
LayerCount: 2
Fore
SplineSet
220 0 m 1
 220 261 l 1
 -2 691 l 1
 144 691 l 1
 290 370 l 1
 378 575 l 2
 415 669 461 706 544 706 c 0
 593 706 627 690 658 668 c 1
 617 592 l 1
 602 602 583 610 559 610 c 0
 528 610 511 596 489 549 c 2
 354 262 l 1
 354 0 l 1
 220 0 l 1
EndSplineSet
EndChar

StartChar: uni03D5
Encoding: 981 981 415
Width: 647
Flags: W
LayerCount: 2
Fore
SplineSet
612 267 m 0
 612 100 517 15 387 4 c 1
 387 -204 l 1
 259 -218 l 1
 259 4 l 1
 126 16 35 102 35 263 c 0
 35 430 130 515 259 525 c 1
 259 740 l 1
 387 753 l 1
 387 525 l 1
 521 514 612 427 612 267 c 0
164 263 m 0
 164 157 200 100 268 92 c 1
 268 438 l 1
 197 429 164 374 164 263 c 0
378 92 m 1
 449 100 483 157 483 267 c 0
 483 375 446 430 378 437 c 1
 378 92 l 1
EndSplineSet
EndChar

StartChar: uni03D6
Encoding: 982 982 416
Width: 742
Flags: W
LayerCount: 2
Fore
SplineSet
720 529 m 1
 720 434 l 1
 625 434 l 1
 663 376 693 307 693 221 c 0
 693 64 613 -15 511 -15 c 0
 439 -15 388 21 372 103 c 1
 352 20 305 -15 228 -15 c 0
 127 -15 50 61 50 221 c 0
 50 307 79 376 118 434 c 1
 78 434 64 432 34 423 c 1
 12 510 l 1
 48 525 87 529 178 529 c 2
 720 529 l 1
567 229 m 0
 567 305 549 369 518 434 c 1
 224 434 l 1
 193 369 176 305 176 228 c 0
 176 129 201 82 248 82 c 0
 282 82 312 98 312 184 c 2
 312 311 l 1
 431 327 l 1
 431 184 l 2
 431 107 459 82 492 82 c 0
 532 82 567 116 567 229 c 0
EndSplineSet
EndChar

StartChar: uni03D7
Encoding: 983 983 417
Width: 584
Flags: W
LayerCount: 2
Fore
SplineSet
501 162 m 2
 501 110 512 89 546 74 c 1
 546 -46 l 2
 546 -162 479 -221 372 -221 c 0
 313 -221 269 -202 241 -180 c 1
 286 -103 l 1
 310 -116 330 -124 364 -124 c 0
 404 -124 428 -104 428 -57 c 2
 429 29 l 1
 395 52 379 88 379 144 c 0
 379 207 405 365 418 413 c 1
 194 -10 l 1
 82 25 l 1
 82 367 l 2
 82 416 72 434 38 450 c 1
 78 544 l 1
 162 524 205 477 205 385 c 0
 205 322 178 164 165 116 c 1
 390 539 l 1
 501 504 l 1
 501 162 l 2
EndSplineSet
EndChar

StartChar: uni03F0
Encoding: 1008 1008 418
Width: 584
Flags: W
LayerCount: 2
Fore
SplineSet
501 162 m 2
 501 113 512 95 546 79 c 1
 506 -15 l 1
 422 5 379 52 379 144 c 0
 379 207 405 365 418 413 c 1
 194 -10 l 1
 82 25 l 1
 82 367 l 2
 82 416 72 434 38 450 c 1
 78 544 l 1
 162 524 205 477 205 385 c 0
 205 322 178 164 165 116 c 1
 390 539 l 1
 501 504 l 1
 501 162 l 2
EndSplineSet
EndChar

StartChar: uni03F1
Encoding: 1009 1009 419
Width: 582
Flags: W
LayerCount: 2
Fore
SplineSet
324 -86 m 0
 419 -101 461 -130 477 -187 c 1
 364 -220 l 1
 351 -190 335 -184 244 -170 c 0
 124 -152 64 -102 64 26 c 2
 64 273 l 2
 64 449 141 544 295 544 c 0
 450 544 534 446 534 289 c 0
 534 149 458 21 325 21 c 0
 272 21 227 40 192 87 c 1
 192 14 l 2
 192 -55 219 -70 324 -86 c 0
297 449 m 0
 218 449 192 386 192 258 c 2
 192 181 l 1
 216 138 249 118 290 118 c 0
 359 118 400 180 400 288 c 0
 400 400 362 449 297 449 c 0
EndSplineSet
EndChar

StartChar: uni03F2
Encoding: 1010 1010 420
Width: 512
Flags: W
LayerCount: 2
Fore
SplineSet
309 544 m 0
 387 544 439 525 496 482 c 1
 439 405 l 1
 397 431 365 443 318 443 c 0
 234 443 179 387 179 262 c 0
 179 136 236 89 317 89 c 0
 368 89 397 102 439 125 c 1
 496 46 l 1
 444 8 388 -15 309 -15 c 0
 148 -15 43 88 43 260 c 0
 43 429 149 544 309 544 c 0
EndSplineSet
EndChar

StartChar: uni03F4
Encoding: 1012 1012 421
Width: 691
Flags: W
LayerCount: 2
Fore
SplineSet
346 706 m 0
 531 706 648 577 648 346 c 0
 648 118 531 -15 346 -15 c 0
 161 -15 43 114 43 345 c 0
 43 572 161 706 346 706 c 0
346 605 m 0
 240 605 178 531 178 345 c 0
 178 159 242 86 346 86 c 0
 453 86 514 159 514 346 c 0
 514 531 453 605 346 605 c 0
455 394 m 1
 455 310 l 1
 236 310 l 1
 236 394 l 1
 455 394 l 1
EndSplineSet
EndChar

StartChar: uni03F5
Encoding: 1013 1013 422
Width: 484
Flags: W
LayerCount: 2
Fore
SplineSet
299 82 m 0
 336 82 368 93 408 123 c 1
 465 46 l 1
 415 6 359 -15 296 -15 c 0
 138 -15 43 91 43 262 c 0
 43 431 140 544 291 544 c 0
 359 544 415 525 465 482 c 1
 408 409 l 1
 368 439 336 448 299 448 c 0
 227 448 180 404 175 311 c 1
 378 311 l 1
 378 230 l 1
 174 230 l 1
 179 125 228 82 299 82 c 0
EndSplineSet
EndChar

StartChar: uni03F6
Encoding: 1014 1014 423
Width: 485
Flags: W
LayerCount: 2
Fore
SplineSet
214 544 m 0
 352 544 442 454 442 268 c 0
 442 95 356 -15 194 -15 c 0
 124 -15 67 7 20 44 c 1
 77 121 l 1
 114 94 145 82 191 82 c 0
 255 82 304 122 310 230 c 1
 109 230 l 1
 109 311 l 1
 310 311 l 1
 303 408 267 448 206 448 c 0
 163 448 128 437 89 411 c 1
 34 484 l 1
 83 523 140 544 214 544 c 0
EndSplineSet
EndChar

StartChar: uni0400
Encoding: 1024 1024 424
Width: 530
Flags: W
LayerCount: 2
Fore
SplineSet
196 936 m 1
 408 819 l 1
 375 753 l 1
 146 836 l 1
 196 936 l 1
482 691 m 1
 468 593 l 1
 213 593 l 1
 213 400 l 1
 435 400 l 1
 435 302 l 1
 213 302 l 1
 213 99 l 1
 486 99 l 1
 486 0 l 1
 81 0 l 1
 81 691 l 1
 482 691 l 1
EndSplineSet
EndChar

StartChar: uni0401
Encoding: 1025 1025 425
Width: 530
Flags: W
LayerCount: 2
Fore
SplineSet
173 911 m 0
 212 911 242 881 242 842 c 0
 242 803 212 773 173 773 c 0
 133 773 102 803 102 842 c 0
 102 881 133 911 173 911 c 0
394 911 m 0
 434 911 464 881 464 842 c 0
 464 803 434 773 394 773 c 0
 355 773 324 803 324 842 c 0
 324 881 355 911 394 911 c 0
482 691 m 1
 468 593 l 1
 213 593 l 1
 213 400 l 1
 435 400 l 1
 435 302 l 1
 213 302 l 1
 213 99 l 1
 486 99 l 1
 486 0 l 1
 81 0 l 1
 81 691 l 1
 482 691 l 1
EndSplineSet
EndChar

StartChar: uni0402
Encoding: 1026 1026 426
Width: 735
Flags: W
LayerCount: 2
Fore
SplineSet
493 462 m 0
 629 462 705 375 705 232 c 2
 705 101 l 2
 705 -60 616 -118 502 -155 c 1
 466 -60 l 1
 557 -25 572 19 572 106 c 2
 572 231 l 2
 572 316 538 359 459 359 c 0
 400 359 362 337 331 301 c 1
 331 0 l 1
 198 0 l 1
 198 587 l 1
 12 587 l 1
 12 691 l 1
 525 691 l 1
 511 587 l 1
 331 587 l 1
 331 401 l 1
 371 439 422 462 493 462 c 0
EndSplineSet
EndChar

StartChar: uni0403
Encoding: 1027 1027 427
Width: 509
Flags: W
LayerCount: 2
Fore
SplineSet
437 836 m 1
 208 753 l 1
 175 819 l 1
 387 936 l 1
 437 836 l 1
504 691 m 1
 488 584 l 1
 213 584 l 1
 213 0 l 1
 81 0 l 1
 81 691 l 1
 504 691 l 1
EndSplineSet
EndChar

StartChar: uni0404
Encoding: 1028 1028 428
Width: 568
Flags: W
LayerCount: 2
Fore
SplineSet
495 147 m 1
 555 69 l 1
 513 26 441 -15 343 -15 c 0
 167 -15 43 112 43 347 c 0
 43 579 175 706 343 706 c 0
 433 706 490 680 547 633 c 1
 480 555 l 1
 438 589 398 605 350 605 c 0
 263 605 191 547 181 404 c 1
 429 404 l 1
 429 306 l 1
 180 306 l 1
 186 156 259 89 350 89 c 0
 413 89 455 116 495 147 c 1
EndSplineSet
EndChar

StartChar: uni0405
Encoding: 1029 1029 429
Width: 560
Flags: W
LayerCount: 2
Fore
SplineSet
280 706 m 0
 381 706 448 676 508 621 c 1
 443 546 l 1
 393 587 345 605 288 605 c 0
 226 605 181 577 181 523 c 0
 181 473 208 451 323 415 c 0
 444 377 528 327 528 197 c 0
 528 73 431 -15 266 -15 c 0
 156 -15 74 24 17 80 c 1
 85 156 l 1
 136 113 191 87 263 87 c 0
 337 87 390 123 390 190 c 0
 390 248 361 274 253 307 c 0
 108 352 45 410 45 515 c 0
 45 630 144 706 280 706 c 0
EndSplineSet
EndChar

StartChar: uni0406
Encoding: 1030 1030 430
Width: 294
Flags: W
LayerCount: 2
Fore
SplineSet
213 691 m 1
 213 0 l 1
 81 0 l 1
 81 691 l 1
 213 691 l 1
EndSplineSet
EndChar

StartChar: uni0407
Encoding: 1031 1031 431
Width: 294
Flags: W
LayerCount: 2
Fore
SplineSet
35 911 m 0
 74 911 104 881 104 842 c 0
 104 803 74 773 35 773 c 0
 -5 773 -36 803 -36 842 c 0
 -36 881 -5 911 35 911 c 0
256 911 m 0
 296 911 326 881 326 842 c 0
 326 803 296 773 256 773 c 0
 217 773 186 803 186 842 c 0
 186 881 217 911 256 911 c 0
213 691 m 1
 213 0 l 1
 81 0 l 1
 81 691 l 1
 213 691 l 1
EndSplineSet
EndChar

StartChar: uni0408
Encoding: 1032 1032 432
Width: 312
Flags: W
LayerCount: 2
Fore
SplineSet
235 691 m 1
 235 101 l 2
 235 -60 146 -118 32 -155 c 1
 -3 -60 l 1
 87 -25 102 19 102 106 c 2
 102 691 l 1
 235 691 l 1
EndSplineSet
EndChar

StartChar: uni0409
Encoding: 1033 1033 433
Width: 917
Flags: W
LayerCount: 2
Fore
SplineSet
625 447 m 2
 795 447 897 377 897 229 c 0
 897 67 784 0 627 0 c 2
 423 0 l 1
 423 587 l 1
 268 587 l 1
 238 324 l 2
 211 89 173 20 39 -15 c 1
 8 82 l 1
 81 110 91 154 111 325 c 2
 154 691 l 1
 555 691 l 1
 555 447 l 1
 625 447 l 2
623 99 m 2
 704 99 758 129 758 227 c 0
 758 315 710 351 618 351 c 2
 555 351 l 1
 555 99 l 1
 623 99 l 2
EndSplineSet
EndChar

StartChar: uni040A
Encoding: 1034 1034 434
Width: 948
Flags: W
LayerCount: 2
Fore
SplineSet
662 431 m 2
 826 431 928 361 928 221 c 0
 928 66 816 0 660 0 c 2
 454 0 l 1
 454 333 l 1
 213 333 l 1
 213 0 l 1
 81 0 l 1
 81 691 l 1
 213 691 l 1
 213 431 l 1
 454 431 l 1
 454 691 l 1
 587 691 l 1
 587 431 l 1
 662 431 l 2
661 100 m 2
 736 100 789 129 789 219 c 0
 789 300 741 333 657 333 c 2
 587 333 l 1
 587 100 l 1
 661 100 l 2
EndSplineSet
EndChar

StartChar: uni040B
Encoding: 1035 1035 435
Width: 735
Flags: W
LayerCount: 2
Fore
SplineSet
492 462 m 0
 628 462 705 375 705 232 c 2
 705 0 l 1
 572 0 l 1
 572 231 l 2
 572 316 538 359 461 359 c 0
 402 359 362 337 331 301 c 1
 331 0 l 1
 198 0 l 1
 198 587 l 1
 12 587 l 1
 12 691 l 1
 525 691 l 1
 511 587 l 1
 331 587 l 1
 331 401 l 1
 371 439 422 462 492 462 c 0
EndSplineSet
EndChar

StartChar: uni040C
Encoding: 1036 1036 436
Width: 608
Flags: W
LayerCount: 2
Fore
SplineSet
383 936 m 1
 433 836 l 1
 204 753 l 1
 171 819 l 1
 383 936 l 1
588 691 m 1
 407 373 l 1
 606 0 l 1
 458 0 l 1
 296 311 l 1
 213 311 l 1
 213 0 l 1
 81 0 l 1
 81 691 l 1
 213 691 l 1
 213 412 l 1
 298 412 l 1
 454 691 l 1
 588 691 l 1
EndSplineSet
EndChar

StartChar: uni040D
Encoding: 1037 1037 437
Width: 672
Flags: W
LayerCount: 2
Fore
SplineSet
249 936 m 1
 461 819 l 1
 428 753 l 1
 199 836 l 1
 249 936 l 1
591 691 m 1
 591 0 l 1
 460 0 l 1
 460 294 l 2
 460 409 471 499 479 555 c 1
 244 0 l 1
 81 0 l 1
 81 691 l 1
 212 691 l 1
 212 394 l 2
 212 269 202 199 193 136 c 1
 432 691 l 1
 591 691 l 1
EndSplineSet
EndChar

StartChar: uni040E
Encoding: 1038 1038 438
Width: 560
Flags: W
LayerCount: 2
Fore
SplineSet
279 754 m 0
 185 754 125 808 117 891 c 1
 192 905 l 1
 205 863 233 846 279 846 c 0
 325 846 355 863 367 905 c 1
 443 891 l 1
 435 808 373 754 279 754 c 0
572 691 m 1
 380 197 l 2
 323 48 255 2 112 -15 c 1
 94 77 l 1
 183 91 223 115 254 186 c 1
 210 186 l 1
 -7 691 l 1
 130 691 l 1
 293 263 l 1
 437 691 l 1
 572 691 l 1
EndSplineSet
EndChar

StartChar: uni040F
Encoding: 1039 1039 439
Width: 661
Flags: W
LayerCount: 2
Fore
SplineSet
580 691 m 1
 580 0 l 1
 383 0 l 1
 383 -158 l 1
 287 -158 l 1
 270 0 l 1
 81 0 l 1
 81 691 l 1
 213 691 l 1
 213 105 l 1
 447 105 l 1
 447 691 l 1
 580 691 l 1
EndSplineSet
EndChar

StartChar: uni0410
Encoding: 1040 1040 440
Width: 583
Flags: W
LayerCount: 2
Fore
SplineSet
447 0 m 1
 404 160 l 1
 175 160 l 1
 132 0 l 1
 -5 0 l 1
 210 691 l 1
 373 691 l 1
 587 0 l 1
 447 0 l 1
201 260 m 1
 378 260 l 1
 289 590 l 1
 201 260 l 1
EndSplineSet
EndChar

StartChar: uni0411
Encoding: 1041 1041 441
Width: 588
Flags: W
LayerCount: 2
Fore
SplineSet
295 439 m 2
 463 439 565 369 565 225 c 0
 565 67 452 0 295 0 c 2
 81 0 l 1
 81 691 l 1
 487 691 l 1
 473 588 l 1
 213 588 l 1
 213 439 l 1
 295 439 l 2
291 99 m 2
 372 99 426 129 426 223 c 0
 426 307 378 343 288 343 c 2
 213 343 l 1
 213 99 l 1
 291 99 l 2
EndSplineSet
EndChar

StartChar: uni0412
Encoding: 1042 1042 442
Width: 613
Flags: W
LayerCount: 2
Fore
SplineSet
420 366 m 1
 499 351 578 314 578 199 c 0
 578 47 457 0 289 0 c 2
 81 0 l 1
 81 691 l 1
 262 691 l 2
 440 691 548 641 548 515 c 0
 548 429 486 380 420 366 c 1
275 594 m 2
 213 594 l 1
 213 407 l 1
 294 407 l 2
 366 407 413 439 413 504 c 0
 413 574 365 594 275 594 c 2
290 99 m 2
 377 99 440 117 440 204 c 0
 440 287 381 315 304 315 c 2
 213 315 l 1
 213 99 l 1
 290 99 l 2
EndSplineSet
EndChar

StartChar: uni0413
Encoding: 1043 1043 443
Width: 509
Flags: W
LayerCount: 2
Fore
SplineSet
504 691 m 1
 488 584 l 1
 213 584 l 1
 213 0 l 1
 81 0 l 1
 81 691 l 1
 504 691 l 1
EndSplineSet
EndChar

StartChar: uni0414
Encoding: 1044 1044 444
Width: 622
Flags: W
LayerCount: 2
Fore
SplineSet
535 104 m 1
 594 104 l 1
 594 -158 l 1
 498 -158 l 1
 481 0 l 1
 101 0 l 1
 84 -158 l 1
 -12 -158 l 1
 -12 104 l 1
 37 104 l 1
 84 154 97 225 130 482 c 2
 156 691 l 1
 535 691 l 1
 535 104 l 1
405 104 m 1
 405 590 l 1
 269 590 l 1
 258 487 l 2
 231 240 211 157 145 104 c 1
 405 104 l 1
EndSplineSet
EndChar

StartChar: uni0415
Encoding: 1045 1045 445
Width: 530
Flags: W
LayerCount: 2
Fore
SplineSet
482 691 m 1
 468 593 l 1
 213 593 l 1
 213 400 l 1
 435 400 l 1
 435 302 l 1
 213 302 l 1
 213 99 l 1
 486 99 l 1
 486 0 l 1
 81 0 l 1
 81 691 l 1
 482 691 l 1
EndSplineSet
EndChar

StartChar: uni0416
Encoding: 1046 1046 446
Width: 867
Flags: W
LayerCount: 2
Fore
SplineSet
850 691 m 1
 673 373 l 1
 869 0 l 1
 723 0 l 1
 566 312 l 1
 495 312 l 1
 495 0 l 1
 372 0 l 1
 372 312 l 1
 300 312 l 1
 141 0 l 1
 -2 0 l 1
 194 373 l 1
 17 691 l 1
 151 691 l 1
 302 411 l 1
 372 411 l 1
 372 691 l 1
 495 691 l 1
 495 411 l 1
 564 411 l 1
 717 691 l 1
 850 691 l 1
EndSplineSet
EndChar

StartChar: uni0417
Encoding: 1047 1047 447
Width: 532
Flags: W
LayerCount: 2
Fore
SplineSet
234 -15 m 0
 138 -15 60 18 3 81 c 1
 77 152 l 1
 118 111 164 88 226 88 c 0
 308 88 357 130 357 202 c 0
 357 273 312 315 220 315 c 2
 151 315 l 1
 167 414 l 1
 222 414 l 2
 294 414 338 451 338 513 c 0
 338 564 310 606 236 606 c 0
 185 606 136 586 87 546 c 1
 23 617 l 1
 87 676 162 706 251 706 c 0
 396 706 475 628 475 527 c 0
 475 444 422 388 330 368 c 1
 426 358 497 302 497 197 c 0
 497 69 388 -15 234 -15 c 0
EndSplineSet
EndChar

StartChar: uni0418
Encoding: 1048 1048 448
Width: 672
Flags: W
LayerCount: 2
Fore
SplineSet
591 691 m 1
 591 0 l 1
 460 0 l 1
 460 294 l 2
 460 409 471 499 479 555 c 1
 244 0 l 1
 81 0 l 1
 81 691 l 1
 212 691 l 1
 212 394 l 2
 212 269 202 199 193 136 c 1
 432 691 l 1
 591 691 l 1
EndSplineSet
EndChar

StartChar: uni0419
Encoding: 1049 1049 449
Width: 672
Flags: W
LayerCount: 2
Fore
SplineSet
335 754 m 0
 241 754 181 808 173 891 c 1
 248 905 l 1
 261 863 289 846 335 846 c 0
 381 846 411 863 423 905 c 1
 499 891 l 1
 491 808 429 754 335 754 c 0
591 691 m 1
 591 0 l 1
 460 0 l 1
 460 294 l 2
 460 409 471 499 479 555 c 1
 244 0 l 1
 81 0 l 1
 81 691 l 1
 212 691 l 1
 212 394 l 2
 212 269 202 199 193 136 c 1
 432 691 l 1
 591 691 l 1
EndSplineSet
EndChar

StartChar: uni041A
Encoding: 1050 1050 450
Width: 608
Flags: W
LayerCount: 2
Fore
SplineSet
588 691 m 1
 407 373 l 1
 606 0 l 1
 458 0 l 1
 296 311 l 1
 213 311 l 1
 213 0 l 1
 81 0 l 1
 81 691 l 1
 213 691 l 1
 213 412 l 1
 298 412 l 1
 454 691 l 1
 588 691 l 1
EndSplineSet
EndChar

StartChar: uni041B
Encoding: 1051 1051 451
Width: 657
Flags: W
LayerCount: 2
Fore
SplineSet
154 691 m 1
 576 691 l 1
 576 0 l 1
 444 0 l 1
 444 587 l 1
 268 587 l 1
 238 324 l 2
 211 89 173 20 39 -15 c 1
 8 82 l 1
 81 110 91 154 111 325 c 2
 154 691 l 1
EndSplineSet
EndChar

StartChar: uni041C
Encoding: 1052 1052 452
Width: 782
Flags: W
LayerCount: 2
Fore
SplineSet
682 691 m 1
 736 0 l 1
 607 0 l 1
 589 289 l 2
 583 391 578 498 580 571 c 1
 454 75 l 1
 329 75 l 1
 195 572 l 1
 199 479 197 384 191 285 c 2
 174 0 l 1
 46 0 l 1
 101 691 l 1
 271 691 l 1
 394 207 l 1
 510 691 l 1
 682 691 l 1
EndSplineSet
EndChar

StartChar: uni041D
Encoding: 1053 1053 453
Width: 672
Flags: W
LayerCount: 2
Fore
SplineSet
459 0 m 1
 459 309 l 1
 213 309 l 1
 213 0 l 1
 81 0 l 1
 81 691 l 1
 213 691 l 1
 213 414 l 1
 459 414 l 1
 459 691 l 1
 592 691 l 1
 592 0 l 1
 459 0 l 1
EndSplineSet
EndChar

StartChar: uni041E
Encoding: 1054 1054 454
Width: 691
Flags: W
LayerCount: 2
Fore
SplineSet
346 706 m 0
 531 706 648 577 648 346 c 0
 648 118 531 -15 346 -15 c 0
 161 -15 43 114 43 345 c 0
 43 572 161 706 346 706 c 0
346 605 m 0
 243 605 182 531 182 345 c 0
 182 159 245 86 346 86 c 0
 449 86 509 159 509 346 c 0
 509 531 450 605 346 605 c 0
EndSplineSet
EndChar

StartChar: uni041F
Encoding: 1055 1055 455
Width: 669
Flags: W
LayerCount: 2
Fore
SplineSet
588 691 m 1
 588 0 l 1
 456 0 l 1
 456 586 l 1
 213 586 l 1
 213 0 l 1
 81 0 l 1
 81 691 l 1
 588 691 l 1
EndSplineSet
EndChar

StartChar: uni0420
Encoding: 1056 1056 456
Width: 591
Flags: W
LayerCount: 2
Fore
SplineSet
285 691 m 2
 459 691 565 620 565 471 c 0
 565 312 450 241 294 241 c 2
 213 241 l 1
 213 0 l 1
 81 0 l 1
 81 691 l 1
 285 691 l 2
284 340 m 2
 372 340 427 370 427 471 c 0
 427 558 374 594 284 594 c 2
 213 594 l 1
 213 340 l 1
 284 340 l 2
EndSplineSet
EndChar

StartChar: uni0421
Encoding: 1057 1057 457
Width: 568
Flags: W
LayerCount: 2
Fore
SplineSet
345 706 m 0
 433 706 490 680 547 633 c 1
 480 555 l 1
 440 587 399 604 352 604 c 0
 256 604 182 534 182 347 c 0
 182 165 254 91 352 91 c 0
 412 91 453 117 493 147 c 1
 555 69 l 1
 513 26 441 -15 347 -15 c 0
 168 -15 43 112 43 347 c 0
 43 579 175 706 345 706 c 0
EndSplineSet
EndChar

StartChar: uni0422
Encoding: 1058 1058 458
Width: 530
Flags: W
LayerCount: 2
Fore
SplineSet
525 691 m 1
 511 586 l 1
 331 586 l 1
 331 0 l 1
 198 0 l 1
 198 586 l 1
 12 586 l 1
 12 691 l 1
 525 691 l 1
EndSplineSet
EndChar

StartChar: uni0423
Encoding: 1059 1059 459
Width: 560
Flags: W
LayerCount: 2
Fore
SplineSet
572 691 m 1
 380 197 l 2
 323 48 255 2 112 -15 c 1
 94 77 l 1
 183 91 223 115 254 186 c 1
 210 186 l 1
 -7 691 l 1
 130 691 l 1
 293 263 l 1
 437 691 l 1
 572 691 l 1
EndSplineSet
EndChar

StartChar: uni0424
Encoding: 1060 1060 460
Width: 838
Flags: W
LayerCount: 2
Fore
SplineSet
808 350 m 0
 808 146 679 50 483 43 c 1
 483 -37 l 1
 354 -37 l 1
 354 44 l 1
 150 54 30 153 30 347 c 0
 30 552 159 647 354 654 c 1
 354 727 l 1
 483 727 l 1
 483 653 l 1
 688 644 808 545 808 350 c 0
165 347 m 0
 165 205 228 138 359 131 c 1
 359 567 l 1
 226 558 165 492 165 347 c 0
478 131 m 1
 612 140 673 204 673 350 c 0
 673 493 610 559 478 566 c 1
 478 131 l 1
EndSplineSet
EndChar

StartChar: uni0425
Encoding: 1061 1061 461
Width: 562
Flags: W
LayerCount: 2
Fore
SplineSet
358 373 m 1
 563 0 l 1
 416 0 l 1
 278 283 l 1
 141 0 l 1
 0 0 l 1
 200 368 l 1
 16 691 l 1
 163 691 l 1
 280 452 l 1
 402 691 l 1
 543 691 l 1
 358 373 l 1
EndSplineSet
EndChar

StartChar: uni0426
Encoding: 1062 1062 462
Width: 677
Flags: W
LayerCount: 2
Fore
SplineSet
580 104 m 1
 660 104 l 1
 660 -158 l 1
 564 -158 l 1
 547 0 l 1
 81 0 l 1
 81 691 l 1
 213 691 l 1
 213 105 l 1
 447 105 l 1
 447 691 l 1
 580 691 l 1
 580 104 l 1
EndSplineSet
EndChar

StartChar: uni0427
Encoding: 1063 1063 463
Width: 616
Flags: W
LayerCount: 2
Fore
SplineSet
402 691 m 1
 535 691 l 1
 535 0 l 1
 402 0 l 1
 402 266 l 1
 351 228 306 210 239 210 c 0
 109 210 30 296 30 433 c 2
 30 691 l 1
 161 691 l 1
 161 438 l 2
 161 351 200 313 275 313 c 0
 334 313 374 333 402 360 c 1
 402 691 l 1
EndSplineSet
EndChar

StartChar: uni0428
Encoding: 1064 1064 464
Width: 917
Flags: W
LayerCount: 2
Fore
SplineSet
836 691 m 1
 836 0 l 1
 81 0 l 1
 81 691 l 1
 211 691 l 1
 211 105 l 1
 396 105 l 1
 396 691 l 1
 520 691 l 1
 520 105 l 1
 706 105 l 1
 706 691 l 1
 836 691 l 1
EndSplineSet
EndChar

StartChar: uni0429
Encoding: 1065 1065 465
Width: 932
Flags: W
LayerCount: 2
Fore
SplineSet
836 104 m 1
 916 104 l 1
 916 -158 l 1
 820 -158 l 1
 803 0 l 1
 81 0 l 1
 81 691 l 1
 211 691 l 1
 211 105 l 1
 396 105 l 1
 396 691 l 1
 520 691 l 1
 520 105 l 1
 706 105 l 1
 706 691 l 1
 836 691 l 1
 836 104 l 1
EndSplineSet
EndChar

StartChar: uni042A
Encoding: 1066 1066 466
Width: 703
Flags: W
LayerCount: 2
Fore
SplineSet
413 447 m 2
 580 447 683 377 683 229 c 0
 683 67 570 0 413 0 c 2
 198 0 l 1
 198 587 l 1
 12 587 l 1
 12 691 l 1
 331 691 l 1
 331 447 l 1
 413 447 l 2
409 99 m 2
 490 99 543 129 543 227 c 0
 543 315 496 351 406 351 c 2
 331 351 l 1
 331 99 l 1
 409 99 l 2
EndSplineSet
EndChar

StartChar: uni042B
Encoding: 1067 1067 467
Width: 836
Flags: W
LayerCount: 2
Fore
SplineSet
283 447 m 2
 453 447 555 377 555 229 c 0
 555 67 442 0 285 0 c 2
 81 0 l 1
 81 691 l 1
 213 691 l 1
 213 447 l 1
 283 447 l 2
623 691 m 1
 755 691 l 1
 755 0 l 1
 623 0 l 1
 623 691 l 1
281 99 m 2
 362 99 416 129 416 227 c 0
 416 315 368 351 276 351 c 2
 213 351 l 1
 213 99 l 1
 281 99 l 2
EndSplineSet
EndChar

StartChar: uni042C
Encoding: 1068 1068 468
Width: 585
Flags: W
LayerCount: 2
Fore
SplineSet
295 447 m 2
 463 447 565 377 565 229 c 0
 565 67 452 0 295 0 c 2
 81 0 l 1
 81 691 l 1
 213 691 l 1
 213 447 l 1
 295 447 l 2
291 99 m 2
 372 99 426 129 426 227 c 0
 426 315 378 351 288 351 c 2
 213 351 l 1
 213 99 l 1
 291 99 l 2
EndSplineSet
EndChar

StartChar: uni042D
Encoding: 1069 1069 469
Width: 539
Flags: W
LayerCount: 2
Fore
SplineSet
229 706 m 0
 388 706 496 601 496 350 c 0
 496 112 390 -15 216 -15 c 0
 122 -15 60 18 13 63 c 1
 75 139 l 1
 113 109 149 89 209 89 c 0
 301 89 354 154 359 306 c 1
 110 306 l 1
 110 404 l 1
 359 404 l 1
 352 553 297 605 222 605 c 0
 165 605 129 589 85 555 c 1
 20 631 l 1
 76 678 137 706 229 706 c 0
EndSplineSet
EndChar

StartChar: uni042E
Encoding: 1070 1070 470
Width: 917
Flags: W
LayerCount: 2
Fore
SplineSet
581 706 m 0
 763 706 874 577 874 346 c 0
 874 118 763 -15 581 -15 c 0
 409 -15 307 102 293 305 c 1
 213 305 l 1
 213 0 l 1
 81 0 l 1
 81 691 l 1
 213 691 l 1
 213 411 l 1
 296 411 l 1
 319 599 419 706 581 706 c 0
581 86 m 0
 678 86 734 159 734 346 c 0
 734 531 679 605 581 605 c 0
 485 605 428 531 428 342 c 0
 428 159 487 86 581 86 c 0
EndSplineSet
EndChar

StartChar: uni042F
Encoding: 1071 1071 471
Width: 607
Flags: W
LayerCount: 2
Fore
SplineSet
312 691 m 2
 526 691 l 1
 526 0 l 1
 394 0 l 1
 394 259 l 1
 285 259 l 1
 162 0 l 1
 15 0 l 1
 164 283 l 1
 81 317 37 381 37 474 c 0
 37 614 130 691 312 691 c 2
297 356 m 2
 394 356 l 1
 394 595 l 1
 319 595 l 2
 219 595 177 553 177 472 c 0
 177 393 227 356 297 356 c 2
EndSplineSet
EndChar

StartChar: uni0430
Encoding: 1072 1072 472
Width: 543
Flags: W
LayerCount: 2
Fore
SplineSet
465 140 m 2
 465 97 479 82 505 72 c 1
 478 -13 l 1
 419 -8 381 12 361 64 c 1
 323 8 266 -15 202 -15 c 0
 97 -15 32 52 32 148 c 0
 32 263 118 325 272 325 c 2
 339 325 l 1
 339 355 l 2
 339 424 308 447 240 447 c 0
 204 447 153 437 99 419 c 1
 70 506 l 1
 135 531 202 544 261 544 c 0
 403 544 465 479 465 362 c 2
 465 140 l 2
237 78 m 0
 281 78 315 101 339 143 c 1
 339 250 l 1
 286 250 l 2
 203 250 162 220 162 158 c 0
 162 107 188 78 237 78 c 0
EndSplineSet
EndChar

StartChar: uni0431
Encoding: 1073 1073 473
Width: 580
Flags: W
LayerCount: 2
Fore
SplineSet
343 494 m 0
 457 494 541 404 541 249 c 0
 541 83 443 -15 297 -15 c 0
 153 -15 52 78 52 294 c 0
 52 515 96 624 263 679 c 0
 343 705 380 721 435 755 c 1
 484 669 l 1
 441 641 394 618 317 593 c 0
 230 565 190 529 178 404 c 1
 214 459 269 494 343 494 c 0
297 82 m 0
 357 82 406 116 406 245 c 0
 406 360 370 397 311 397 c 0
 262 397 215 372 186 315 c 1
 186 249 l 2
 186 137 229 82 297 82 c 0
EndSplineSet
EndChar

StartChar: uni0432
Encoding: 1074 1074 474
Width: 558
Flags: W
LayerCount: 2
Fore
SplineSet
380 289 m 1
 472 279 515 235 515 162 c 0
 515 47 417 0 284 0 c 2
 75 0 l 1
 75 523 l 1
 141 536 205 544 268 544 c 0
 402 544 489 496 489 400 c 0
 489 341 452 302 380 289 c 1
267 457 m 0
 243 457 225 455 203 452 c 1
 203 318 l 1
 279 318 l 2
 328 318 362 337 362 389 c 0
 362 436 329 457 267 457 c 0
281 89 m 2
 339 89 382 108 382 170 c 0
 382 219 354 242 283 242 c 2
 203 242 l 1
 203 89 l 1
 281 89 l 2
EndSplineSet
EndChar

StartChar: uni0433
Encoding: 1075 1075 475
Width: 429
Flags: W
LayerCount: 2
Fore
SplineSet
203 0 m 1
 75 0 l 1
 75 529 l 1
 429 529 l 1
 414 429 l 1
 203 429 l 1
 203 0 l 1
EndSplineSet
EndChar

StartChar: uni0434
Encoding: 1076 1076 476
Width: 556
Flags: W
LayerCount: 2
Fore
SplineSet
478 97 m 1
 533 97 l 1
 533 -158 l 1
 440 -158 l 1
 423 0 l 1
 110 0 l 1
 94 -158 l 1
 0 -158 l 1
 0 97 l 1
 35 97 l 1
 70 121 94 149 109 342 c 2
 123 529 l 1
 478 529 l 1
 478 97 l 1
355 97 m 1
 355 439 l 1
 235 439 l 1
 228 355 l 2
 215 185 195 134 137 97 c 1
 355 97 l 1
EndSplineSet
EndChar

StartChar: uni0435
Encoding: 1077 1077 477
Width: 549
Flags: W
LayerCount: 2
Fore
SplineSet
511 277 m 0
 511 260 509 239 508 225 c 1
 176 225 l 1
 186 117 236 82 306 82 c 0
 353 82 392 97 438 129 c 1
 491 56 l 1
 439 14 375 -15 295 -15 c 0
 131 -15 43 94 43 261 c 0
 43 422 128 544 278 544 c 0
 426 544 511 444 511 277 c 0
384 308 m 1
 384 314 l 2
 384 401 353 453 281 453 c 0
 221 453 183 413 176 308 c 1
 384 308 l 1
EndSplineSet
EndChar

StartChar: uni0436
Encoding: 1078 1078 478
Width: 747
Flags: W
LayerCount: 2
Fore
SplineSet
717 529 m 1
 590 282 l 1
 732 0 l 1
 598 0 l 1
 489 232 l 1
 431 232 l 1
 431 0 l 1
 315 0 l 1
 315 232 l 1
 258 232 l 1
 147 0 l 1
 15 0 l 1
 157 282 l 1
 30 529 l 1
 155 529 l 1
 256 317 l 1
 315 317 l 1
 315 529 l 1
 431 529 l 1
 431 317 l 1
 490 317 l 1
 592 529 l 1
 717 529 l 1
EndSplineSet
EndChar

StartChar: uni0437
Encoding: 1079 1079 479
Width: 494
Flags: W
LayerCount: 2
Fore
SplineSet
228 544 m 0
 336 544 428 492 428 399 c 0
 428 340 393 302 316 283 c 1
 406 269 455 232 455 154 c 0
 455 40 353 -15 219 -15 c 0
 129 -15 62 10 8 50 c 1
 71 124 l 1
 117 94 157 80 214 80 c 0
 275 80 321 100 321 159 c 0
 321 212 275 230 208 230 c 2
 131 230 l 1
 139 318 l 1
 197 318 l 2
 257 318 298 339 298 389 c 0
 298 435 260 452 212 452 c 0
 159 452 123 437 86 412 c 1
 27 483 l 1
 82 523 145 544 228 544 c 0
EndSplineSet
EndChar

StartChar: uni0438
Encoding: 1080 1080 480
Width: 591
Flags: W
LayerCount: 2
Fore
SplineSet
516 529 m 1
 516 0 l 1
 393 0 l 1
 393 212 l 2
 393 298 403 372 409 399 c 1
 212 0 l 1
 75 0 l 1
 75 529 l 1
 199 529 l 1
 199 317 l 2
 199 238 189 158 183 131 c 1
 377 529 l 1
 516 529 l 1
EndSplineSet
EndChar

StartChar: uni0439
Encoding: 1081 1081 481
Width: 591
Flags: W
LayerCount: 2
Fore
SplineSet
294 637 m 0
 200 637 140 691 132 774 c 1
 207 789 l 1
 220 746 248 729 294 729 c 0
 340 729 370 746 382 789 c 1
 458 774 l 1
 450 691 388 637 294 637 c 0
516 529 m 1
 516 0 l 1
 393 0 l 1
 393 212 l 2
 393 298 403 372 409 399 c 1
 212 0 l 1
 75 0 l 1
 75 529 l 1
 199 529 l 1
 199 317 l 2
 199 238 189 158 183 131 c 1
 377 529 l 1
 516 529 l 1
EndSplineSet
EndChar

StartChar: uni043A
Encoding: 1082 1082 482
Width: 536
Flags: W
LayerCount: 2
Fore
SplineSet
515 529 m 1
 365 284 l 1
 530 0 l 1
 389 0 l 1
 260 235 l 1
 203 235 l 1
 203 0 l 1
 75 0 l 1
 75 529 l 1
 203 529 l 1
 203 320 l 1
 263 320 l 1
 386 529 l 1
 515 529 l 1
EndSplineSet
EndChar

StartChar: uni043B
Encoding: 1083 1083 483
Width: 571
Flags: W
LayerCount: 2
Fore
SplineSet
124 529 m 1
 496 529 l 1
 496 0 l 1
 368 0 l 1
 368 432 l 1
 239 432 l 1
 226 290 l 2
 208 84 189 22 56 -12 c 1
 24 83 l 1
 87 109 93 131 106 299 c 2
 124 529 l 1
EndSplineSet
EndChar

StartChar: uni043C
Encoding: 1084 1084 484
Width: 671
Flags: W
LayerCount: 2
Fore
SplineSet
581 529 m 1
 628 0 l 1
 506 0 l 1
 489 217 l 2
 484 280 484 335 487 413 c 1
 386 56 l 1
 275 56 l 1
 178 413 l 1
 182 344 182 280 179 217 c 2
 165 0 l 1
 43 0 l 1
 89 529 l 1
 245 529 l 1
 331 171 l 1
 424 529 l 1
 581 529 l 1
EndSplineSet
EndChar

StartChar: uni043D
Encoding: 1085 1085 485
Width: 585
Flags: W
LayerCount: 2
Fore
SplineSet
382 0 m 1
 382 221 l 1
 203 221 l 1
 203 0 l 1
 75 0 l 1
 75 529 l 1
 203 529 l 1
 203 318 l 1
 382 318 l 1
 382 529 l 1
 510 529 l 1
 510 0 l 1
 382 0 l 1
EndSplineSet
EndChar

StartChar: uni043E
Encoding: 1086 1086 486
Width: 584
Flags: W
LayerCount: 2
Fore
SplineSet
293 544 m 0
 449 544 541 438 541 265 c 0
 541 98 448 -15 292 -15 c 0
 136 -15 43 91 43 265 c 0
 43 431 136 544 293 544 c 0
293 447 m 0
 218 447 178 390 178 265 c 0
 178 138 217 82 292 82 c 0
 367 82 406 139 406 265 c 0
 406 391 367 447 293 447 c 0
EndSplineSet
EndChar

StartChar: uni043F
Encoding: 1087 1087 487
Width: 582
Flags: W
LayerCount: 2
Fore
SplineSet
379 0 m 1
 379 431 l 1
 203 431 l 1
 203 0 l 1
 75 0 l 1
 75 529 l 1
 507 529 l 1
 507 0 l 1
 379 0 l 1
EndSplineSet
EndChar

StartChar: uni0440
Encoding: 1088 1088 488
Width: 589
Flags: W
LayerCount: 2
Fore
SplineSet
349 544 m 0
 487 544 545 435 545 266 c 0
 545 104 470 -15 336 -15 c 0
 282 -15 236 4 203 43 c 1
 203 -204 l 1
 75 -218 l 1
 75 529 l 1
 187 529 l 1
 194 464 l 1
 236 519 292 544 349 544 c 0
300 83 m 0
 370 83 411 137 411 265 c 0
 411 399 375 448 311 448 c 0
 266 448 228 417 203 376 c 1
 203 138 l 1
 228 101 260 83 300 83 c 0
EndSplineSet
EndChar

StartChar: uni0441
Encoding: 1089 1089 489
Width: 478
Flags: W
LayerCount: 2
Fore
SplineSet
290 544 m 0
 359 544 412 525 462 482 c 1
 405 405 l 1
 370 431 338 443 298 443 c 0
 224 443 179 389 179 262 c 0
 179 134 226 89 298 89 c 0
 338 89 366 102 405 127 c 1
 462 46 l 1
 414 7 359 -15 291 -15 c 0
 138 -15 43 91 43 260 c 0
 43 429 138 544 290 544 c 0
EndSplineSet
EndChar

StartChar: uni0442
Encoding: 1090 1090 490
Width: 463
Flags: W
LayerCount: 2
Fore
SplineSet
466 529 m 1
 450 431 l 1
 295 431 l 1
 295 0 l 1
 167 0 l 1
 167 431 l 1
 3 431 l 1
 3 529 l 1
 466 529 l 1
EndSplineSet
EndChar

StartChar: uni0443
Encoding: 1091 1091 491
Width: 506
Flags: W
LayerCount: 2
Fore
SplineSet
505 529 m 1
 333 -2 l 2
 293 -126 215 -206 58 -218 c 1
 45 -125 l 1
 150 -109 184 -75 214 0 c 1
 170 0 l 1
 2 529 l 1
 138 529 l 1
 253 85 l 1
 373 529 l 1
 505 529 l 1
EndSplineSet
EndChar

StartChar: uni0444
Encoding: 1092 1092 492
Width: 818
Flags: W
LayerCount: 2
Fore
SplineSet
593 544 m 0
 725 544 774 436 774 265 c 0
 774 95 704 -15 590 -15 c 0
 540 -15 499 7 469 48 c 1
 469 -204 l 1
 348 -218 l 1
 348 46 l 1
 318 7 274 -15 223 -15 c 0
 113 -15 43 95 43 265 c 0
 43 436 97 544 225 544 c 0
 271 544 314 529 348 489 c 1
 348 755 l 1
 469 741 l 1
 469 487 l 1
 503 528 546 544 593 544 c 0
259 81 m 0
 295 81 323 100 348 135 c 1
 348 398 l 1
 324 430 294 449 258 449 c 0
 205 449 176 395 176 265 c 0
 176 135 207 81 259 81 c 0
557 81 m 0
 610 81 642 135 642 265 c 0
 642 395 614 449 558 449 c 0
 521 449 493 429 469 396 c 1
 469 136 l 1
 492 100 519 81 557 81 c 0
EndSplineSet
EndChar

StartChar: uni0445
Encoding: 1093 1093 493
Width: 500
Flags: W
LayerCount: 2
Fore
SplineSet
326 283 m 1
 503 0 l 1
 355 0 l 1
 246 210 l 1
 138 0 l 1
 -3 0 l 1
 173 279 l 1
 15 529 l 1
 161 529 l 1
 251 349 l 1
 340 529 l 1
 479 529 l 1
 326 283 l 1
EndSplineSet
EndChar

StartChar: uni0446
Encoding: 1094 1094 494
Width: 590
Flags: W
LayerCount: 2
Fore
SplineSet
502 97 m 1
 584 97 l 1
 584 -158 l 1
 490 -158 l 1
 473 0 l 1
 75 0 l 1
 75 529 l 1
 203 529 l 1
 203 98 l 1
 374 98 l 1
 374 529 l 1
 502 529 l 1
 502 97 l 1
EndSplineSet
EndChar

StartChar: uni0447
Encoding: 1095 1095 495
Width: 549
Flags: W
LayerCount: 2
Fore
SplineSet
346 529 m 1
 474 529 l 1
 474 0 l 1
 346 0 l 1
 346 208 l 1
 308 176 252 155 193 155 c 0
 90 155 41 216 41 315 c 2
 41 529 l 1
 169 529 l 1
 169 331 l 2
 169 272 192 251 237 251 c 0
 275 251 320 269 346 295 c 1
 346 529 l 1
EndSplineSet
EndChar

StartChar: uni0448
Encoding: 1096 1096 496
Width: 784
Flags: W
LayerCount: 2
Fore
SplineSet
709 529 m 1
 709 0 l 1
 75 0 l 1
 75 529 l 1
 198 529 l 1
 198 97 l 1
 335 97 l 1
 335 529 l 1
 449 529 l 1
 449 97 l 1
 586 97 l 1
 586 529 l 1
 709 529 l 1
EndSplineSet
EndChar

StartChar: uni0449
Encoding: 1097 1097 497
Width: 798
Flags: W
LayerCount: 2
Fore
SplineSet
709 97 m 1
 791 97 l 1
 791 -158 l 1
 698 -158 l 1
 681 0 l 1
 75 0 l 1
 75 529 l 1
 198 529 l 1
 198 97 l 1
 335 97 l 1
 335 529 l 1
 449 529 l 1
 449 97 l 1
 586 97 l 1
 586 529 l 1
 709 529 l 1
 709 97 l 1
EndSplineSet
EndChar

StartChar: uni044A
Encoding: 1098 1098 498
Width: 608
Flags: W
LayerCount: 2
Fore
SplineSet
345 362 m 2
 516 362 583 294 583 181 c 0
 583 57 485 0 366 0 c 2
 165 0 l 1
 165 436 l 1
 3 436 l 1
 3 529 l 1
 295 529 l 1
 293 528 l 1
 293 362 l 1
 345 362 l 2
353 89 m 2
 413 89 450 115 450 183 c 0
 450 243 424 275 344 275 c 2
 293 275 l 1
 293 89 l 1
 353 89 l 2
EndSplineSet
EndChar

StartChar: uni044B
Encoding: 1099 1099 499
Width: 745
Flags: W
LayerCount: 2
Fore
SplineSet
245 362 m 2
 416 362 483 294 483 181 c 0
 483 57 385 0 266 0 c 2
 75 0 l 1
 75 529 l 1
 203 529 l 1
 203 362 l 1
 245 362 l 2
542 529 m 1
 670 529 l 1
 670 0 l 1
 542 0 l 1
 542 529 l 1
253 89 m 2
 312 89 350 115 350 183 c 0
 350 243 324 275 244 275 c 2
 203 275 l 1
 203 89 l 1
 253 89 l 2
EndSplineSet
EndChar

StartChar: uni044C
Encoding: 1100 1100 500
Width: 517
Flags: W
LayerCount: 2
Fore
SplineSet
255 362 m 2
 426 362 493 294 493 181 c 0
 493 57 395 0 276 0 c 2
 75 0 l 1
 75 529 l 1
 203 529 l 1
 203 362 l 1
 255 362 l 2
263 89 m 2
 322 89 360 115 360 183 c 0
 360 243 334 275 254 275 c 2
 203 275 l 1
 203 89 l 1
 263 89 l 2
EndSplineSet
EndChar

StartChar: uni044D
Encoding: 1101 1101 501
Width: 485
Flags: W
LayerCount: 2
Fore
SplineSet
214 544 m 0
 352 544 442 454 442 268 c 0
 442 95 356 -15 194 -15 c 0
 124 -15 67 7 20 44 c 1
 77 121 l 1
 114 94 145 82 191 82 c 0
 255 82 304 122 310 230 c 1
 109 230 l 1
 109 311 l 1
 310 311 l 1
 303 408 267 448 206 448 c 0
 163 448 128 437 89 411 c 1
 34 484 l 1
 83 523 140 544 214 544 c 0
EndSplineSet
EndChar

StartChar: uni044E
Encoding: 1102 1102 502
Width: 795
Flags: W
LayerCount: 2
Fore
SplineSet
515 544 m 0
 658 544 751 439 751 265 c 0
 751 105 663 -15 514 -15 c 0
 380 -15 298 80 283 223 c 1
 203 223 l 1
 203 0 l 1
 75 0 l 1
 75 529 l 1
 203 529 l 1
 203 316 l 1
 285 316 l 1
 303 450 383 544 515 544 c 0
514 82 m 0
 590 82 619 146 619 265 c 0
 619 385 584 446 515 446 c 0
 446 446 411 390 411 265 c 0
 411 145 445 82 514 82 c 0
EndSplineSet
EndChar

StartChar: uni044F
Encoding: 1103 1103 503
Width: 552
Flags: W
LayerCount: 2
Fore
SplineSet
287 529 m 2
 477 529 l 1
 477 0 l 1
 349 0 l 1
 349 193 l 1
 260 193 l 1
 157 0 l 1
 18 0 l 1
 142 222 l 1
 86 250 55 298 55 362 c 0
 55 472 138 529 287 529 c 2
283 276 m 2
 349 276 l 1
 349 442 l 1
 285 442 l 2
 220 442 187 414 187 361 c 0
 187 305 216 276 283 276 c 2
EndSplineSet
EndChar

StartChar: uni0450
Encoding: 1104 1104 504
Width: 549
Flags: W
LayerCount: 2
Fore
SplineSet
212 820 m 1
 422 695 l 1
 385 630 l 1
 160 720 l 1
 212 820 l 1
511 277 m 0
 511 260 509 239 508 225 c 1
 176 225 l 1
 186 117 236 82 306 82 c 0
 353 82 392 97 438 129 c 1
 491 56 l 1
 439 14 375 -15 295 -15 c 0
 131 -15 43 94 43 261 c 0
 43 422 128 544 278 544 c 0
 426 544 511 444 511 277 c 0
384 308 m 1
 384 314 l 2
 384 401 353 453 281 453 c 0
 221 453 183 413 176 308 c 1
 384 308 l 1
EndSplineSet
EndChar

StartChar: uni0451
Encoding: 1105 1105 505
Width: 549
Flags: W
LayerCount: 2
Fore
SplineSet
170 785 m 0
 209 785 239 755 239 716 c 0
 239 677 209 647 170 647 c 0
 130 647 99 677 99 716 c 0
 99 755 130 785 170 785 c 0
391 785 m 0
 431 785 461 755 461 716 c 0
 461 677 431 647 391 647 c 0
 352 647 321 677 321 716 c 0
 321 755 352 785 391 785 c 0
511 277 m 0
 511 260 509 239 508 225 c 1
 176 225 l 1
 186 117 236 82 306 82 c 0
 353 82 392 97 438 129 c 1
 491 56 l 1
 439 14 375 -15 295 -15 c 0
 131 -15 43 94 43 261 c 0
 43 422 128 544 278 544 c 0
 426 544 511 444 511 277 c 0
384 308 m 1
 384 314 l 2
 384 401 353 453 281 453 c 0
 221 453 183 413 176 308 c 1
 384 308 l 1
EndSplineSet
EndChar

StartChar: uni0452
Encoding: 1106 1106 506
Width: 583
Flags: W
LayerCount: 2
Fore
SplineSet
365 544 m 0
 458 544 515 483 515 383 c 2
 515 47 l 2
 515 -115 441 -169 322 -217 c 1
 281 -124 l 1
 350 -92 387 -65 387 39 c 2
 387 363 l 2
 387 429 360 448 321 448 c 0
 276 448 241 417 210 369 c 1
 210 0 l 1
 82 0 l 1
 82 601 l 1
 15 601 l 1
 15 683 l 1
 82 683 l 1
 82 740 l 1
 210 753 l 1
 210 683 l 1
 356 683 l 1
 356 601 l 1
 210 601 l 1
 210 465 l 1
 250 516 301 544 365 544 c 0
EndSplineSet
EndChar

StartChar: uni0453
Encoding: 1107 1107 507
Width: 429
Flags: W
LayerCount: 2
Fore
SplineSet
328 820 m 1
 380 720 l 1
 154 630 l 1
 118 695 l 1
 328 820 l 1
203 0 m 1
 75 0 l 1
 75 529 l 1
 429 529 l 1
 414 429 l 1
 203 429 l 1
 203 0 l 1
EndSplineSet
EndChar

StartChar: uni0454
Encoding: 1108 1108 508
Width: 484
Flags: W
LayerCount: 2
Fore
SplineSet
299 82 m 0
 336 82 368 93 408 123 c 1
 465 46 l 1
 415 6 359 -15 296 -15 c 0
 138 -15 43 91 43 262 c 0
 43 431 140 544 291 544 c 0
 359 544 415 525 465 482 c 1
 408 409 l 1
 368 439 336 448 299 448 c 0
 227 448 180 404 175 311 c 1
 378 311 l 1
 378 230 l 1
 174 230 l 1
 179 125 228 82 299 82 c 0
EndSplineSet
EndChar

StartChar: uni0455
Encoding: 1109 1109 509
Width: 474
Flags: W
LayerCount: 2
Fore
SplineSet
244 544 m 0
 320 544 382 520 432 481 c 1
 382 406 l 1
 338 434 296 449 249 449 c 0
 198 449 169 428 169 396 c 0
 169 361 190 345 280 320 c 0
 388 291 449 247 449 153 c 0
 449 43 347 -15 226 -15 c 0
 135 -15 64 16 15 60 c 1
 79 132 l 1
 120 101 169 80 223 80 c 0
 280 80 317 104 317 144 c 0
 317 188 296 202 197 230 c 0
 88 260 40 312 40 390 c 0
 40 478 121 544 244 544 c 0
EndSplineSet
EndChar

StartChar: uni0456
Encoding: 1110 1110 510
Width: 278
Flags: W
LayerCount: 2
Fore
SplineSet
138 797 m 0
 186 797 219 763 219 719 c 0
 219 676 186 642 138 642 c 0
 91 642 58 676 58 719 c 0
 58 763 91 797 138 797 c 0
203 529 m 1
 203 0 l 1
 75 0 l 1
 75 529 l 1
 203 529 l 1
EndSplineSet
EndChar

StartChar: uni0457
Encoding: 1111 1111 511
Width: 278
Flags: W
LayerCount: 2
Fore
SplineSet
28 785 m 0
 67 785 97 755 97 716 c 0
 97 677 67 647 28 647 c 0
 -12 647 -43 677 -43 716 c 0
 -43 755 -12 785 28 785 c 0
249 785 m 0
 289 785 319 755 319 716 c 0
 319 677 289 647 249 647 c 0
 210 647 179 677 179 716 c 0
 179 755 210 785 249 785 c 0
203 529 m 1
 203 0 l 1
 75 0 l 1
 75 529 l 1
 203 529 l 1
EndSplineSet
EndChar

